SplineFontDB: 3.0
FontName: Oswald-ExtraLight
FullName: Oswald ExtraLight
FamilyName: Oswald
Weight: Extra-Light
Copyright: Copyright (c) 2010-13 by Vernon Adams
Version: 3
ItalicAngle: 0
UnderlinePosition: -67
UnderlineWidth: 21
Ascent: 1658
Descent: 390
UFOAscent: 1658
UFODescent: -390
LayerCount: 2
Layer: 0 0 "Back"  1
Layer: 1 0 "Fore"  0
FSType: 0
OS2Version: 0
OS2_WeightWidthSlopeOnly: 0
OS2_UseTypoMetrics: 1
CreationTime: 1372378322
ModificationTime: 1372783978
PfmFamily: 33
TTFWeight: 200
TTFWidth: 5
LineGap: 0
VLineGap: 0
OS2TypoAscent: 2233
OS2TypoAOffset: 0
OS2TypoDescent: -548
OS2TypoDOffset: 0
OS2TypoLinegap: 0
OS2WinAscent: 2233
OS2WinAOffset: 0
OS2WinDescent: 548
OS2WinDOffset: 0
HheadAscent: 2233
HheadAOffset: 0
HheadDescent: -548
HheadDOffset: 0
OS2Vendor: 'newt'
Lookup: 258 0 0 "'kern' Horizontal Kerning in Cyrillic lookup 0"  {"'kern' Horizontal Kerning in Cyrillic lookup 0 subtable" [307,30,0] "'kern' Horizontal Kerning lookup 2 kerning class 1" [307,0,0] } ['kern' ('cyrl' <'dflt' > ) ]
Lookup: 260 0 0 "markMarkPositioninglookup2"  {"markMarkPositioninglookup2 subtable"  } ['mark' ('latn' <'dflt' > 'grek' <'dflt' > 'cyrl' <'dflt' > 'DFLT' <'dflt' > ) ]
MarkAttachClasses: 1
DEI: 91125
KernClass2: 40 56 "'kern' Horizontal Kerning lookup 2 kerning class 1" 
 89 A Aacute Abreve Acircumflex Adieresis Agrave Amacron Aogonek Aring Atilde uni0200 uni0202
 16 D Dcaron uni1E0A
 94 E Eacute Ebreve Ecaron Ecircumflex Edieresis Edotaccent Egrave Emacron Eogonek uni0204 uni0206
 9 F uni1E1E
 52 G Gbreve Gcircumflex Gcommaaccent Gdotaccent uni01F4
 14 K Kcommaaccent
 28 L Lacute Lcaron Lcommaaccent
 9 P uni1E56
 44 R Racute Rcaron Rcommaaccent uni0210 uni0212
 37 T Tcaron Tcommaaccent uni021A uni1E6A
 1 V
 37 W Wacute Wcircumflex Wdieresis Wgrave
 37 Y Yacute Ycircumflex Ydieresis Ygrave
 89 a aacute abreve acircumflex adieresis agrave amacron aogonek aring atilde uni0201 uni0203
 9 afii10017
 19 afii10020 afii10052
 19 afii10037 afii10062
 9 afii10059

StartChar: A
Encoding: 65 65 0
Width: 959
VWidth: 0
Flags: W
HStem: 0 21G<66 179.886 777.245 893> 458 83<281 679> 1638 20G<409.802 546.234>
AnchorPoint: "ogonek" 831 0 basechar 0
LayerCount: 2
Fore
SplineSet
66 0 m 1
 414 1658 l 1
 542 1658 l 1
 893 0 l 1
 781 0 l 1
 695 458 l 1
 265 458 l 1
 176 0 l 1
 66 0 l 1
281 541 m 1
 679 541 l 1
 479 1523 l 1
 281 541 l 1
EndSplineSet
EndChar

StartChar: AE
Encoding: 198 198 1
Width: 1293
VWidth: 0
Flags: W
HStem: 0 97<762 1220> 458 90<303 644> 822 89<762 1089> 1561 97<762 1220>
VStem: 644 118<97 458 548 822 911 1489>
LayerCount: 2
Fore
SplineSet
-31 0 m 1
 612 1658 l 1
 1220 1658 l 1
 1220 1561 l 1
 762 1561 l 1
 762 911 l 1
 1089 911 l 1
 1089 822 l 1
 762 822 l 1
 762 97 l 1
 1220 97 l 1
 1220 0 l 1
 645 0 l 1
 645 458 l 1
 271 458 l 1
 100 0 l 1
 -31 0 l 1
303 548 m 1
 644 548 l 1
 644 1489 l 1
 303 548 l 1
EndSplineSet
Colour: ffff00
EndChar

StartChar: B
Encoding: 66 66 11
Width: 1000
VWidth: 0
Flags: W
HStem: 0 88<265 697.602> 843 88<265 684.054> 1569 89<265 662.054>
VStem: 153 112<88 843 931 1569> 775 104<1028.88 1459.75> 806 109<206.974 716.129>
LayerCount: 2
Fore
SplineSet
153 0 m 1xf4
 153 1658 l 1
 495 1658 l 2
 800 1658 879 1475 879 1245 c 0xf8
 879 1112 845 934 684 894 c 1
 877 837 915 630 915 483 c 0
 915 233 864 0 545 0 c 2
 153 0 l 1xf4
265 88 m 1
 531 88 l 2
 750 88 806 213 806 482 c 0xf4
 806 679 745 843 546 843 c 2
 265 843 l 1
 265 88 l 1
265 931 m 1
 544 931 l 2
 728 931 775 1074 775 1245 c 0xf8
 775 1430 729 1569 470 1569 c 2
 265 1569 l 1
 265 931 l 1
EndSplineSet
EndChar

StartChar: C
Encoding: 67 67 12
Width: 1001
VWidth: 0
Flags: W
HStem: -22 92<352.826 686.363> 1586 91<352.351 686.385>
VStem: 118 113<207.683 1453.68> 795 106<195.596 546 1126 1462.85>
AnchorPoint: "cedilla" 480 0 basechar 0
LayerCount: 2
Fore
SplineSet
523 -22 m 0
 195 -22 118 200 118 478 c 2
 118 1181 l 2
 118 1467 204 1677 523 1677 c 0
 811 1677 901 1492 901 1210 c 2
 901 1126 l 1
 795 1126 l 1
 795 1211 l 2
 795 1446 740 1586 523 1586 c 0
 282 1586 231 1427 231 1194 c 2
 231 460 l 2
 231 215 292 70 523 70 c 0
 744 70 795 219 795 446 c 2
 795 546 l 1
 901 546 l 1
 901 464 l 2
 901 181 821 -22 523 -22 c 0
EndSplineSet
EndChar

StartChar: D
Encoding: 68 68 18
Width: 1059
VWidth: 0
Flags: W
HStem: 0 88<265 694.626> 1569 89<265 700.769>
VStem: 153 112<88 1569> 828 113<234.424 1430.21>
LayerCount: 2
Fore
SplineSet
265 88 m 1
 521 88 l 2
 789 88 828 280 828 506 c 2
 828 1173 l 2
 828 1416 771 1569 516 1569 c 2
 265 1569 l 1
 265 88 l 1
153 0 m 1
 153 1658 l 1
 517 1658 l 2
 846 1658 941 1448 941 1182 c 2
 941 494 l 2
 941 208 847 0 526 0 c 2
 153 0 l 1
EndSplineSet
EndChar

StartChar: Dcroat
Encoding: 264 272 20
Width: 1060
VWidth: 0
Flags: W
HStem: 0 88<266 696.132> 836 75<20 154 266 458> 1569 89<266 702.17>
VStem: 154 112<88 836 911 1569> 829 113<234.424 1430.21>
LayerCount: 2
Fore
SplineSet
266 88 m 1
 522 88 l 2
 790 88 829 280 829 506 c 2
 829 1173 l 2
 829 1416 772 1569 517 1569 c 2
 266 1569 l 1
 266 911 l 1
 458 911 l 1
 458 836 l 1
 266 836 l 1
 266 88 l 1
154 0 m 1
 154 836 l 1
 20 836 l 1
 20 911 l 1
 154 911 l 1
 154 1658 l 1
 518 1658 l 2
 848 1658 942 1448 942 1182 c 2
 942 494 l 2
 942 208 848 0 528 0 c 2
 154 0 l 1
EndSplineSet
EndChar

StartChar: E
Encoding: 69 69 21
Width: 804
VWidth: 0
Flags: W
HStem: 0 88<264 731> 817 87<264 643> 1569 89<264 726>
VStem: 152 112<88 817 904 1569>
AnchorPoint: "ogonek" 511 0 basechar 0
LayerCount: 2
Fore
SplineSet
152 0 m 1
 152 1658 l 1
 726 1658 l 1
 726 1569 l 1
 264 1569 l 1
 264 904 l 1
 643 904 l 1
 643 817 l 1
 264 817 l 1
 264 88 l 1
 731 88 l 1
 731 0 l 1
 152 0 l 1
EndSplineSet
EndChar

StartChar: Eng
Encoding: 269 330 30
Width: 1101
VWidth: 0
Flags: W
HStem: -288 78<585 761.303> 0 21G<153 248> 1638 20G<153 250.086 808 903>
VStem: 153 95<0 1403> 808 95<-168.035 25 258 1658>
LayerCount: 2
Fore
SplineSet
585 -288 m 1
 585 -210 l 1
 589 -210 592 -210 596 -210 c 0
 770 -210 805 -162 805 -29 c 2
 805 25 l 1
 248 1403 l 1
 248 0 l 1
 153 0 l 1
 153 1658 l 1
 242 1658 l 1
 808 258 l 1
 808 1658 l 1
 903 1658 l 1
 903 0 l 2
 903 -188 854 -288 647 -288 c 2
 585 -288 l 1
EndSplineSet
Colour: ffff00
EndChar

StartChar: Eth
Encoding: 208 208 32
Width: 1149
VWidth: 0
Flags: W
HStem: 0 88<265 694.626> 836 75<18 153 265 456> 1569 89<265 700.769>
VStem: 153 112<88 836 911 1569> 828 113<234.424 1430.21>
LayerCount: 2
Fore
SplineSet
265 88 m 1
 521 88 l 2
 789 88 828 280 828 506 c 2
 828 1173 l 2
 828 1416 771 1569 516 1569 c 2
 265 1569 l 1
 265 911 l 1
 456 911 l 1
 456 836 l 1
 265 836 l 1
 265 88 l 1
153 0 m 1
 153 836 l 1
 18 836 l 1
 18 911 l 1
 153 911 l 1
 153 1658 l 1
 517 1658 l 2
 846 1658 941 1448 941 1182 c 2
 941 494 l 2
 941 208 847 0 526 0 c 2
 153 0 l 1
EndSplineSet
Colour: fff345
EndChar

StartChar: Euro
Encoding: 271 8364 33
Width: 985
VWidth: 0
Flags: W
HStem: -22 92<352.826 686.363> 634 66<-20 118 231 524> 1004 66<-20 118 231 524> 1586 91<352.351 686.385>
VStem: 118 113<207.683 634 700 1004 1070 1453.68> 795 106<195.596 533 1139 1462.85>
CounterMasks: 1 f0
LayerCount: 2
Fore
SplineSet
523 -22 m 0
 195 -22 118 200 118 478 c 2
 118 634 l 1
 -20 634 l 1
 -20 700 l 1
 118 700 l 1
 118 1004 l 1
 -20 1004 l 1
 -20 1070 l 1
 118 1070 l 1
 118 1181 l 2
 118 1467 204 1677 523 1677 c 0
 811 1677 901 1492 901 1210 c 2
 901 1139 l 1
 795 1139 l 1
 795 1211 l 2
 795 1446 740 1586 523 1586 c 0
 282 1586 231 1427 231 1194 c 2
 231 1070 l 1
 524 1070 l 1
 524 1004 l 1
 231 1004 l 1
 231 700 l 1
 524 700 l 1
 524 634 l 1
 231 634 l 1
 231 460 l 2
 231 215 292 70 523 70 c 0
 744 70 795 219 795 446 c 2
 795 533 l 1
 901 533 l 1
 901 464 l 2
 901 181 821 -22 523 -22 c 0
EndSplineSet
EndChar

StartChar: F
Encoding: 70 70 34
Width: 784
VWidth: 0
Flags: W
HStem: 0 21G<153 265> 817 87<265 662> 1570 88<265 724>
VStem: 153 112<0 817 904 1570>
LayerCount: 2
Fore
SplineSet
153 0 m 1
 153 1658 l 1
 724 1658 l 1
 724 1570 l 1
 265 1570 l 1
 265 904 l 1
 662 904 l 1
 662 817 l 1
 265 817 l 1
 265 0 l 1
 153 0 l 1
EndSplineSet
EndChar

StartChar: G
Encoding: 71 71 35
Width: 1045
VWidth: 0
Flags: W
HStem: -23 93<351.907 687.775> 0 21G<834.172 908> 704 86<539 803> 1586 91<354.482 686.452>
VStem: 118 113<205.026 1449.12> 803 105<200.874 704 1146 1452.67> 836 72<0 156.853>
LayerCount: 2
Fore
SplineSet
517 -23 m 0xba
 201 -23 118 189 118 481 c 2
 118 1185 l 2
 118 1477 203 1677 522 1677 c 0
 811 1677 905 1495 905 1204 c 2
 905 1146 l 1
 799 1146 l 1
 799 1211 l 2
 799 1454 738 1586 523 1586 c 0
 279 1586 231 1422 231 1189 c 2
 231 467 l 2
 231 225 288 70 525 70 c 0
 744 70 803 218 803 460 c 2
 803 704 l 1xbc
 539 704 l 1
 539 790 l 1
 908 790 l 1
 908 0 l 1
 836 0 l 1x7a
 819 186 l 1
 779 57 691 -23 517 -23 c 0xba
EndSplineSet
EndChar

StartChar: H
Encoding: 72 72 40
Width: 1109
VWidth: 0
Flags: W
HStem: 0 21G<152 264 845 957> 826 85<264 845> 1638 20G<152 264 845 957>
VStem: 152 112<0 826 911 1658> 845 112<0 826 911 1658>
LayerCount: 2
Fore
SplineSet
152 0 m 1
 152 1658 l 1
 264 1658 l 1
 264 911 l 1
 845 911 l 1
 845 1658 l 1
 957 1658 l 1
 957 0 l 1
 845 0 l 1
 845 826 l 1
 264 826 l 1
 264 0 l 1
 152 0 l 1
EndSplineSet
EndChar

StartChar: Hbar
Encoding: 276 294 41
Width: 1109
VWidth: 0
Flags: W
HStem: 0 21G<152 264 845 957> 826 85<264 845> 1311 66<76 152 264 845 957 1034> 1638 20G<152 264 845 957>
VStem: 152 112<0 826 911 1311 1377 1658> 845 112<0 826 911 1311 1377 1658>
LayerCount: 2
Fore
SplineSet
152 0 m 1
 152 1311 l 1
 76 1311 l 1
 76 1377 l 1
 152 1377 l 1
 152 1658 l 1
 264 1658 l 1
 264 1377 l 1
 845 1377 l 1
 845 1658 l 1
 957 1658 l 1
 957 1377 l 1
 1034 1377 l 1
 1034 1311 l 1
 957 1311 l 1
 957 0 l 1
 845 0 l 1
 845 826 l 1
 264 826 l 1
 264 0 l 1
 152 0 l 1
264 911 m 1
 845 911 l 1
 845 1311 l 1
 264 1311 l 1
 264 911 l 1
EndSplineSet
EndChar

StartChar: I
Encoding: 73 73 43
Width: 422
VWidth: 0
Flags: W
HStem: 0 21G<156 267> 1638 20G<156 267>
VStem: 156 111<0 1658>
AnchorPoint: "ogonek" 220 0 basechar 0
LayerCount: 2
Fore
SplineSet
156 0 m 1
 156 1658 l 1
 267 1658 l 1
 267 0 l 1
 156 0 l 1
EndSplineSet
EndChar

StartChar: J
Encoding: 74 74 53
Width: 543
VWidth: 0
Flags: W
HStem: -92 87<16 223.895> 1638 20G<278 390>
VStem: 278 112<48.3773 1658>
AnchorPoint: "circumflexcomb" 338 1658 basechar 0
LayerCount: 2
Fore
SplineSet
16 -92 m 1
 16 -5 l 1
 260 -4 278 43 278 308 c 2
 278 1658 l 1
 390 1658 l 1
 390 294 l 1
 389 29 353 -92 74 -92 c 2
 16 -92 l 1
EndSplineSet
EndChar

StartChar: K
Encoding: 75 75 55
Width: 942
VWidth: 0
Flags: W
HStem: 0 21G<152 264 819.911 941> 1638 20G<152 264 735.634 856>
VStem: 152 112<0 594 728 1658>
LayerCount: 2
Fore
SplineSet
152 0 m 1
 152 1658 l 1
 264 1658 l 1
 264 728 l 1
 746 1658 l 1
 856 1658 l 1
 505 957 l 1
 941 0 l 1
 829 0 l 1
 425 889 l 1
 264 594 l 1
 264 0 l 1
 152 0 l 1
EndSplineSet
EndChar

StartChar: L
Encoding: 76 76 57
Width: 764
VWidth: 0
Flags: W
HStem: 0 88<265 766> 1638 20G<153 265>
VStem: 153 112<88 1658>
LayerCount: 2
Fore
SplineSet
153 0 m 1
 153 1658 l 1
 265 1658 l 1
 265 88 l 1
 766 88 l 1
 766 0 l 1
 153 0 l 1
EndSplineSet
EndChar

StartChar: Lslash
Encoding: 289 321 62
Width: 764
VWidth: 0
Flags: W
HStem: 0 88<265 766> 1638 20G<153 265>
VStem: 153 112<88 835 986 1658>
LayerCount: 2
Fore
SplineSet
153 0 m 1
 153 835 l 1
 6 759 l 1
 6 850 l 1
 153 926 l 1
 153 1658 l 1
 265 1658 l 1
 265 986 l 1
 514 1115 l 1
 514 1024 l 1
 265 895 l 1
 265 88 l 1
 766 88 l 1
 766 0 l 1
 153 0 l 1
EndSplineSet
EndChar

StartChar: M
Encoding: 77 77 63
Width: 1294
VWidth: 0
Flags: W
HStem: 0 21G<133 230.591 600.187 690.86 1064.41 1162> 1638 20G<181.409 296.706 994.254 1114.58>
VStem: 133 97<0 485.083> 182 89<1172.92 1388> 1024 90<1162.81 1391> 1065 97<0 486.375>
LayerCount: 2
Fore
SplineSet
133 0 m 1xe0
 182 1658 l 1
 292 1658 l 1
 644 162 l 1
 999 1658 l 1
 1114 1658 l 1xd8
 1162 0 l 1
 1065 0 l 1xc4
 1024 1391 l 1
 686 0 l 1
 605 0 l 1
 271 1388 l 1xd8
 230 0 l 1
 133 0 l 1xe0
EndSplineSet
EndChar

StartChar: N
Encoding: 78 78 64
Width: 1055
VWidth: 0
Flags: W
HStem: 0 21G<153 252 806.974 903> 1638 20G<153 250.029 804 903>
VStem: 153 99<0 1403> 804 99<258 1658>
LayerCount: 2
Fore
SplineSet
153 0 m 1
 153 1658 l 1
 242 1658 l 1
 804 258 l 1
 804 1658 l 1
 903 1658 l 1
 903 0 l 1
 815 0 l 1
 252 1403 l 1
 252 0 l 1
 153 0 l 1
EndSplineSet
EndChar

StartChar: O
Encoding: 79 79 69
Width: 1056
VWidth: 0
Flags: W
HStem: -22 92<355.98 699.605> 1586 91<352.383 703.417>
VStem: 118 113<200.796 1452.68> 825 113<200.221 1452.23>
AnchorPoint: "ogonek" 581 0 basechar 0
LayerCount: 2
Fore
SplineSet
528 70 m 0
 766 70 825 222 825 447 c 2
 825 1212 l 2
 825 1437 767 1586 528 1586 c 0
 289 1586 231 1438 231 1212 c 2
 231 447 l 2
 231 222 289 70 528 70 c 0
528 -22 m 0
 204 -22 118 188 118 472 c 2
 118 1196 l 2
 118 1478 213 1677 528 1677 c 0
 842 1677 938 1477 938 1196 c 2
 938 469 l 2
 938 186 851 -22 528 -22 c 0
EndSplineSet
EndChar

StartChar: OE
Encoding: 293 338 70
Width: 1270
VWidth: 0
Flags: W
HStem: 0 92<361.369 693 804 1209> 824 87<804 1140> 1566 92<362.16 693 804 1207>
VStem: 118 112<230.815 1426.73> 693 111<94 824 911 1566>
LayerCount: 2
Fore
SplineSet
546 0 m 2
 213 0 118 200 118 468 c 2
 118 1182 l 2
 118 1463 224 1658 541 1658 c 2
 1207 1658 l 1
 1207 1566 l 1
 804 1566 l 1
 804 911 l 1
 1140 911 l 1
 1140 824 l 1
 804 824 l 1
 804 92 l 1
 1209 92 l 1
 1209 0 l 1
 546 0 l 2
547 94 m 2
 693 94 l 1
 693 1567 l 1
 546 1567 l 2
 288 1567 230 1414 230 1176 c 2
 230 468 l 2
 230 240 294 94 547 94 c 2
EndSplineSet
EndChar

StartChar: Oslash
Encoding: 216 216 78
Width: 1071
VWidth: 0
Flags: W
HStem: -22 92<354.575 696.865> 1586 91<352.383 706.907>
VStem: 118 113<199.238 1452.68> 825 113<200.221 1458.62>
LayerCount: 2
UndoRedoHistory
Layer: 1
Undoes
EndUndoes
Redoes
EndRedoes
EndUndoRedoHistory
Fore
SplineSet
264 -194 m 1
 213 -179 l 1
 277.143119581 43.3480943835 l 1
 156.104602721 126.70409049 118 282.958204539 118 472 c 2
 118 1196 l 2
 118 1478 213 1677 528 1677 c 0
 612.517324755 1677 681.240775072 1662.51020694 736.549425834 1635.85119385 c 1
 794 1835 l 1
 846 1821 l 1
 784.337645696 1607.51263931 l 1
 897.799249909 1525.75924286 938 1377.83931288 938 1196 c 2
 938 469 l 2
 938 186 851 -22 528 -22 c 0
 445.74419934 -22 378.828209538 -8.46487277219 324.764845196 16.3800052741 c 1
 264 -194 l 1
528 70 m 0
 766 70 825 222 825 447 c 2
 825 1212 l 2
 825 1334.639 807.768616088 1434.69894521 753.387956919 1500.35864809 c 1
 352.540933934 112.546360614 l 1
 395.709062959 84.9983361591 452.924601069 70 528 70 c 0
308.063786466 150.532643619 m 1
 709.048131562 1540.51968497 l 1
 665.266333662 1569.98221368 606.362090738 1586 528 1586 c 0
 289 1586 231 1438 231 1212 c 2
 231 447 l 2
 231 320.352766115 249.376143553 216.834126701 308.063786466 150.532643619 c 1
EndSplineSet
EndChar

StartChar: P
Encoding: 80 80 80
Width: 994
VWidth: 0
Flags: W
HStem: 0 21G<153 265> 792 87<265 700.141> 1572 86<265 709.094>
VStem: 153 112<0 792 879 1572> 814 114<1001.25 1466.79>
LayerCount: 2
Fore
SplineSet
153 0 m 1
 153 1658 l 1
 542 1658 l 2
 841 1658 928 1477 928 1230 c 0
 928 1010 840 792 545 792 c 2
 265 792 l 1
 265 0 l 1
 153 0 l 1
265 879 m 1
 520 879 l 2
 720 879 814 972 814 1230 c 0
 814 1497 734 1572 522 1572 c 2
 265 1572 l 1
 265 879 l 1
EndSplineSet
EndChar

StartChar: Pi
Encoding: 297 928 81
Width: 1148
VWidth: 0
Flags: W
HStem: 0 21G<152 261 887 997> 1573 85<261 887>
VStem: 152 109<0 1573> 887 110<0 1573>
LayerCount: 2
Fore
SplineSet
152 0 m 1
 152 1658 l 1
 997 1658 l 1
 997 0 l 1
 887 0 l 1
 887 1573 l 1
 261 1573 l 1
 261 0 l 1
 152 0 l 1
EndSplineSet
EndChar

StartChar: Q
Encoding: 81 81 82
Width: 1072
VWidth: 0
Flags: W
HStem: -319 21G<839.5 881.02> -22 92<362.015 652.539> 1586 91<358.564 711.658>
VStem: 118 113<210.882 1451.13> 839 113<207.143 1450.71>
LayerCount: 2
Fore
SplineSet
879 -319 m 1
 800 -281 695 -158 595 -19 c 1
 576 -21 556 -22 535 -22 c 0
 211 -22 118 188 118 472 c 2
 118 1196 l 2
 118 1478 221 1677 535 1677 c 0
 849 1677 952 1477 952 1196 c 2
 952 469 l 2
 952 236 889 52 682 -3 c 1
 735 -71 836 -185 889 -220 c 1
 879 -319 l 1
535 70 m 0
 773 70 839 222 839 447 c 2
 839 1212 l 2
 839 1437 774 1586 535 1586 c 0
 297 1586 231 1438 231 1212 c 2
 231 447 l 2
 231 222 297 70 535 70 c 0
EndSplineSet
EndChar

StartChar: R
Encoding: 82 82 83
Width: 1041
VWidth: 0
Flags: W
HStem: 0 21G<153 265 825.804 943> 836 85<265 573> 1570 88<265 717.929>
VStem: 153 112<0 836 921 1570> 810 110<1021.38 1472.01>
LayerCount: 2
Fore
SplineSet
153 0 m 1
 153 1658 l 1
 556 1658 l 2
 849 1658 920 1478 920 1250 c 0
 920 1063 876 889 675 857 c 1
 943 0 l 1
 832 0 l 1
 573 836 l 1
 265 836 l 1
 265 0 l 1
 153 0 l 1
265 921 m 1
 550 921 l 2
 762 921 810 1046 810 1250 c 0
 810 1460 757 1570 549 1570 c 2
 265 1570 l 1
 265 921 l 1
EndSplineSet
EndChar

StartChar: S
Encoding: 83 83 87
Width: 926
VWidth: 0
Flags: W
HStem: -21 92<325.52 659.361> 1587 90<287.423 621.413>
VStem: 89 101<231.281 412.409 1191.87 1492.96> 744 94<1257.64 1436.98> 752 105<165.007 509.512>
AnchorPoint: "cedilla" 470 0 basechar 0
LayerCount: 2
Fore
SplineSet
486 -21 m 0xe8
 223 -21 107 147 85 409 c 1
 183 440 l 1
 211 221 271 71 487 71 c 0
 652 71 752 148 752 338 c 0xe8
 752 483 672 585 536 720 c 2
 233 1022 l 2
 131 1124 89 1229 89 1337 c 0
 89 1557 235 1676 452 1677 c 0
 453 1677 454 1677 455 1677 c 0
 680 1677 818 1573 838 1261 c 1
 744 1239 l 1xf0
 724 1468 656 1587 465 1587 c 0
 462 1587 458 1587 455 1587 c 0
 303 1585 190 1514 190 1345 c 0
 190 1261 221 1186 312 1094 c 1
 611 799 l 2
 743 668 857 521 857 344 c 0
 857 95 703 -21 486 -21 c 0xe8
EndSplineSet
EndChar

StartChar: T
Encoding: 84 84 93
Width: 779
VWidth: 0
Flags: W
HStem: 0 21G<337 449> 1569 89<-14 337 449 793>
VStem: 337 112<0 1569>
AnchorPoint: "cedilla" 380 0 basechar 0
LayerCount: 2
Fore
SplineSet
337 0 m 1
 337 1569 l 1
 -14 1569 l 1
 -14 1658 l 1
 793 1658 l 1
 793 1569 l 1
 449 1569 l 1
 449 0 l 1
 337 0 l 1
EndSplineSet
EndChar

StartChar: Tbar
Encoding: 306 358 94
Width: 779
VWidth: 0
Flags: W
HStem: 0 21G<337 449> 854 75<87 337 449 687> 1569 89<-14 337 449 793>
VStem: 337 112<0 854 929 1569>
LayerCount: 2
UndoRedoHistory
Layer: 1
Undoes
EndUndoes
Redoes
EndRedoes
EndUndoRedoHistory
Fore
SplineSet
87 854 m 1
 87 929 l 1
 337 929 l 1
 337 1569 l 1
 -14 1569 l 1
 -14 1658 l 1
 793 1658 l 1
 793 1569 l 1
 449 1569 l 1
 449 929 l 1
 687 929 l 1
 687 854 l 1
 449 854 l 1
 449 0 l 1
 337 0 l 1
 337 854 l 1
 87 854 l 1
EndSplineSet
Colour: ffff00
EndChar

StartChar: Thorn
Encoding: 222 222 97
Width: 1034
VWidth: 0
Flags: W
HStem: 0 21G<153 265> 513 97<265 721.841> 1349 97<265 720.793> 1638 20G<153 265>
VStem: 153 112<0 513 610 1349 1446 1658> 851 115<748.976 1212.25>
LayerCount: 2
Fore
SplineSet
153 0 m 1
 153 1658 l 1
 265 1658 l 1
 265 1446 l 1
 576 1446 l 2
 869 1446 966 1233 966 993 c 0
 966 776 891 513 565 513 c 2
 265 513 l 1
 265 0 l 1
 153 0 l 1
265 610 m 1
 548 610 l 2
 753 610 851 723 851 989 c 0
 851 1250 737 1349 557 1349 c 2
 265 1349 l 1
 265 610 l 1
EndSplineSet
Colour: ffff00
EndChar

StartChar: U
Encoding: 85 85 98
Width: 1092
VWidth: 0
Flags: W
HStem: -22 92<361.382 725.15> 1638 20G<134 243 849 958>
VStem: 134 109<189.986 1658> 849 109<198.805 1658>
AnchorPoint: "ogonek" 581 0 basechar 0
LayerCount: 2
Fore
SplineSet
546 -22 m 0
 222 -22 134 155 134 389 c 2
 134 1658 l 1
 243 1658 l 1
 243 387 l 2
 243 204 307 70 546 70 c 0
 773 70 849 206 849 387 c 2
 849 1658 l 1
 958 1658 l 1
 958 389 l 2
 958 155 856 -22 546 -22 c 0
EndSplineSet
EndChar

StartChar: V
Encoding: 86 86 109
Width: 984
VWidth: 0
Flags: W
HStem: 0 21G<445.175 559.572> 1638 20G<50 163.703 821.584 934>
LayerCount: 2
Fore
SplineSet
450 0 m 1
 50 1658 l 1
 159 1658 l 1
 503 195 l 1
 826 1658 l 1
 934 1658 l 1
 555 0 l 1
 450 0 l 1
EndSplineSet
EndChar

StartChar: W
Encoding: 87 87 110
Width: 1446
VWidth: 0
Flags: W
HStem: 0 21G<354.512 458.813 1010.12 1110.26> 1638 20G<69 171.38 1276.91 1377>
LayerCount: 2
Fore
SplineSet
358 0 m 1
 69 1657 l 1
 168 1658 l 1
 411 220 l 1
 677 1621 l 1
 785 1621 l 1
 1058 219 l 1
 1280 1658 l 1
 1377 1658 l 1
 1107 0 l 1
 1014 0 l 1
 732 1453 l 1
 455 0 l 1
 358 0 l 1
EndSplineSet
EndChar

StartChar: X
Encoding: 88 88 115
Width: 926
VWidth: 0
Flags: W
HStem: 0 21G<30 150.177 778.858 896> 1639 20G<33 144.209 769.045 889>
LayerCount: 2
Fore
SplineSet
30 0 m 1
 396 861 l 1
 33 1659 l 1
 135 1659 l 1
 461 951 l 1
 778 1659 l 1
 889 1659 l 1
 509 843 l 1
 896 0 l 1
 788 0 l 1
 447 746 l 1
 142 0 l 1
 30 0 l 1
EndSplineSet
EndChar

StartChar: Y
Encoding: 89 89 116
AltUni2: 0004ae.ffffffff.0
Width: 946
VWidth: 0
Flags: W
HStem: 0 21G<424 535> 1638 20G<41 162.533 784.769 905>
VStem: 424 111<0 530> 791 114<1614.29 1658>
LayerCount: 2
Fore
SplineSet
424 0 m 1
 424 530 l 1
 41 1658 l 1
 156 1658 l 1
 481 663 l 1
 791 1658 l 1
 905 1658 l 1
 535 530 l 1
 535 0 l 1
 424 0 l 1
EndSplineSet
EndChar

StartChar: Z
Encoding: 90 90 121
Width: 822
VWidth: 0
Flags: W
HStem: 0 88<178 783> 1570 88<117 660>
LayerCount: 2
Fore
SplineSet
64 0 m 1
 64 88 l 1
 660 1570 l 1
 117 1570 l 1
 117 1658 l 1
 780 1658 l 1
 780 1589 l 1
 178 88 l 1
 783 88 l 1
 783 0 l 1
 64 0 l 1
EndSplineSet
EndChar

StartChar: a
Encoding: 97 97 125
Width: 777
VWidth: 0
Flags: W
HStem: -19 90<234.16 458.998> 0 21G<579.707 675> 1120 83<268.455 502.635>
VStem: 78 108<116.878 413.195> 102 106<866 1059.99> 561 109<167.072 627 688.608 1060.48> 582 93<0 155.842>
AnchorPoint: "ogonek" 632 0 basechar 0
LayerCount: 2
Fore
SplineSet
316 -19 m 0xa2
 173 -19 78 87 78 240 c 0xb2
 78 442 157 517 561 706 c 1
 561 791 l 2
 561 1049 518 1120 397 1120 c 0
 303 1120 208 1085 208 897 c 2
 208 864 l 1
 102 866 l 1
 102 870 102 894 103 898 c 0
 109 1119 214 1203 401 1203 c 0
 601 1203 670 1084 670 802 c 2
 670 206 l 2xac
 670 174 672 22 675 0 c 1
 582 0 l 1x62
 582 0 567 134 564 157 c 1
 528 59 435 -19 316 -19 c 0xa2
342 71 m 0
 443 71 518 150 561 237 c 1
 561 627 l 1xb4
 270 476 186 438 186 255 c 0
 186 115 267 71 342 71 c 0
EndSplineSet
EndChar

StartChar: acute
Encoding: 180 180 129
Width: 422
VWidth: 0
Flags: W
HStem: 1261 397
VStem: 87 242
LayerCount: 2
Fore
SplineSet
87 1261 m 1
 219 1658 l 1
 329 1658 l 1
 145 1261 l 1
 87 1261 l 1
EndSplineSet
EndChar

StartChar: acutecomb
Encoding: 326 769 130
Width: 268
VWidth: 0
Flags: W
HStem: 1261 397
VStem: 41 242
LayerCount: 2
Fore
SplineSet
41 1261 m 1
 173 1658 l 1
 283 1658 l 1
 98 1261 l 1
 41 1261 l 1
EndSplineSet
EndChar

StartChar: ae
Encoding: 230 230 132
Width: 1239
VWidth: 0
Flags: W
HStem: -19 86<235.213 457.684 750.261 982.616> 1119 84<270.808 501.96 746.368 985.286>
VStem: 78 107<118.263 414.157> 100 103<891 1050.07> 563 109<201.378 589 687 1004.23> 1043 108<125.652 400 822.149 1063.36>
LayerCount: 2
Fore
SplineSet
316 -19 m 0xdc
 173 -16 78 87 78 240 c 0xec
 78 383 111 502 385 600 c 1
 563 662 l 1
 563 791 l 2
 563 1047 511 1119 395 1119 c 0
 298 1119 203 1072 203 887 c 1
 100 891 l 1
 100 1102 210 1203 398 1203 c 0
 515 1203 600 1137 617 1009 c 1
 650 1156 760 1203 867 1203 c 0
 1046 1203 1141 1086 1141 931 c 0
 1141 810 1053 740 901 692 c 1
 672 614 l 1
 672 457 l 2
 672 173 727 67 864 67 c 0
 948 67 1043 91 1043 318 c 2
 1043 400 l 1
 1151 400 l 1
 1151 321 l 2
 1151 119 1085 -19 864 -19 c 0
 743 -19 628 38 604 220 c 1
 560 39 429 -19 326 -19 c 0
 323 -19 319 -19 316 -19 c 0xdc
342 66 m 0
 447 66 563 149 563 444 c 2
 563 589 l 1
 555 587 421 532 413 530 c 1
 209 447 185 375 185 265 c 0
 185 260 185 255 185 250 c 0
 188 109 271 66 342 66 c 0
672 687 m 1
 882 760 l 1
 1008 802 1041 849 1041 939 c 0
 1041 1028 996 1116 867 1116 c 0
 736 1116 672 1045 672 786 c 2
 672 687 l 1
EndSplineSet
Colour: ffff00
EndChar

StartChar: afii10018
Encoding: 328 1041 134
Width: 962
VWidth: 0
Flags: W
HStem: 0 91<264 642.295> 868 91<264 633.857> 1573 85<264 790>
VStem: 152 112<91 868 959 1573> 777 113<237.109 715.179>
LayerCount: 2
Fore
SplineSet
152 0 m 1
 152 1658 l 1
 790 1658 l 1
 790 1573 l 1
 264 1573 l 1
 264 959 l 1
 446 959 l 2
 752 959 890 795 890 470 c 0
 890 194 772 0 450 0 c 2
 152 0 l 1
264 91 m 1
 453 91 l 2
 695 91 777 225 777 472 c 0
 777 719 696 868 452 868 c 2
 264 868 l 1
 264 91 l 1
EndSplineSet
EndChar

StartChar: afii10019
Encoding: 329 1042 135
Width: 1000
VWidth: 0
Flags: W
HStem: 0 88<265 697.602> 843 88<265 684.054> 1569 89<265 662.054>
VStem: 153 112<88 843 931 1569> 775 104<1028.88 1459.75> 806 109<206.974 716.129>
LayerCount: 2
Fore
SplineSet
153 0 m 1xf4
 153 1658 l 1
 495 1658 l 2
 800 1658 879 1475 879 1245 c 0xf8
 879 1112 845 934 684 894 c 1
 877 837 915 630 915 483 c 0
 915 233 864 0 545 0 c 2
 153 0 l 1xf4
265 88 m 1
 531 88 l 2
 750 88 806 213 806 482 c 0xf4
 806 679 745 843 546 843 c 2
 265 843 l 1
 265 88 l 1
265 931 m 1
 544 931 l 2
 728 931 775 1074 775 1245 c 0xf8
 775 1430 729 1569 470 1569 c 2
 265 1569 l 1
 265 931 l 1
EndSplineSet
EndChar

StartChar: afii10020
Encoding: 330 1043 136
Width: 755
VWidth: 0
Flags: W
HStem: 0 21G<153 265> 1569 89<265 716>
VStem: 153 112<0 1569>
LayerCount: 2
Fore
SplineSet
153 0 m 1
 153 1658 l 1
 716 1658 l 1
 716 1569 l 1
 265 1569 l 1
 265 0 l 1
 153 0 l 1
EndSplineSet
EndChar

StartChar: afii10021
Encoding: 331 1044 137
Width: 1156
VWidth: 0
Flags: W
HStem: 0 87<120 137.026 203 862 974 994> 1572 86<494 862>
VStem: 18 90<-275 0> 862 112<87 1572> 1006 90<-275 0>
LayerCount: 2
Fore
SplineSet
18 -275 m 1
 18 87 l 1
 77 87 l 1
 216 174 281 204 348 1094 c 2
 391 1658 l 1
 974 1658 l 1
 974 87 l 1
 1096 87 l 1
 1096 -275 l 1
 1006 -275 l 1
 994 0 l 1
 120 0 l 1
 108 -275 l 1
 18 -275 l 1
203 87 m 1
 862 87 l 1
 862 1572 l 1
 494 1572 l 1
 454 1073 l 1
 386 189 316 162 203 87 c 1
EndSplineSet
EndChar

StartChar: afii10024
Encoding: 334 1046 140
Width: 1258
VWidth: 0
Flags: W
HStem: 0 21G<43 163.526 578 680 1094.45 1214> 844 29<563 578 680 695> 1638 20G<82 199.503 578 680 1058.5 1175>
VStem: 578 102<0 844 873 1658>
LayerCount: 2
Fore
SplineSet
43 0 m 1
 470 866 l 1
 82 1658 l 1
 190 1658 l 1
 563 873 l 1
 578 873 l 1
 578 1658 l 1
 680 1658 l 1
 680 873 l 1
 695 873 l 1
 1068 1658 l 1
 1175 1658 l 1
 788 866 l 1
 1214 0 l 1
 1104 0 l 1
 701 844 l 1
 680 844 l 1
 680 0 l 1
 578 0 l 1
 578 844 l 1
 556 844 l 1
 154 0 l 1
 43 0 l 1
EndSplineSet
EndChar

StartChar: afii10025
Encoding: 335 1047 141
Width: 942
VWidth: 0
Flags: W
HStem: -22 88<334.879 642.467> 821 83<367 618.501> 1590 87<331.792 649.185>
VStem: 126 103<190.808 399 1264 1482.89> 759 112<196.766 670.499 1031.17 1475.85>
LayerCount: 2
Fore
SplineSet
487 -22 m 0
 236 -22 139 134 139 368 c 2
 139 399 l 1
 241 399 l 1
 241 394 242 366 242 361 c 0
 243 171 316 66 487 66 c 0
 640 66 759 145 759 440 c 0
 759 660 682 816 471 821 c 0
 467 821 372 821 367 821 c 1
 367 904 l 1
 372 904 466 904 470 904 c 0
 681 907 759 1025 759 1270 c 0
 759 1456 691 1590 503 1590 c 0
 327 1590 232 1511 229 1294 c 0
 229 1289 229 1269 229 1264 c 1
 126 1264 l 1
 126 1291 l 2
 126 1522 224 1677 500 1677 c 0
 754 1677 871 1500 871 1268 c 0
 871 1017 764 889 630 862 c 1
 735 837 871 729 871 443 c 0
 871 169 763 -22 487 -22 c 0
EndSplineSet
EndChar

StartChar: afii10026
Encoding: 336 1048 142
Width: 1064
VWidth: 0
Flags: W
HStem: 0 21G<152 254.011 812 912> 1638 20G<152 252 811.96 912>
VStem: 152 100<245 1658> 812 100<0 1413>
LayerCount: 2
Fore
SplineSet
152 0 m 1
 152 1658 l 1
 252 1658 l 1
 252 245 l 1
 820 1658 l 1
 912 1658 l 1
 912 0 l 1
 812 0 l 1
 812 1413 l 1
 246 0 l 1
 152 0 l 1
EndSplineSet
EndChar

StartChar: afii10028
Encoding: 338 1050 144
Width: 960
VWidth: 0
Flags: W
HStem: 0 21G<152 264 819.497 943> 815 66<264 402> 1638 20G<152 264 755.656 880>
VStem: 152 112<0 815 881 1658>
LayerCount: 2
Fore
SplineSet
152 0 m 1
 152 1658 l 1
 264 1658 l 1
 264 881 l 1
 402 881 l 1
 765 1658 l 1
 880 1658 l 1
 500 854 l 1
 943 0 l 1
 830 0 l 1
 402 815 l 1
 264 815 l 1
 264 0 l 1
 152 0 l 1
EndSplineSet
EndChar

StartChar: afii10029
Encoding: 339 1051 145
Width: 1141
VWidth: 0
Flags: W
HStem: -5 89<51 202.526> 1572 86<500 877>
VStem: 877 112<0 1572>
LayerCount: 2
Fore
SplineSet
51 -5 m 1
 51 84 l 1
 271 97 274 107 350 1041 c 1
 396 1658 l 1
 989 1658 l 1
 989 0 l 1
 877 0 l 1
 877 1572 l 1
 500 1572 l 1
 459 1040 l 1
 380 107 381 3 51 -5 c 1
EndSplineSet
EndChar

StartChar: afii10030
Encoding: 340 1052 146
Width: 1294
VWidth: 0
Flags: W
HStem: 0 21G<133 229.573 600.051 690.993 1065.43 1162> 1638 20G<181.409 290.851 999.122 1114.58>
VStem: 133 96<0 485.083> 182 86<1172.92 1362> 1027 87<1162.81 1366> 1066 96<0 495.189>
LayerCount: 2
Fore
SplineSet
133 0 m 1xe0
 182 1658 l 1
 286 1658 l 1
 644 182 l 1
 1004 1658 l 1
 1114 1658 l 1xd8
 1162 0 l 1
 1066 0 l 1xc4
 1027 1366 l 1
 686 0 l 1
 605 0 l 1
 268 1362 l 1xd8
 229 0 l 1
 133 0 l 1xe0
EndSplineSet
EndChar

StartChar: afii10033
Encoding: 343 1055 149
Width: 1116
VWidth: 0
Flags: W
HStem: 0 21G<153 265 851 963> 1573 85<265 851>
VStem: 153 112<0 1573> 851 112<0 1573>
LayerCount: 2
Fore
SplineSet
153 0 m 1
 153 1658 l 1
 963 1658 l 1
 963 0 l 1
 851 0 l 1
 851 1573 l 1
 265 1573 l 1
 265 0 l 1
 153 0 l 1
EndSplineSet
EndChar

StartChar: afii10034
Encoding: 344 1056 150
Width: 977
VWidth: 0
Flags: W
HStem: 0 21G<153 265> 792 87<265 700.141> 1572 86<265 709.094>
VStem: 153 112<0 792 879 1572> 814 114<1001.25 1466.79>
LayerCount: 2
Fore
SplineSet
153 0 m 1
 153 1658 l 1
 542 1658 l 2
 841 1658 928 1477 928 1230 c 0
 928 1010 840 792 545 792 c 2
 265 792 l 1
 265 0 l 1
 153 0 l 1
265 879 m 1
 520 879 l 2
 720 879 814 972 814 1230 c 0
 814 1497 734 1572 522 1572 c 2
 265 1572 l 1
 265 879 l 1
EndSplineSet
EndChar

StartChar: afii10037
Encoding: 347 1059 153
Width: 926
VWidth: 0
Flags: W
HStem: -190 88<127 352.989> 1638 20G<68 182.935 766.643 883>
VStem: 771 112<1595.27 1658>
LayerCount: 2
Fore
SplineSet
125 -190 m 1
 127 -102 l 1
 137 -102 147 -102 156 -102 c 0
 396 -102 411 -37 438 223 c 1
 68 1658 l 1
 178 1658 l 1
 367 892 l 1
 493 354 l 1
 605 896 l 1
 771 1658 l 1
 883 1658 l 1
 553 214 l 1
 487 -99 473 -190 162 -190 c 0
 150 -190 138 -190 125 -190 c 1
EndSplineSet
EndChar

StartChar: afii10038
Encoding: 348 1060 154
Width: 1215
VWidth: 0
Flags: W
HStem: 180 76<321.885 549 661 893.367> 1440 75<335.56 549 661 877.333>
VStem: 118 107<356.801 1325.6> 549 112<-114 184 256.997 1438.8 1513 1808> 991 106<358.133 1326.15>
LayerCount: 2
Fore
SplineSet
549 -114 m 1
 549 184 l 1
 521 182 468 180 450 180 c 0
 445 180 441 180 436 180 c 0
 225 180 118 314 118 595 c 2
 118 1079 l 2
 118 1366 233 1515 460 1515 c 0
 463 1515 466 1515 469 1515 c 0
 481 1515 527 1514 549 1512 c 1
 549 1808 l 1
 661 1808 l 1
 661 1513 l 1
 687 1515 740 1517 756 1517 c 0
 759 1517 762 1517 765 1517 c 0
 985 1517 1097 1366 1097 1079 c 2
 1097 595 l 2
 1097 317 990 180 780 180 c 0
 775 180 769 180 764 180 c 0
 746 180 689 182 661 185 c 1
 661 -114 l 1
 549 -114 l 1
467 256 m 0
 483 256 522 257 549 260 c 1
 549 1436 l 1
 525 1439 489 1440 475 1440 c 0
 473 1440 471 1440 469 1440 c 0
 287 1440 225 1310 225 1079 c 2
 225 595 l 2
 225 368 284 256 458 256 c 0
 461 256 464 256 467 256 c 0
748 256 m 0
 751 256 754 256 757 256 c 0
 931 256 991 368 991 595 c 2
 991 1079 l 2
 991 1310 928 1440 746 1440 c 0
 744 1440 742 1440 740 1440 c 0
 726 1440 686 1438 661 1436 c 1
 661 260 l 1
 688 257 732 256 748 256 c 0
EndSplineSet
EndChar

StartChar: afii10040
Encoding: 350 1062 156
Width: 1137
VWidth: 0
Flags: W
HStem: 0 85<264 854 966 978> 1638 20G<152 264 854 966>
VStem: 152 112<85 1658> 854 112<85 1658> 991 90<-275 0>
LayerCount: 2
Fore
SplineSet
991 -275 m 1
 978 0 l 1
 152 0 l 1
 152 1658 l 1
 264 1658 l 1
 264 85 l 1
 854 85 l 1
 854 1658 l 1
 966 1658 l 1
 966 85 l 1
 1081 85 l 1
 1081 -275 l 1
 991 -275 l 1
EndSplineSet
EndChar

StartChar: afii10041
Encoding: 351 1063 157
Width: 1034
VWidth: 0
Flags: W
HStem: 0 21G<769 881> 734 82<335.5 765.502> 1638 20G<113 219 769 881>
VStem: 113 106<925.953 1658> 769 112<0 770 840.052 1658>
LayerCount: 2
Fore
SplineSet
769 0 m 1
 769 770 l 1
 681 746 599 734 525 734 c 0
 273 734 113 832 113 1091 c 2
 113 1658 l 1
 219 1658 l 1
 219 1092 l 2
 219 867 361 816 541 816 c 0
 626 816 708 832 769 853 c 1
 769 1658 l 1
 881 1658 l 1
 881 0 l 1
 769 0 l 1
EndSplineSet
EndChar

StartChar: afii10042
Encoding: 352 1064 158
Width: 1437
VWidth: 0
Flags: W
HStem: 0 85<265 670 782 1172> 1638 20G<153 265 670 782 1172 1284>
VStem: 153 112<85 1658> 670 112<85 1658> 1172 112<85 1658>
LayerCount: 2
Fore
SplineSet
153 0 m 1
 153 1658 l 1
 265 1658 l 1
 265 85 l 1
 670 85 l 1
 670 1658 l 1
 782 1658 l 1
 782 85 l 1
 1172 85 l 1
 1172 1658 l 1
 1284 1658 l 1
 1284 0 l 1
 153 0 l 1
EndSplineSet
EndChar

StartChar: afii10043
Encoding: 353 1065 159
Width: 1458
VWidth: 0
Flags: W
HStem: 0 85<264 669 781 1173 1285 1299> 1638 20G<152 264 669 781 1173 1285>
VStem: 152 112<85 1658> 669 112<85 1658> 1173 112<85 1658> 1312 90<-275 0>
LayerCount: 2
Fore
SplineSet
1312 -275 m 1
 1299 0 l 1
 152 0 l 1
 152 1658 l 1
 264 1658 l 1
 264 85 l 1
 669 85 l 1
 669 1658 l 1
 781 1658 l 1
 781 85 l 1
 1173 85 l 1
 1173 1658 l 1
 1285 1658 l 1
 1285 85 l 1
 1402 85 l 1
 1402 -275 l 1
 1312 -275 l 1
EndSplineSet
EndChar

StartChar: afii10044
Encoding: 354 1066 160
Width: 1109
VWidth: 0
Flags: W
HStem: 0 91<430 811.739> 868 91<430 802.857> 1570 88<13 317>
VStem: 317 113<91 868 959 1570> 946 113<237.109 715.179>
LayerCount: 2
Fore
SplineSet
317 0 m 1
 317 1570 l 1
 13 1570 l 1
 13 1658 l 1
 430 1658 l 1
 430 959 l 1
 615 959 l 2
 921 959 1059 795 1059 470 c 0
 1059 194 941 0 619 0 c 2
 317 0 l 1
430 91 m 1
 622 91 l 2
 865 91 946 225 946 472 c 0
 946 719 865 868 621 868 c 2
 430 868 l 1
 430 91 l 1
EndSplineSet
EndChar

StartChar: afii10045
Encoding: 355 1067 161
Width: 1371
VWidth: 0
Flags: W
HStem: 0 91<264 646.295> 868 91<264 637.445> 1638 20G<152 264 1107 1219>
VStem: 152 112<91 868 959 1658> 781 113<237.109 715.179> 1107 112<0 1658>
LayerCount: 2
Fore
SplineSet
152 0 m 1
 152 1658 l 1
 264 1658 l 1
 264 959 l 1
 450 959 l 2
 755 959 894 795 894 470 c 0
 894 194 776 0 454 0 c 2
 152 0 l 1
264 91 m 1
 457 91 l 2
 699 91 781 225 781 472 c 0
 781 719 699 868 456 868 c 2
 264 868 l 1
 264 91 l 1
1107 0 m 1
 1107 1658 l 1
 1219 1658 l 1
 1219 0 l 1
 1107 0 l 1
EndSplineSet
EndChar

StartChar: afii10046
Encoding: 356 1068 162
Width: 945
VWidth: 0
Flags: W
HStem: 0 91<265 647.295> 868 91<265 638.306> 1638 20G<153 265>
VStem: 153 112<91 868 959 1658> 782 112<237.109 715.179>
LayerCount: 2
Fore
SplineSet
153 0 m 1
 153 1658 l 1
 265 1658 l 1
 265 959 l 1
 451 959 l 2
 756 959 894 795 894 470 c 0
 894 194 776 0 455 0 c 2
 153 0 l 1
265 91 m 1
 458 91 l 2
 700 91 782 225 782 472 c 0
 782 719 700 868 456 868 c 2
 265 868 l 1
 265 91 l 1
EndSplineSet
EndChar

StartChar: afii10047
Encoding: 357 1069 163
Width: 1020
VWidth: 0
Flags: W
HStem: -16 91<333.615 667.595> 816 80<397 789> 1591 92<338.416 666.899>
VStem: 119 106<198.148 521 1131 1465.4> 789 112<207.585 816 896 1453.32>
LayerCount: 2
Fore
SplineSet
497 -16 m 0
 209 -16 119 169 119 451 c 2
 119 521 l 1
 225 521 l 1
 225 450 l 2
 225 215 280 75 497 75 c 0
 738 75 789 234 789 467 c 2
 789 816 l 1
 397 816 l 1
 397 896 l 1
 789 896 l 1
 789 1201 l 2
 789 1446 727 1591 497 1591 c 0
 276 1591 225 1442 225 1215 c 2
 225 1131 l 1
 119 1131 l 1
 119 1197 l 2
 119 1480 198 1683 497 1683 c 0
 825 1683 901 1461 901 1183 c 2
 901 481 l 2
 901 194 816 -16 497 -16 c 0
EndSplineSet
EndChar

StartChar: afii10048
Encoding: 358 1070 164
Width: 1368
VWidth: 0
Flags: W
HStem: -22 92<666.895 1019.88> 0 21G<153 261> 791 91<261 436> 1586 91<668.653 1017.15> 1638 20G<153 261>
VStem: 153 108<0 791 882 1658> 436 105<211.608 791 882 1451.13> 1145 105<209.872 1449.33>
LayerCount: 2
Fore
SplineSet
843 -22 m 0xb7
 524 -22 436 189 436 473 c 2
 436 791 l 1
 261 791 l 1
 261 0 l 1
 153 0 l 1
 153 1658 l 1
 261 1658 l 1x6f
 261 882 l 1
 436 882 l 1
 436 1193 l 2
 436 1478 533 1677 843 1677 c 0
 1152 1677 1250 1473 1250 1192 c 2
 1250 470 l 2
 1250 187 1161 -22 843 -22 c 0xb7
846 70 m 0xb7
 1081 70 1145 222 1145 447 c 2
 1145 1212 l 2
 1145 1437 1079 1586 843 1586 c 0
 607 1586 541 1438 541 1212 c 2
 541 447 l 2
 541 222 605 70 846 70 c 0xb7
EndSplineSet
EndChar

StartChar: afii10049
Encoding: 359 1071 165
Width: 1079
VWidth: 0
Flags: W
HStem: 0 21G<48 180.379 814 927> 722 87<478.086 814> 1571 87<385.489 814>
VStem: 141 110<962.615 1432.05> 814 113<0 722 809 1571>
LayerCount: 2
Fore
SplineSet
48 0 m 1
 377 755 l 1
 210 817 141 996 141 1215 c 0
 141 1450 237 1658 566 1658 c 2
 927 1658 l 1
 927 0 l 1
 814 0 l 1
 814 722 l 1
 559 722 l 2
 534 722 500 725 477 728 c 1
 172 0 l 1
 48 0 l 1
573 809 m 2
 814 809 l 1
 814 1571 l 1
 569 1571 l 2
 366 1571 251 1471 251 1214 c 0
 251 946 339 809 573 809 c 2
EndSplineSet
EndChar

StartChar: afii10051
Encoding: 360 1026 166
Width: 992
VWidth: 0
Flags: W
HStem: 0 86<506 687.484> 895 84<420.076 709.024> 1569 89<-54 250 360 680>
VStem: 250 110<0 848.423 895 1569> 789 109<186.185 815.469>
LayerCount: 2
Fore
SplineSet
506 0 m 1
 506 86 l 1
 722 86 789 189 789 379 c 2
 789 669 l 2
 789 820 695 895 575 895 c 0
 502 895 423 868 360 820 c 1
 360 0 l 1
 250 0 l 1
 250 1569 l 1
 -54 1569 l 1
 -54 1658 l 1
 680 1658 l 1
 680 1569 l 1
 360 1569 l 1
 360 895 l 1
 409 945 500 979 593 979 c 0
 742 979 898 893 898 666 c 2
 898 377 l 2
 898 115 772 0 525 0 c 2
 506 0 l 1
EndSplineSet
EndChar

StartChar: afii10053
Encoding: 362 1028 168
Width: 988
VWidth: 0
Flags: W
HStem: -22 92<352.826 686.363> 834 84<231 658> 1586 91<352.351 686.385>
VStem: 118 113<207.683 834 918 1453.68> 795 106<195.596 530 1146 1462.85>
LayerCount: 2
Fore
SplineSet
523 -22 m 0
 195 -22 118 200 118 478 c 2
 118 1181 l 2
 118 1467 204 1677 523 1677 c 0
 811 1677 901 1492 901 1210 c 2
 901 1146 l 1
 795 1146 l 1
 795 1211 l 2
 795 1446 740 1586 523 1586 c 0
 282 1586 231 1427 231 1194 c 2
 231 918 l 1
 658 918 l 1
 658 834 l 1
 231 834 l 1
 231 460 l 2
 231 215 292 70 523 70 c 0
 744 70 795 219 795 446 c 2
 795 530 l 1
 901 530 l 1
 901 464 l 2
 901 181 821 -22 523 -22 c 0
EndSplineSet
EndChar

StartChar: afii10055
Encoding: 364 1030 170
Width: 422
VWidth: 0
Flags: W
HStem: 0 21G<156 267> 1638 20G<156 267>
VStem: 156 111<0 1658>
LayerCount: 2
Fore
SplineSet
156 0 m 1
 156 1658 l 1
 267 1658 l 1
 267 0 l 1
 156 0 l 1
EndSplineSet
EndChar

StartChar: afii10057
Encoding: 366 1032 172
Width: 543
VWidth: 0
Flags: W
HStem: -92 87<16 223.895> 1638 20G<278 390>
VStem: 278 112<48.3773 1658>
LayerCount: 2
Fore
SplineSet
16 -92 m 1
 16 -5 l 1
 260 -4 278 43 278 308 c 2
 278 1658 l 1
 390 1658 l 1
 390 294 l 1
 389 29 353 -92 74 -92 c 2
 16 -92 l 1
EndSplineSet
EndChar

StartChar: afii10058
Encoding: 367 1033 173
Width: 1658
VWidth: 0
Flags: W
HStem: -6 90<44 197.455 982 1340.27> 868 91<982 1345.44> 1572 86<492 869>
VStem: 869 113<91 868 959 1572> 1489 113<237.109 715.179>
LayerCount: 2
Fore
SplineSet
44 -5 m 1
 44 84 l 1
 47 84 51 84 54 84 c 0
 263 84 276 210 316 713 c 1
 388 1658 l 1
 982 1658 l 1
 982 959 l 1
 1158 959 l 2
 1463 959 1602 795 1602 470 c 0
 1602 194 1483 0 1162 0 c 2
 869 0 l 1
 869 1572 l 1
 492 1572 l 1
 423 713 l 2
 380 188 353 -6 75 -6 c 0
 73 -6 71 -6 69 -6 c 2
 44 -5 l 1
982 91 m 1
 1165 91 l 2
 1407 91 1489 225 1489 472 c 0
 1489 719 1407 868 1164 868 c 2
 982 868 l 1
 982 91 l 1
EndSplineSet
EndChar

StartChar: afii10059
Encoding: 368 1034 174
Width: 1533
VWidth: 0
Flags: W
HStem: 1 90<863 1235.29> 868 85<265 751 863 1226.31> 1639 20G<153 265 751 863>
VStem: 153 112<1 868 953 1659> 751 112<91 868 959 1659> 1370 112<237.109 715.179>
LayerCount: 2
Fore
SplineSet
1043 0 m 1
 751 1 l 1
 751 868 l 1
 265 868 l 1
 265 1 l 1
 153 1 l 1
 153 1659 l 1
 265 1659 l 1
 265 953 l 1
 751 953 l 1
 751 1659 l 1
 863 1659 l 1
 863 959 l 1
 1039 959 l 2
 1344 959 1482 795 1482 470 c 0
 1482 194 1364 0 1043 0 c 1
863 91 m 1
 1046 91 l 2
 1288 91 1370 225 1370 472 c 0
 1370 719 1288 868 1044 868 c 2
 863 868 l 1
 863 91 l 1
EndSplineSet
EndChar

StartChar: afii10060
Encoding: 369 1035 175
Width: 898
VWidth: 0
Flags: W
HStem: 0 21G<217 328 680 789> 910 70<409.216 641.05> 1569 89<-115 217 328 665>
VStem: 217 111<0 852.224 893 1569> 680 109<0 880.296>
LayerCount: 2
Fore
SplineSet
217 0 m 1
 217 1569 l 1
 -115 1569 l 1
 -115 1658 l 1
 665 1658 l 1
 665 1569 l 1
 328 1569 l 1
 328 893 l 1
 371 933 456 980 566 980 c 0
 671 980 789 931 789 769 c 2
 789 0 l 1
 680 0 l 1
 680 759 l 2
 680 878 618 910 542 910 c 0
 456 910 385 870 328 818 c 1
 328 0 l 1
 217 0 l 1
EndSplineSet
EndChar

StartChar: afii10066
Encoding: 373 1073 179
Width: 899
VWidth: 0
Flags: W
HStem: -19 82<338.938 603.23> 1032 79<351.153 615.72>
VStem: 125 109<172.53 953.837 1002 1425.28> 692 109<159.688 952.875>
LayerCount: 2
Fore
SplineSet
461 -19 m 0
 458 -19 455 -19 452 -19 c 0
 288 -19 125 95 125 363 c 2
 125 1113 l 2
 125 1719 348 1549 698 1696 c 1
 714 1597 l 1
 398 1472 234 1625 234 1155 c 2
 234 1002 l 1
 282 1053 413 1110 516 1111 c 1
 705 1111 801 991 801 643 c 2
 801 446 l 2
 801 81 673 -14 461 -19 c 0
467 63 m 0
 615 67 692 138 692 424 c 2
 692 663 l 2
 692 944 641 1032 500 1032 c 0
 413 1032 283 969 234 921 c 1
 234 361 l 2
 234 148 341 63 461 63 c 0
 463 63 465 63 467 63 c 0
EndSplineSet
EndChar

StartChar: afii10067
Encoding: 374 1074 180
Width: 768
VWidth: 0
Flags: W
HStem: 0 84<223 514.571> 589 82<223 502.119> 1096 88<223 503.328>
VStem: 116 107<84 589 671 1096> 568 101<733.376 1033.57> 588 107<152.326 526.057>
LayerCount: 2
Fore
SplineSet
116 0 m 1xf4
 116 1184 l 1
 377 1184 l 2
 603 1184 669 1043 669 894 c 0xf8
 669 796 632 683 522 640 c 1
 652 599 695 475 695 343 c 0
 695 139 641 0 396 0 c 2
 116 0 l 1xf4
223 84 m 1
 385 84 l 2
 546 84 588 192 588 346 c 0xf4
 588 533 509 589 395 589 c 2
 223 589 l 1
 223 84 l 1
223 671 m 1
 399 671 l 2
 497 671 568 754 568 890 c 0xf8
 568 1017 504 1096 371 1096 c 2
 223 1096 l 1
 223 671 l 1
EndSplineSet
EndChar

StartChar: afii10068
Encoding: 375 1075 181
Width: 571
VWidth: 0
Flags: W
HStem: 0 21G<116 225> 1098 86<225 529>
VStem: 116 109<0 1098>
LayerCount: 2
Fore
SplineSet
116 0 m 1
 116 1184 l 1
 529 1184 l 1
 529 1098 l 1
 225 1098 l 1
 225 0 l 1
 116 0 l 1
EndSplineSet
EndChar

StartChar: afii10069
Encoding: 376 1076 182
Width: 932
VWidth: 0
Flags: W
HStem: 0 79<151 643 750 759> 1101 83<371 643>
VStem: 29 85<-275 0> 643 107<79 1101> 768 87<-275 0>
LayerCount: 2
Fore
SplineSet
29 -275 m 1
 29 76 l 1
 159 147 219 301 253 833 c 1
 281 1184 l 1
 750 1184 l 1
 750 79 l 1
 855 79 l 1
 855 -275 l 1
 768 -275 l 1
 759 0 l 1
 124 0 l 1
 114 -275 l 1
 29 -275 l 1
151 79 m 1
 643 79 l 1
 643 1101 l 1
 371 1101 l 1
 344 813 l 1
 313 326 278 162 151 79 c 1
EndSplineSet
EndChar

StartChar: afii10072
Encoding: 379 1078 185
Width: 1037
VWidth: 0
Flags: W
HStem: 0 21G<8 123.559 474 566 914.475 1029> 590 27<454 474 566 585> 1164 20G<25 140.464 474 566 896.607 1011>
VStem: 474 92<0 590 617 1184>
LayerCount: 2
Fore
SplineSet
8 0 m 1
 364 607 l 1
 25 1184 l 1
 129 1184 l 1
 454 617 l 1
 474 617 l 1
 474 1184 l 1
 566 1184 l 1
 566 617 l 1
 585 617 l 1
 908 1184 l 1
 1011 1184 l 1
 673 607 l 1
 1029 0 l 1
 926 0 l 1
 586 590 l 1
 566 590 l 1
 566 0 l 1
 474 0 l 1
 474 590 l 1
 453 590 l 1
 112 0 l 1
 8 0 l 1
EndSplineSet
EndChar

StartChar: afii10073
Encoding: 380 1079 186
Width: 734
VWidth: 0
Flags: W
HStem: -20 80<258.198 486.058> 574 84<304 455.786> 1121 82<249.016 481.734>
VStem: 84 100<127.75 314 892 1057.19> 558 101<133.975 484.625 736.647 1044.24>
LayerCount: 2
Fore
SplineSet
367 -20 m 0
 182 -18 84 99 84 314 c 1
 184 314 l 1
 184 154 238 62 368 60 c 0
 369 60 369 60 370 60 c 0
 494 60 558 150 558 308 c 0
 558 314 558 320 558 326 c 0
 555 476 487 574 304 574 c 1
 304 658 l 1
 495 658 548 742 555 872 c 0
 555 879 556 885 556 892 c 0
 556 1016 494 1121 372 1121 c 0
 253 1121 179 1045 179 892 c 1
 80 892 l 1
 80 1102 190 1203 374 1203 c 0
 569 1203 656 1058 656 892 c 0
 656 887 655 883 655 878 c 0
 652 721 564 637 454 618 c 1
 565 584 656 508 659 317 c 0
 659 313 659 310 659 306 c 0
 659 104 553 -20 371 -20 c 0
 370 -20 368 -20 367 -20 c 0
EndSplineSet
EndChar

StartChar: afii10074
Encoding: 381 1080 187
Width: 834
VWidth: 0
Flags: W
HStem: 0 21G<116 216.571 625 719> 1164 20G<116 210 628 719>
VStem: 116 94<202 1184> 625 94<0 973>
LayerCount: 2
Fore
SplineSet
116 0 m 1
 116 1184 l 1
 210 1184 l 1
 210 202 l 1
 628 1183 l 1
 719 1184 l 1
 719 0 l 1
 625 0 l 1
 625 973 l 1
 208 0 l 1
 116 0 l 1
EndSplineSet
EndChar

StartChar: afii10076
Encoding: 383 1082 189
Width: 762
VWidth: 0
Flags: W
HStem: 0 21G<116 225 621.343 746> 578 72<225 324> 1164 20G<116 225 608.914 734>
VStem: 116 109<0 578 650 1184>
LayerCount: 2
Fore
SplineSet
116 0 m 1
 116 1184 l 1
 225 1184 l 1
 225 650 l 1
 324 650 l 1
 620 1184 l 1
 734 1184 l 1
 422 613 l 1
 746 0 l 1
 632 0 l 1
 324 578 l 1
 225 578 l 1
 225 0 l 1
 116 0 l 1
EndSplineSet
EndChar

StartChar: afii10077
Encoding: 384 1083 190
Width: 906
VWidth: 0
Flags: W
HStem: -10 83<15 133.979> 1099 85<394 681>
VStem: 681 109<0 1099>
LayerCount: 2
Fore
SplineSet
15 -10 m 1
 15 73 l 1
 168 77 216 160 255 645 c 2
 298 1184 l 1
 790 1184 l 1
 790 0 l 1
 681 0 l 1
 681 1099 l 1
 394 1099 l 1
 356 645 l 1
 314 123 254 -10 34 -10 c 2
 15 -10 l 1
EndSplineSet
EndChar

StartChar: afii10078
Encoding: 385 1084 191
Width: 973
VWidth: 0
Flags: W
HStem: 0 21G<107 202.088 771.89 867> 1164 20G<116.831 206.605 763.441 858.152>
VStem: 107 95<0 904> 772 95<0 907 1140.59 1184>
LayerCount: 2
Fore
SplineSet
107 0 m 1
 117 1184 l 1
 200 1184 l 1
 486 318 l 1
 770 1184 l 1
 858 1184 l 1
 867 0 l 1
 772 0 l 1
 767 907 l 1
 503 125 l 1
 468 125 l 1
 206 904 l 1
 202 0 l 1
 107 0 l 1
EndSplineSet
EndChar

StartChar: afii10079
Encoding: 386 1085 192
Width: 873
VWidth: 0
Flags: W
HStem: 0 21G<116 225 648 757> 574 83<225 648> 1164 20G<116 225 648 757>
VStem: 116 109<0 574 657 1184> 648 109<0 574 657 1184>
LayerCount: 2
Fore
SplineSet
116 0 m 1
 116 1184 l 1
 225 1184 l 1
 225 657 l 1
 648 657 l 1
 648 1184 l 1
 757 1184 l 1
 757 0 l 1
 648 0 l 1
 648 574 l 1
 225 574 l 1
 225 0 l 1
 116 0 l 1
EndSplineSet
EndChar

StartChar: afii10081
Encoding: 388 1087 194
Width: 832
VWidth: 0
Flags: W
HStem: 0 21G<116 225 608 716> 1097 87<225 608>
VStem: 116 109<0 1097> 608 108<0 1097>
LayerCount: 2
Fore
SplineSet
116 0 m 1
 116 1184 l 1
 716 1184 l 1
 716 0 l 1
 608 0 l 1
 608 1097 l 1
 225 1097 l 1
 225 0 l 1
 116 0 l 1
EndSplineSet
EndChar

StartChar: afii10084
Encoding: 391 1090 197
Width: 672
VWidth: 0
Flags: W
HStem: 0 21G<286 394> 1100 84<9 286 394 663>
VStem: 286 108<0 1100>
LayerCount: 2
Fore
SplineSet
286 0 m 1
 286 1100 l 1
 9 1100 l 1
 9 1184 l 1
 663 1184 l 1
 663 1100 l 1
 394 1100 l 1
 394 0 l 1
 286 0 l 1
EndSplineSet
EndChar

StartChar: afii10085
Encoding: 392 1091 198
Width: 764
VWidth: 0
Flags: W
HStem: -299 92<79 264.011> 1164 20G<60 170.409 607.886 718>
VStem: 612 106<1120.74 1184>
LayerCount: 2
Fore
SplineSet
79 -299 m 1
 79 -207 l 1
 276 -205 336 -128 336 -20 c 0
 336 13 330 50 321 88 c 2
 60 1184 l 1
 166 1184 l 1
 304 558 l 1
 397 128 l 1
 482 552 l 1
 612 1184 l 1
 718 1184 l 1
 437 -56 l 2
 392 -254 284 -285 79 -299 c 1
EndSplineSet
EndChar

StartChar: afii10086
Encoding: 393 1092 199
Width: 1092
VWidth: 0
Flags: W
HStem: -390 21G<495 595> 90 78<279.159 495 595 807.345> 1066 76<272.05 495 595 819.717> 1638 20G<495 595>
VStem: 94 97<257.539 980.097> 495 100<-390 90 168 1066 1142 1658> 902 96<266.565 980.097>
LayerCount: 2
Fore
SplineSet
495 -390 m 1
 495 90 l 1
 437 90 l 2
 259 90 94 139 94 508 c 2
 94 721 l 2
 94 1065 226 1142 418 1142 c 2
 495 1142 l 1
 495 1658 l 1
 595 1658 l 1
 595 1142 l 1
 676 1142 l 2
 868 1142 998 1065 998 721 c 2
 998 508 l 2
 998 139 835 90 656 90 c 2
 595 90 l 1
 595 -390 l 1
 495 -390 l 1
439 168 m 2
 495 168 l 1
 495 1067 l 1
 420 1067 l 2
 278 1067 191 1030 191 731 c 2
 191 506 l 2
 191 198 297 168 439 168 c 2
652 168 m 2
 795 168 902 198 902 506 c 2
 902 731 l 2
 902 1030 813 1066 671 1066 c 2
 595 1066 l 1
 595 168 l 1
 652 168 l 2
EndSplineSet
EndChar

StartChar: afii10088
Encoding: 395 1094 201
Width: 840
VWidth: 0
Flags: W
HStem: 0 76<225 599 708 719> 1164 20G<116 225 599 708>
VStem: 116 109<76 1184> 599 109<76 1184> 729 82<-275 0>
LayerCount: 2
Fore
SplineSet
729 -275 m 1
 719 0 l 1
 116 0 l 1
 116 1184 l 1
 225 1184 l 1
 225 76 l 1
 599 76 l 1
 599 1184 l 1
 708 1184 l 1
 708 76 l 1
 811 76 l 1
 811 -275 l 1
 729 -275 l 1
EndSplineSet
EndChar

StartChar: afii10089
Encoding: 396 1095 202
Width: 771
VWidth: 0
Flags: W
HStem: 0 21G<543 652> 483 80<247.141 540.52> 1164 20G<84 193 543 652>
VStem: 84 109<611.067 1184> 543 109<0 508 575.746 1184>
LayerCount: 2
Fore
SplineSet
543 0 m 1
 543 508 l 1
 488 496 434 483 360 483 c 0
 200 483 84 557 84 741 c 2
 84 1184 l 1
 193 1184 l 1
 193 738 l 2
 193 618 261 563 380 563 c 0
 453 563 492 573 543 587 c 1
 543 1184 l 1
 652 1184 l 1
 652 0 l 1
 543 0 l 1
EndSplineSet
EndChar

StartChar: afii10090
Encoding: 397 1096 203
Width: 1128
VWidth: 0
Flags: W
HStem: 0 76<223 514 621 905> 1164 20G<116 223 514 621 905 1012>
VStem: 116 107<76 1184> 514 107<76 1184> 905 107<76 1184>
LayerCount: 2
Fore
SplineSet
116 0 m 1
 116 1184 l 1
 223 1184 l 1
 223 76 l 1
 514 76 l 1
 514 1184 l 1
 621 1184 l 1
 621 76 l 1
 905 76 l 1
 905 1184 l 1
 1012 1184 l 1
 1012 0 l 1
 116 0 l 1
EndSplineSet
EndChar

StartChar: afii10091
Encoding: 398 1097 204
Width: 1176
VWidth: 0
Flags: W
HStem: 0 76<221 520 625 916 1022 1033> 1164 20G<116 221 520 625 916 1022>
VStem: 116 105<76 1184> 520 105<76 1184> 916 106<76 1184> 1045 81<-275 0>
LayerCount: 2
Fore
SplineSet
1045 -275 m 1
 1033 0 l 1
 116 0 l 1
 116 1184 l 1
 221 1184 l 1
 221 76 l 1
 520 76 l 1
 520 1184 l 1
 625 1184 l 1
 625 76 l 1
 916 76 l 1
 916 1184 l 1
 1022 1184 l 1
 1022 76 l 1
 1126 76 l 1
 1126 -275 l 1
 1045 -275 l 1
EndSplineSet
EndChar

StartChar: afii10092
Encoding: 399 1098 205
Width: 904
VWidth: 0
Flags: W
HStem: 0 74<363 617.482> 634 74<363 619.207> 1101 83<-2 254>
VStem: 254 109<74 634 708 1101> 731 103<164.411 538.681>
LayerCount: 2
Fore
SplineSet
254 0 m 1
 254 1101 l 1
 -2 1101 l 1
 -2 1184 l 1
 363 1184 l 1
 363 708 l 1
 458 708 l 2
 777 708 834 523 834 347 c 0
 834 178 774 0 452 0 c 2
 254 0 l 1
363 74 m 1
 452 74 l 2
 691 74 731 202 731 348 c 0
 731 490 695 633 455 634 c 1
 363 634 l 1
 363 74 l 1
EndSplineSet
EndChar

StartChar: afii10093
Encoding: 400 1099 206
Width: 1079
VWidth: 0
Flags: W
HStem: 0 74<225 479.482> 634 74<225 481.207> 1164 20G<116 225 854 963>
VStem: 116 109<74 634 708 1184> 593 103<167.936 538.55> 854 109<0 1184>
LayerCount: 2
Fore
SplineSet
116 0 m 1
 116 1184 l 1
 225 1184 l 1
 225 708 l 1
 227 708 318 708 320 708 c 0
 638 707 696 523 696 347 c 0
 696 178 636 0 314 0 c 2
 116 0 l 1
225 74 m 1
 314 74 l 2
 552 74 593 202 593 348 c 0
 593 490 557 633 317 634 c 0
 316 634 226 634 225 634 c 1
 225 74 l 1
854 0 m 1
 854 1184 l 1
 963 1184 l 1
 963 0 l 1
 854 0 l 1
EndSplineSet
EndChar

StartChar: afii10094
Encoding: 401 1100 207
Width: 764
VWidth: 0
Flags: W
HStem: 0 74<225 479.482> 634 74<225 481.207> 1164 20G<116 225>
VStem: 116 109<74 634 708 1184> 593 103<167.936 538.55>
LayerCount: 2
Fore
SplineSet
116 0 m 1
 116 1184 l 1
 225 1184 l 1
 225 708 l 1
 227 708 318 708 320 708 c 0
 638 707 696 523 696 347 c 0
 696 178 636 0 314 0 c 2
 116 0 l 1
225 74 m 1
 314 74 l 2
 552 74 593 202 593 348 c 0
 593 490 557 633 317 634 c 0
 316 634 226 634 225 634 c 1
 225 74 l 1
EndSplineSet
EndChar

StartChar: afii10095
Encoding: 402 1101 208
Width: 791
VWidth: 0
Flags: W
HStem: -19 82<278.683 523.977> 562 72<259 589> 1106 82<274.738 524.399>
VStem: 109 103<126.588 357 788 1040.86> 589 108<130.124 562 634 1040.96>
LayerCount: 2
Fore
SplineSet
400 -19 m 0
 153 -19 109 132 109 334 c 2
 109 357 l 1
 212 357 l 1
 212 335 l 2
 212 122 275 63 405 63 c 0
 566 63 589 171 589 448 c 2
 589 562 l 1
 259 562 l 1
 259 634 l 1
 589 634 l 1
 589 740 l 2
 589 1014 559 1106 403 1106 c 0
 244 1106 212 1007 212 817 c 2
 212 788 l 1
 109 788 l 1
 109 814 l 2
 109 1011 146 1188 405 1188 c 0
 671 1188 697 995 697 724 c 2
 697 461 l 2
 697 110 631 -19 400 -19 c 0
EndSplineSet
EndChar

StartChar: afii10096
Encoding: 403 1102 209
Width: 1051
VWidth: 0
Flags: W
HStem: -19 82<550.323 787.846> 0 21G<116 217> 546 75<217 382> 1121 82<550.323 787.846> 1164 20G<116 217>
VStem: 116 101<0 546 621 1184> 382 101<133.288 546 621 1049.44> 856 101<133.288 1050.29>
LayerCount: 2
Fore
SplineSet
669 -19 m 0xb7
 440 -19 382 135 382 432 c 2
 382 546 l 1
 217 546 l 1
 217 0 l 1
 116 0 l 1
 116 1184 l 1
 217 1184 l 1x6f
 217 621 l 1
 382 621 l 1
 382 752 l 2
 382 1046 440 1203 669 1203 c 0
 898 1203 957 1048 957 752 c 2
 957 432 l 2
 957 135 898 -19 669 -19 c 0xb7
669 63 m 0xb7
 838 63 856 200 856 428 c 2
 856 756 l 2
 856 983 838 1121 669 1121 c 0
 500 1121 483 983 483 756 c 2
 483 428 l 2
 483 200 500 63 669 63 c 0xb7
EndSplineSet
EndChar

StartChar: afii10097
Encoding: 404 1103 210
Width: 789
VWidth: 0
Flags: W
HStem: 0 21G<39 165.947 564 673> 486 74<380.171 564> 1111 73<311.297 564>
VStem: 106 102<656.619 1029.64> 564 109<0 486 560 1111>
LayerCount: 2
Fore
SplineSet
39 0 m 1
 279 519 l 1
 143 574 106 721 106 842 c 0
 106 1008 154 1184 475 1184 c 2
 673 1184 l 1
 673 0 l 1
 564 0 l 1
 564 486 l 1
 490 486 424 486 378 494 c 1
 157 0 l 1
 39 0 l 1
493 560 m 0
 495 560 563 560 564 560 c 1
 564 1111 l 1
 563 1111 473 1111 472 1111 c 0
 237 1110 208 984 208 841 c 0
 208 650 288 560 493 560 c 0
EndSplineSet
EndChar

StartChar: afii10098
Encoding: 405 1169 211
Width: 591
VWidth: 0
Flags: W
HStem: 0 21G<129 237> 1098 86<237 474>
VStem: 129 108<0 1098> 474 68<1184 1333>
LayerCount: 2
Fore
SplineSet
129 0 m 1
 129 1184 l 1
 474 1184 l 1
 474 1333 l 1
 542 1333 l 1
 542 1098 l 1
 237 1098 l 1
 237 0 l 1
 129 0 l 1
EndSplineSet
EndChar

StartChar: afii10099
Encoding: 406 1106 212
Width: 832
VWidth: 0
Flags: W
HStem: -247 80<380 550.727> 0 21G<137 246> 921 72<336.032 578.235> 1281 70<-8 137 246 501> 1638 20G<137 246>
VStem: 137 109<0 864.066 903 1281 1351 1658> 614 109<-108.674 892.725>
LayerCount: 2
Fore
SplineSet
-8 1281 m 1
 -8 1351 l 1
 137 1351 l 1
 137 1658 l 1
 246 1658 l 1
 246 1351 l 1
 501 1351 l 1
 501 1281 l 1
 246 1281 l 1
 246 903 l 1
 297 946 389 993 507 993 c 0
 620 993 723 935 723 778 c 2
 723 206 l 2
 723 -89 708 -247 429 -247 c 2
 380 -247 l 1
 380 -167 l 1
 417 -167 l 2
 602 -167 614 -72 614 193 c 2
 614 768 l 2
 614 888 556 921 480 921 c 0
 392 921 304 886 246 831 c 1
 246 0 l 1
 137 0 l 1
 137 1281 l 1
 -8 1281 l 1
EndSplineSet
EndChar

StartChar: afii10101
Encoding: 408 1108 214
Width: 770
VWidth: 0
Flags: W
HStem: -19 82<275.048 518.573> 562 78<203 515> 1121 82<271.182 520.204>
VStem: 94 109<140.639 562 640 1045.81> 580 103<120.015 417 799 1063.75>
LayerCount: 2
Fore
SplineSet
394 -19 m 0
 128 -19 94 187 94 445 c 2
 94 723 l 2
 94 1071 162 1203 393 1203 c 0
 640 1203 683 1045 683 829 c 2
 683 799 l 1
 580 799 l 1
 580 828 l 2
 580 1066 525 1121 394 1121 c 0
 234 1121 203 1016 203 736 c 2
 203 640 l 1
 515 640 l 1
 515 562 l 1
 203 562 l 1
 203 429 l 2
 203 171 240 63 395 63 c 0
 555 63 580 155 580 389 c 2
 580 417 l 1
 683 417 l 1
 683 392 l 2
 683 155 653 -19 394 -19 c 0
EndSplineSet
EndChar

StartChar: afii10103
Encoding: 410 1110 216
Width: 474
VWidth: 0
Flags: W
HStem: 0 21G<185 294> 1164 20G<185 294> 1332 181<176 308>
VStem: 185 109<0 1184 1332 1513>
LayerCount: 2
Fore
SplineSet
185 0 m 1
 185 1184 l 1
 294 1184 l 1
 294 0 l 1
 185 0 l 1
176 1332 m 1
 176 1513 l 1
 308 1513 l 1
 308 1332 l 1
 176 1332 l 1
EndSplineSet
EndChar

StartChar: afii10105
Encoding: 412 1112 218
Width: 411
VWidth: 0
Flags: W
HStem: -317 89<-32 133.909> 1164 20G<165 274> 1339 189<165 275>
VStem: 165 109<-196.586 1184 1339 1528>
LayerCount: 2
Fore
SplineSet
-32 -313 m 1
 -32 -226 l 1
 -28 -227 11 -228 16 -228 c 0
 159 -228 165 -138 165 -51 c 2
 165 1184 l 1
 274 1184 l 1
 274 -58 l 2
 274 -248 182 -317 29 -317 c 0
 19 -317 -24 -316 -32 -313 c 1
165 1339 m 1
 165 1528 l 1
 275 1528 l 1
 275 1339 l 1
 165 1339 l 1
EndSplineSet
EndChar

StartChar: afii10106
Encoding: 413 1113 219
Width: 1242
VWidth: 0
Flags: W
HStem: 0 74<8 122.536 783 1016.21> 571 74<783 1010.77> 1099 85<387 675>
VStem: 675 108<74 571 645 1099> 1096 102<136.425 504.35>
LayerCount: 2
Fore
SplineSet
8 -10 m 1
 8 73 l 1
 159 73 209 167 242 574 c 2
 291 1184 l 1
 783 1184 l 1
 783 645 l 1
 854 645 l 2
 1164 645 1198 490 1198 317 c 0
 1198 151 1162 2 847 0 c 1
 675 0 l 1
 675 1099 l 1
 387 1099 l 1
 341 561 l 1
 299 38 199 -10 20 -10 c 2
 8 -10 l 1
783 74 m 1
 848 74 l 2
 1078 74 1096 176 1096 318 c 0
 1096 458 1081 571 848 571 c 2
 783 571 l 1
 783 74 l 1
EndSplineSet
EndChar

StartChar: afii10107
Encoding: 414 1114 220
Width: 1186
VWidth: 0
Flags: W
HStem: 0 74<701 954.856> 568 80<225 592 701 958.442> 1164 20G<116 225 592 701>
VStem: 116 109<0 568 648 1184> 592 109<74 568 648 1184> 1036 102<136.682 504.031>
LayerCount: 2
Fore
SplineSet
116 0 m 1
 116 1184 l 1
 225 1184 l 1
 225 648 l 1
 592 648 l 1
 592 1184 l 1
 701 1184 l 1
 701 645 l 1
 703 645 789 645 790 645 c 0
 1104 644 1138 491 1138 317 c 0
 1138 151 1101 1 785 0 c 1
 592 0 l 1
 592 568 l 1
 225 568 l 1
 225 0 l 1
 116 0 l 1
701 74 m 1
 702 74 787 74 788 74 c 0
 1018 76 1036 176 1036 318 c 0
 1036 458 1021 569 788 571 c 0
 787 571 702 571 701 571 c 1
 701 74 l 1
EndSplineSet
EndChar

StartChar: afii10108
Encoding: 415 1115 221
Width: 832
VWidth: 0
Flags: W
HStem: 0 21G<137 246 614 723> 921 72<334.97 578.235> 1281 70<-8 137 246 501> 1638 20G<137 246>
VStem: 137 109<0 864.066 903 1281 1351 1658> 614 109<0 892.725>
LayerCount: 2
Fore
SplineSet
-8 1281 m 1
 -8 1351 l 1
 137 1351 l 1
 137 1658 l 1
 246 1658 l 1
 246 1351 l 1
 501 1351 l 1
 501 1281 l 1
 246 1281 l 1
 246 903 l 1
 297 946 389 993 507 993 c 0
 620 993 723 935 723 778 c 2
 723 0 l 1
 614 0 l 1
 614 768 l 2
 614 888 556 921 480 921 c 0
 397 921 304 886 246 831 c 1
 246 0 l 1
 137 0 l 1
 137 1281 l 1
 -8 1281 l 1
EndSplineSet
EndChar

StartChar: afii10145
Encoding: 418 1039 224
Width: 1047
VWidth: 0
Flags: W
HStem: 0 85<265 486 594 782> 1638 20G<153 265 782 894>
VStem: 153 112<85 1658> 497 87<-275 0> 782 112<85 1658>
LayerCount: 2
Fore
SplineSet
497 -275 m 1
 486 0 l 1
 153 0 l 1
 153 1658 l 1
 265 1658 l 1
 265 85 l 1
 782 85 l 1
 782 1658 l 1
 894 1658 l 1
 894 0 l 1
 594 0 l 1
 584 -275 l 1
 497 -275 l 1
EndSplineSet
EndChar

StartChar: afii10193
Encoding: 419 1119 225
Width: 826
VWidth: 0
Flags: W
HStem: 0 82<225 369 465 601> 1164 20G<116 225 601 710>
VStem: 116 109<82 1184> 381 74<-275 0> 601 109<82 1184>
LayerCount: 2
Fore
SplineSet
381 -275 m 1
 369 0 l 1
 116 0 l 1
 116 1184 l 1
 225 1184 l 1
 225 82 l 1
 601 82 l 1
 601 1184 l 1
 710 1184 l 1
 710 0 l 1
 465 0 l 1
 455 -275 l 1
 381 -275 l 1
EndSplineSet
EndChar

StartChar: afii61289
Encoding: 420 8467 226
Width: 1024
VWidth: 0
Flags: W
HStem: -26 75<476.281 644.895> 1793 83<690.913 835.322>
VStem: 363 78<82.7774 536.383> 863 78<1437.94 1766.13>
LayerCount: 2
Fore
SplineSet
410 596 m 1
 210 302 l 1
 160 345 l 1
 433 752 l 1
 567 1653 l 2
 588 1797 686 1876 777 1876 c 0
 863 1876 941 1805 941 1650 c 0
 941 1496 864 1260 637 929 c 1
 511 744 l 1
 449 330 l 2
 444 292 441 258 441 229 c 0
 441 103 486 49 548 49 c 0
 611 49 692 106 757 199 c 1
 806 148 l 1
 724 37 620 -26 533 -26 c 0
 437 -26 363 51 363 224 c 0
 363 258 366 297 372 339 c 2
 410 596 l 1
583 975 m 1
 795 1291 863 1506 863 1636 c 0
 863 1744 817 1793 767 1793 c 0
 716 1793 662 1743 648 1653 c 2
 535 904 l 1
 583 975 l 1
EndSplineSet
EndChar

StartChar: ampersand
Encoding: 38 38 230
Width: 1232
VWidth: 0
Flags: W
HStem: -22 92<345.811 686.316> -12 101<1000.02 1132> 1586 91<390.326 697.634>
VStem: 117 109<193.641 548.487> 193 106<1144.73 1493.65> 769 106<1229.64 1515.51> 1027 99<507.587 719>
LayerCount: 2
Fore
SplineSet
511 -22 m 0xae
 245 -22 117 156 117 358 c 0xb6
 117 508 183 652 395 861 c 1
 256 1086 193 1195 193 1337 c 0
 193 1557 330 1677 542 1677 c 0
 750 1677 875 1566 875 1388 c 0
 875 1221 734 1048 506 848 c 1
 867 278 l 1
 958 393 1023 600 1027 719 c 1
 1126 719 l 1
 1126 577 1052 353 927 208 c 1
 1003 110 1060 89 1132 89 c 1
 1132 -12 l 1x6e
 1117 -12 1102 -11 1087 -8 c 1
 1001 2 924 59 862 141 c 1
 785 55 663 -22 511 -22 c 0xae
513 70 m 0
 622 70 710 112 805 211 c 1
 441 782 l 1
 277 608 226 488 226 357 c 0
 226 224 298 70 513 70 c 0
466 916 m 1
 624 1064 769 1226 769 1392 c 0
 769 1518 678 1586 539 1586 c 0
 374 1586 299 1476 299 1340 c 0x2e
 299 1214 352 1106 466 916 c 1
EndSplineSet
EndChar

StartChar: approxequal
Encoding: 424 8776 232
Width: 802
VWidth: 0
Flags: W
HStem: 572 84<436.686 630.669> 683 82<183.639 369.942> 844 84<438.938 628.142> 956 82<183.639 367.649>
VStem: 92 618
LayerCount: 2
Fore
SplineSet
536 572 m 0
 458 572 332 683 268 683 c 0
 240 683 196 659 133 599 c 1
 92 648 l 1
 155 719 219 765 274 765 c 0
 350 765 478 656 539 656 c 0
 578 656 607 679 670 728 c 1
 710 679 l 1
 648 617 589 572 536 572 c 0
536 844 m 0
 458 844 332 956 268 956 c 0
 240 956 196 932 133 871 c 1
 92 921 l 1
 155 991 219 1038 274 1038 c 0
 350 1038 478 928 539 928 c 0
 578 928 607 951 670 1001 c 1
 710 951 l 1
 648 890 589 844 536 844 c 0
EndSplineSet
EndChar

StartChar: asciicircum
Encoding: 94 94 234
Width: 748
VWidth: 0
Flags: W
HStem: 1076 582
VStem: 53 642
LayerCount: 2
Fore
SplineSet
53 1076 m 1
 315 1658 l 1
 433 1658 l 1
 695 1076 l 1
 603 1076 l 1
 374 1589 l 1
 145 1076 l 1
 53 1076 l 1
EndSplineSet
EndChar

StartChar: asciitilde
Encoding: 126 126 235
Width: 783
VWidth: 0
Flags: W
HStem: 781 84<429.374 618.602> 893 82<173.765 358.26>
VStem: 83 617
LayerCount: 2
Fore
SplineSet
527 781 m 0
 448 781 323 893 258 893 c 0
 230 893 186 869 123 808 c 1
 83 858 l 1
 145 929 209 975 265 975 c 0
 341 975 468 865 529 865 c 0
 568 865 598 889 660 938 c 1
 700 888 l 1
 639 827 579 781 527 781 c 0
EndSplineSet
EndChar

StartChar: asterisk
Encoding: 42 42 236
Width: 730
VWidth: 0
Flags: W
HStem: 1008 649
VStem: 332 87<1384.62 1657>
LayerCount: 2
Fore
SplineSet
205 1008 m 1
 136 1052 l 1
 324 1298 l 1
 60 1405 l 1
 89 1476 l 1
 345 1353 l 1
 332 1657 l 1
 419 1657 l 1
 403 1353 l 1
 656 1476 l 1
 685 1405 l 1
 422 1298 l 1
 610 1049 l 1
 541 1008 l 1
 372 1269 l 1
 205 1008 l 1
EndSplineSet
EndChar

StartChar: at
Encoding: 64 64 237
Width: 1649
VWidth: 0
Flags: W
HStem: -203 85<627.812 1254.44> 268 77<670.662 888.415 1121.75 1309.36> 1154 85<831.035 1089.61> 1571 86<683.045 1163.83>
VStem: 120 102<333.123 1029.43> 494 107<409.654 865.266> 1012 96<355.968 458> 1478 90<560.276 1220.42>
CounterMasks: 2 f0 0d
LayerCount: 2
Fore
SplineSet
907 -203 m 0
 488 -203 120 -17 120 680 c 0
 120 1348 474 1653 891 1657 c 0
 894 1657 898 1657 901 1657 c 0
 1353 1657 1568 1398 1568 892 c 0
 1568 865 1568 838 1567 810 c 0
 1547 352 1300 268 1177 268 c 0
 1099 268 1012 325 1012 438 c 0
 1012 445 1012 451 1013 458 c 1
 970 353 888 259 768 256 c 0
 765 256 762 256 759 256 c 0
 604 256 494 379 494 610 c 0
 494 988 730 1239 960 1239 c 0
 1015 1239 1069 1219 1110 1187 c 1
 1127 1229 l 1
 1209 1229 l 1
 1115 543 l 2
 1111 510 1108 480 1108 454 c 0
 1108 387 1127 345 1197 345 c 0
 1286 345 1458 422 1476 805 c 0
 1478 838 1478 869 1478 900 c 0
 1478 1411 1248 1571 903 1571 c 0
 898 1571 893 1571 888 1571 c 0
 511 1565 222 1256 222 681 c 0
 222 -14 604 -118 914 -118 c 0
 1063 -118 1195 -92 1293 -67 c 1
 1321 -147 l 1
 1180 -178 1027 -203 907 -203 c 0
780 340 m 0
 879 343 964 431 1015 576 c 1
 1091 1117 l 1
 1056 1142 1013 1154 971 1154 c 0
 794 1154 601 951 601 608 c 0
 601 401 686 340 770 340 c 0
 773 340 777 340 780 340 c 0
EndSplineSet
EndChar

StartChar: b
Encoding: 98 98 239
Width: 814
VWidth: 0
Flags: W
HStem: -19 85<306.961 537.963> 0 21G<117 226> 1118 85<310.868 543.616> 1638 20G<117 226>
VStem: 117 109<0 98 127.96 1049.26 1084 1658> 611 109<152.799 1044.96>
LayerCount: 2
Fore
SplineSet
442 -19 m 0xbc
 339 -19 268 45 226 98 c 1
 226 0 l 1
 117 0 l 1x7c
 117 1658 l 1
 226 1658 l 1
 226 1084 l 1
 269 1140 344 1203 453 1203 c 0
 671 1203 720 1011 720 714 c 2
 720 487 l 2
 720 156 655 -19 442 -19 c 0xbc
429 66 m 0xbc
 577 66 611 195 611 484 c 2
 611 715 l 2
 611 997 583 1118 431 1118 c 0
 341 1118 268 1054 226 1008 c 1
 226 173 l 1
 272 117 343 66 429 66 c 0xbc
EndSplineSet
EndChar

StartChar: backslash
Encoding: 92 92 240
Width: 674
VWidth: 0
Flags: W
HStem: 0 21G<525.125 629> 1638 20G<44 146.887>
VStem: 44 585
LayerCount: 2
Fore
SplineSet
531 0 m 1
 44 1658 l 1
 141 1658 l 1
 629 0 l 1
 531 0 l 1
EndSplineSet
EndChar

StartChar: bar
Encoding: 124 124 241
Width: 418
VWidth: 0
Flags: W
HStem: 1638 20G<158 260>
VStem: 158 102<-289 1658>
LayerCount: 2
Fore
SplineSet
158 -289 m 1
 158 1658 l 1
 260 1658 l 1
 260 -289 l 1
 158 -289 l 1
EndSplineSet
EndChar

StartChar: braceleft
Encoding: 123 123 242
Width: 475
VWidth: 0
Flags: W
HStem: -305 83<328.475 439> 644 94<76 165.93> 1592 82<328.475 439>
VStem: 195 107<-204.893 620.087 761.913 1573.89>
LayerCount: 2
Fore
SplineSet
439 -305 m 1
 202 -305 195 -257 195 108 c 2
 195 358 l 2
 195 582 176 644 76 644 c 1
 76 738 l 1
 176 738 195 800 195 1024 c 2
 195 1261 l 2
 195 1626 202 1674 439 1674 c 1
 439 1592 l 1
 302 1592 302 1573 302 1261 c 2
 302 992 l 2
 302 787 274 717 191 691 c 1
 274 665 302 595 302 390 c 2
 302 108 l 2
 302 -204 302 -222 439 -222 c 1
 439 -305 l 1
EndSplineSet
EndChar

StartChar: braceright
Encoding: 125 125 243
Width: 487
VWidth: 0
Flags: W
HStem: -305 83<48 158.525> 644 94<321.07 411> 1592 82<48 158.525>
VStem: 185 107<-204.893 620.087 761.913 1573.89>
LayerCount: 2
Fore
SplineSet
48 -305 m 1
 48 -222 l 1
 185 -222 185 -204 185 108 c 2
 185 390 l 2
 185 595 213 665 296 691 c 1
 213 717 185 787 185 992 c 2
 185 1261 l 2
 185 1573 185 1592 48 1592 c 1
 48 1674 l 1
 285 1674 292 1626 292 1261 c 2
 292 1024 l 2
 292 800 311 738 411 738 c 1
 411 644 l 1
 311 644 292 582 292 358 c 2
 292 108 l 2
 292 -257 285 -305 48 -305 c 1
EndSplineSet
EndChar

StartChar: bracketleft
Encoding: 91 91 244
Width: 571
VWidth: 0
Flags: W
HStem: -297 68<262 453> 1592 66<262 453>
VStem: 152 110<-229 1592>
LayerCount: 2
Fore
SplineSet
152 -297 m 1
 152 1658 l 1
 453 1658 l 1
 453 1592 l 1
 262 1592 l 1
 262 -229 l 1
 453 -229 l 1
 453 -297 l 1
 152 -297 l 1
EndSplineSet
EndChar

StartChar: bracketright
Encoding: 93 93 245
Width: 553
VWidth: 0
Flags: W
HStem: -295 66<100 291> 1591 67<100 291>
VStem: 291 110<-229 1591>
LayerCount: 2
Fore
SplineSet
100 -295 m 1
 100 -229 l 1
 291 -229 l 1
 291 1591 l 1
 100 1591 l 1
 100 1658 l 1
 401 1658 l 1
 401 -295 l 1
 100 -295 l 1
EndSplineSet
EndChar

StartChar: breve
Encoding: 425 728 246
Width: 735
VWidth: 0
Flags: W
HStem: 1431 70<259.87 477.536> 1638 20G<137 214.5 525 604>
VStem: 137 76<1546.67 1658> 529 75<1551.85 1658>
LayerCount: 2
Fore
SplineSet
368 1431 m 0
 231 1431 144 1503 137 1658 c 1
 213 1658 l 1
 216 1541 283 1501 368 1501 c 0
 453 1501 521 1541 529 1658 c 1
 604 1658 l 1
 598 1503 506 1431 368 1431 c 0
EndSplineSet
EndChar

StartChar: brokenbar
Encoding: 166 166 247
Width: 401
VWidth: 0
Flags: W
HStem: -368 21G<153 249> 1638 20G<153 249>
VStem: 153 96<-368 489 801 1658>
LayerCount: 2
Fore
SplineSet
153 -368 m 1
 153 489 l 1
 249 489 l 1
 249 -368 l 1
 153 -368 l 1
153 801 m 1
 153 1658 l 1
 249 1658 l 1
 249 801 l 1
 153 801 l 1
EndSplineSet
EndChar

StartChar: bullet
Encoding: 427 8226 248
Width: 543
VWidth: 0
Flags: W
HStem: 639 316<158.588 384.752>
VStem: 117 310<680.487 913.513>
LayerCount: 2
Fore
SplineSet
271 639 m 0
 170 639 117 711 117 797 c 0
 117 883 170 955 271 955 c 0
 373 955 427 883 427 797 c 0
 427 710 373 639 271 639 c 0
EndSplineSet
EndChar

StartChar: c
Encoding: 99 99 249
Width: 768
VWidth: 0
Flags: W
HStem: -19 82<274.365 517.852> 1121 82<270.959 518.063>
VStem: 94 109<140.639 1045.81> 580 102<122.952 443 772 1058.78>
AnchorPoint: "cedilla" 380 0 basechar 0
LayerCount: 2
Fore
SplineSet
393 -19 m 0
 127 -19 94 187 94 445 c 2
 94 723 l 2
 94 1071 162 1203 393 1203 c 0
 639 1203 682 1037 682 820 c 2
 682 772 l 1
 580 772 l 1
 580 819 l 2
 580 1058 524 1121 394 1121 c 0
 233 1121 203 1016 203 736 c 2
 203 429 l 2
 203 171 239 63 395 63 c 0
 554 63 580 162 580 397 c 2
 580 443 l 1
 682 443 l 1
 682 399 l 2
 682 162 652 -19 393 -19 c 0
EndSplineSet
EndChar

StartChar: caron
Encoding: 429 711 251
Width: 567
VWidth: 0
Flags: W
HStem: 1326 332
VStem: 71 430
LayerCount: 2
Fore
SplineSet
244 1326 m 1
 71 1658 l 1
 164 1658 l 1
 286 1409 l 1
 409 1658 l 1
 501 1658 l 1
 326 1326 l 1
 244 1326 l 1
EndSplineSet
EndChar

StartChar: cedilla
Encoding: 184 184 256
Width: 428
VWidth: 0
Flags: W
HStem: -381 60<54 217.416>
VStem: 98 60<-102.293 0> 238 84<-306.729 -162.42>
AnchorPoint: "cedilla" 120 0 mark 0
LayerCount: 2
Fore
SplineSet
54 -378 m 1
 54 -320 l 1
 72 -321 89 -321 104 -321 c 0
 197 -321 234 -300 238 -248 c 0
 238 -245 238 -241 238 -238 c 0
 238 -176 184 -140 98 -127 c 1
 98 0 l 1
 158 0 l 1
 158 -97 l 1
 264 -111 322 -178 322 -247 c 0
 322 -250 322 -252 322 -255 c 0
 318 -338 254 -381 122 -381 c 0
 101 -381 78 -380 54 -378 c 1
EndSplineSet
EndChar

StartChar: cent
Encoding: 162 162 257
Width: 776
VWidth: 0
Flags: W
HStem: -17 80<281.694 349 406 514.999> 1121 81<274.47 360 417 517.006>
VStem: 94 109<138.565 1049.81> 349 57<-229 -19 1201.33 1409> 580 102<126.599 443 772 1058.29>
LayerCount: 2
Fore
SplineSet
349 -229 m 1
 349 -17 l 1
 123 4 94 202 94 445 c 2
 94 723 l 2
 94 1056 156 1189 360 1202 c 1
 360 1409 l 1
 417 1409 l 1
 417 1202 l 1
 642 1190 682 1029 682 820 c 2
 682 772 l 1
 580 772 l 1
 580 819 l 2
 580 1058 524 1121 394 1121 c 0
 233 1121 203 1016 203 736 c 2
 203 429 l 2
 203 171 239 63 395 63 c 0
 554 63 580 162 580 397 c 2
 580 443 l 1
 682 443 l 1
 682 399 l 2
 682 166 653 -13 406 -19 c 1
 406 -229 l 1
 349 -229 l 1
EndSplineSet
EndChar

StartChar: circumflex
Encoding: 433 710 258
Width: 656
VWidth: 0
Flags: W
HStem: 1283 375
VStem: 81 486
LayerCount: 2
Fore
SplineSet
81 1283 m 1
 258 1658 l 1
 394 1658 l 1
 567 1283 l 1
 490 1283 l 1
 325 1604 l 1
 161 1283 l 1
 81 1283 l 1
EndSplineSet
EndChar

StartChar: colon
Encoding: 58 58 259
Width: 392
VWidth: 0
Flags: W
HStem: 155 210<154 274> 877 211<154 274>
VStem: 154 120<155 365 877 1088>
LayerCount: 2
Fore
SplineSet
154 155 m 1
 154 365 l 1
 274 365 l 1
 274 155 l 1
 154 155 l 1
154 877 m 1
 154 1088 l 1
 274 1088 l 1
 274 877 l 1
 154 877 l 1
EndSplineSet
EndChar

StartChar: comma
Encoding: 44 44 260
Width: 363
VWidth: 0
Flags: W
HStem: -220 436
VStem: 125 132<0 216> 199 58<-117.031 0>
LayerCount: 2
Fore
SplineSet
141 -220 m 1xc0
 113 -173 l 1
 182 -121 199 -82 199 0 c 1xa0
 125 0 l 1
 125 216 l 1
 257 216 l 1
 257 23 l 2
 257 -104 230 -163 141 -220 c 1xc0
EndSplineSet
EndChar

StartChar: copyright
Encoding: 169 169 261
Width: 1765
VWidth: 0
Flags: W
HStem: -22 61<658.84 1108.92> 245 88<724.474 1003.96> 1400 88<718.059 1005.09> 1646 62<658.84 1108.61>
VStem: 60 74<586.501 1111.17> 525 116<420.875 1317.12> 1066 105<399.612 726 1038 1336.51> 1635 70<586.308 1101.59>
CounterMasks: 2 f0 0f
LayerCount: 2
Fore
SplineSet
857 245 m 0
 562 245 525 456 525 738 c 2
 525 979 l 2
 525 1360 600 1488 856 1488 c 0
 1130 1488 1171 1330 1171 1094 c 2
 1171 1038 l 1
 1066 1038 l 1
 1066 1093 l 2
 1066 1356 1002 1400 857 1400 c 0
 679 1400 641 1300 641 992 c 2
 641 721 l 2
 641 438 686 333 858 333 c 0
 1036 333 1066 412 1066 670 c 2
 1066 726 l 1
 1171 726 l 1
 1171 673 l 2
 1171 415 1145 245 857 245 c 0
885 39 m 0
 1406 39 1635 439 1635 845 c 0
 1635 1252 1406 1646 885 1646 c 0
 362 1646 134 1252 134 845 c 0
 134 439 362 39 885 39 c 0
883 -22 m 0
 298 -22 60 427 60 843 c 0
 60 1260 298 1708 883 1708 c 0
 1467 1708 1705 1260 1705 843 c 0
 1705 426 1469 -22 883 -22 c 0
EndSplineSet
EndChar

StartChar: currency
Encoding: 164 164 262
Width: 1048
VWidth: 0
Flags: W
HStem: 428 58<390.102 664.31> 1246 58<390.102 664.31>
VStem: 94 65<710.73 1021.68> 895 65<710.73 1021.68>
LayerCount: 2
Fore
SplineSet
72 381 m 1
 42 411 l 1
 205 573 l 1
 136 650 94 754 94 866 c 0
 94 979 136 1082 205 1159 c 1
 42 1321 l 1
 72 1351 l 1
 234 1189 l 1
 309 1260 411 1304 523 1304 c 0
 524 1304 526 1304 527 1304 c 0
 528 1304 530 1304 531 1304 c 0
 643 1304 745 1260 820 1189 c 1
 982 1351 l 1
 1012 1321 l 1
 850 1159 l 1
 918 1082 960 979 960 866 c 0
 960 754 918 650 849 573 c 1
 1012 411 l 1
 982 381 l 1
 820 543 l 1
 745 472 643 428 531 428 c 0
 530 428 528 428 527 428 c 0
 526 428 524 428 523 428 c 0
 411 428 309 472 234 543 c 1
 72 381 l 1
527 486 m 0
 736 486 895 658 895 866 c 0
 895 1075 736 1246 527 1246 c 0
 319 1246 159 1075 159 866 c 0
 159 658 319 486 527 486 c 0
EndSplineSet
EndChar

StartChar: d
Encoding: 100 100 263
Width: 808
VWidth: 0
Flags: W
HStem: -19 85<276.578 507.641> 0 21G<582 691> 1118 85<270.036 505.17> 1638 20G<582 691>
VStem: 94 109<149.007 1041.1> 582 109<0 90 125.374 1054.04 1093 1658>
LayerCount: 2
Fore
SplineSet
372 -19 m 0xbc
 168 -19 94 126 94 486 c 2
 94 697 l 2
 94 1030 150 1203 367 1203 c 1
 467 1202 538 1146 582 1093 c 1
 582 1658 l 1
 691 1658 l 1
 691 0 l 1
 582 0 l 1x7c
 582 90 l 1
 539 38 470 -19 372 -19 c 0xbc
388 66 m 0xbc
 465 66 534 112 582 166 c 1
 582 1015 l 1
 539 1059 469 1118 384 1118 c 0
 233 1118 203 1000 203 723 c 2
 203 477 l 2
 203 190 239 66 388 66 c 0xbc
EndSplineSet
EndChar

StartChar: dagger
Encoding: 434 8224 264
Width: 682
VWidth: 0
Flags: W
HStem: 0 21G<291 395> 1139 86<35 291 395 648>
VStem: 291 104<0 1139 1225 1610>
LayerCount: 2
Fore
SplineSet
291 0 m 1
 291 1139 l 1
 35 1139 l 1
 35 1225 l 1
 291 1225 l 1
 291 1610 l 1
 395 1610 l 1
 395 1225 l 1
 648 1225 l 1
 648 1139 l 1
 395 1139 l 1
 395 0 l 1
 291 0 l 1
EndSplineSet
EndChar

StartChar: daggerdbl
Encoding: 435 8225 265
Width: 744
VWidth: 0
Flags: W
HStem: 0 21G<322 425> 533 79<60 322 425 685> 1104 80<60 322 425 685>
VStem: 322 103<0 533 612 1104 1184 1610>
LayerCount: 2
Fore
SplineSet
322 0 m 1
 322 533 l 1
 60 533 l 1
 60 612 l 1
 322 612 l 1
 322 1104 l 1
 60 1104 l 1
 60 1184 l 1
 322 1184 l 1
 322 1610 l 1
 425 1610 l 1
 425 1184 l 1
 685 1184 l 1
 685 1104 l 1
 425 1104 l 1
 425 612 l 1
 685 612 l 1
 685 533 l 1
 425 533 l 1
 425 0 l 1
 322 0 l 1
EndSplineSet
EndChar

StartChar: dcroat
Encoding: 437 273 267
Width: 839
VWidth: 0
Flags: W
HStem: -19 85<276.578 507.641> 0 21G<582 691> 1118 85<270.036 505.17> 1414 70<409 582 691 806> 1638 20G<582 691>
VStem: 94 109<149.007 1041.1> 582 109<0 90 125.374 1054.04 1093 1414 1484 1658>
LayerCount: 2
Fore
SplineSet
372 -19 m 0xbe
 168 -19 94 126 94 486 c 2
 94 697 l 2
 94 1030 150 1203 367 1203 c 1
 467 1202 538 1146 582 1093 c 1
 582 1414 l 1
 409 1414 l 1
 409 1484 l 1
 582 1484 l 1
 582 1658 l 1
 691 1658 l 1
 691 1484 l 1
 806 1484 l 1
 806 1414 l 1
 691 1414 l 1
 691 0 l 1
 582 0 l 1x7e
 582 90 l 1
 539 38 470 -19 372 -19 c 0xbe
388 66 m 0xbe
 465 66 534 112 582 166 c 1
 582 1015 l 1
 539 1059 469 1118 384 1118 c 0
 233 1118 203 1000 203 723 c 2
 203 477 l 2
 203 190 239 66 388 66 c 0xbe
EndSplineSet
EndChar

StartChar: degree
Encoding: 176 176 268
Width: 797
VWidth: 0
Flags: W
HStem: 1127 75<282.143 515.637> 1603 73<284.578 512.6>
VStem: 124 88<1267.21 1539.85> 586 88<1267.21 1539.85>
LayerCount: 2
Fore
SplineSet
399 1202 m 0
 494 1202 586 1260 586 1401 c 0
 586 1545 494 1603 398 1603 c 0
 303 1603 212 1545 212 1401 c 0
 212 1260 304 1202 399 1202 c 0
399 1127 m 0
 263 1127 124 1205 124 1402 c 0
 124 1598 262 1676 399 1676 c 0
 534 1676 674 1598 674 1402 c 0
 674 1205 534 1127 399 1127 c 0
EndSplineSet
EndChar

StartChar: dieresis
Encoding: 168 168 269
Width: 762
VWidth: 0
Flags: W
HStem: 1504 154<151 264 477 591>
VStem: 151 113<1504 1658> 477 114<1504 1658>
LayerCount: 2
Fore
SplineSet
151 1504 m 1
 151 1658 l 1
 264 1658 l 1
 264 1504 l 1
 151 1504 l 1
477 1504 m 1
 477 1658 l 1
 591 1658 l 1
 591 1504 l 1
 477 1504 l 1
EndSplineSet
EndChar

StartChar: divide
Encoding: 247 247 270
Width: 678
VWidth: 0
Flags: W
HStem: 431 160<289 390> 812 88<61 616> 1097 161<289 390>
VStem: 289 101<431 591 1097 1258>
LayerCount: 2
Fore
SplineSet
289 431 m 1
 289 591 l 1
 390 591 l 1
 390 431 l 1
 289 431 l 1
61 812 m 1
 61 900 l 1
 616 900 l 1
 616 812 l 1
 61 812 l 1
289 1097 m 1
 289 1258 l 1
 390 1258 l 1
 390 1097 l 1
 289 1097 l 1
EndSplineSet
EndChar

StartChar: dollar
Encoding: 36 36 271
Width: 923
VWidth: 0
Flags: W
HStem: -21 92<327.872 476 535 658.494> 1587 89<289.005 426 487 618.439>
VStem: 89 101<233.531 412.409 1191.87 1494.27> 426 61<1676 1870> 476 59<-192 -21> 744 94<1257.64 1440.27> 752 105<167.136 509.512>
CounterMasks: 1 26
LayerCount: 2
Fore
SplineSet
476 -192 m 1xea
 476 -21 l 1xea
 220 -17 106 151 85 409 c 1
 183 440 l 1
 211 221 271 71 487 71 c 0
 652 71 752 148 752 338 c 0xf2
 752 483 672 585 536 720 c 2
 233 1022 l 2
 131 1124 89 1229 89 1337 c 0
 89 1549 224 1667 426 1676 c 1
 426 1870 l 1
 487 1870 l 1
 487 1676 l 1
 693 1666 820 1559 838 1261 c 1
 744 1239 l 1xf4
 724 1468 656 1587 465 1587 c 0
 462 1587 458 1587 455 1587 c 0
 303 1585 190 1514 190 1345 c 0
 190 1261 221 1186 312 1094 c 1
 611 799 l 2
 743 668 857 521 857 344 c 0
 857 115 726 -2 535 -19 c 1
 535 -192 l 1
 476 -192 l 1xea
EndSplineSet
EndChar

StartChar: dotlessi
Encoding: 439 305 273
Width: 372
VWidth: 0
Flags: W
HStem: 0 21G<133 242> 1164 20G<133 242>
VStem: 133 109<0 1184>
LayerCount: 2
Fore
SplineSet
133 0 m 1
 133 1184 l 1
 242 1184 l 1
 242 0 l 1
 133 0 l 1
EndSplineSet
EndChar

StartChar: e
Encoding: 101 101 274
Width: 777
VWidth: 0
Flags: W
HStem: -19 82<276.962 520.488> 619 65<203 581> 1121 82<276.163 514.109>
VStem: 94 109<141.415 619 684 1041.46> 581 107<124.896 400 684 1053.73>
AnchorPoint: "ogonek" 471 0 basechar 0
LayerCount: 2
Fore
SplineSet
396 -19 m 0
 207 -19 94 72 94 438 c 2
 94 754 l 2
 94 1125 211 1203 398 1203 c 0
 619 1203 689 1071 689 732 c 1
 687 619 l 1
 203 619 l 1
 203 430 l 2
 203 146 258 63 395 63 c 0
 481 63 581 84 581 312 c 2
 581 400 l 1
 688 400 l 1
 688 322 l 2
 688 119 618 -19 396 -19 c 0
203 684 m 1
 581 684 l 1
 581 776 l 2
 581 987 563 1121 398 1121 c 0
 264 1121 203 1055 203 774 c 2
 203 684 l 1
EndSplineSet
EndChar

StartChar: eight
Encoding: 56 56 282
Width: 1001
VWidth: 0
Flags: W
HStem: -23 89<343.16 658.262> 1586 91<344.657 656.442>
VStem: 122 108<196.293 670.733 1074.68 1448.3> 770 109<192.808 670.512 1072.92 1454.06>
LayerCount: 2
Fore
SplineSet
501 -23 m 0
 224 -23 122 159 122 432 c 0
 122 760 275 824 380 868 c 1
 233 912 136 1041 136 1267 c 0
 136 1497 226 1677 501 1677 c 0
 774 1677 865 1492 865 1262 c 0
 865 1036 768 913 621 868 c 1
 726 824 879 759 879 432 c 0
 879 159 777 -23 501 -23 c 0
501 66 m 0
 666 66 770 159 770 434 c 0
 770 662 696 798 501 821 c 1
 304 798 230 662 230 434 c 0
 230 159 336 66 501 66 c 0
501 916 m 1
 693 928 758 1060 758 1263 c 0
 758 1486 673 1586 501 1586 c 0
 327 1586 244 1486 244 1263 c 0
 244 1060 308 928 501 916 c 1
EndSplineSet
EndChar

StartChar: ellipsis
Encoding: 443 8230 283
Width: 1061
VWidth: 0
Flags: W
HStem: 0 213<129 251 484 606 838 960>
VStem: 129 122<0 213> 484 122<0 213> 838 122<0 213>
CounterMasks: 1 70
LayerCount: 2
Fore
SplineSet
129 0 m 1
 129 213 l 1
 251 213 l 1
 251 0 l 1
 129 0 l 1
484 0 m 1
 484 213 l 1
 606 213 l 1
 606 0 l 1
 484 0 l 1
838 0 m 1
 838 213 l 1
 960 213 l 1
 960 0 l 1
 838 0 l 1
EndSplineSet
EndChar

StartChar: emdash
Encoding: 445 8212 285
Width: 1529
VWidth: 0
Flags: W
HStem: 476 95<122 1424>
LayerCount: 2
Fore
SplineSet
122 476 m 1
 122 571 l 1
 1424 571 l 1
 1424 476 l 1
 122 476 l 1
EndSplineSet
EndChar

StartChar: endash
Encoding: 446 8211 286
Width: 935
VWidth: 0
Flags: W
HStem: 438 97<122 830>
LayerCount: 2
Fore
SplineSet
122 438 m 1
 122 535 l 1
 830 535 l 1
 830 438 l 1
 122 438 l 1
EndSplineSet
EndChar

StartChar: eng
Encoding: 447 331 287
Width: 794
VWidth: 0
Flags: W
HStem: -319 88<335 513.362> 0 21G<110 219> 1118 85<342.91 544.257> 1164 20G<110 219>
VStem: 110 109<0 1030.82 1057 1184> 577 109<-169.907 1087.82>
LayerCount: 2
Fore
SplineSet
335 -319 m 1xec
 335 -231 l 1
 539 -231 577 -146 577 -10 c 2
 577 932 l 2
 577 1077 529 1118 453 1118 c 0xec
 373 1118 288 1064 219 987 c 1
 219 0 l 1
 110 0 l 1
 110 1184 l 1
 219 1184 l 1xdc
 219 1057 l 1
 294 1145 392 1203 500 1203 c 0
 606 1203 686 1133 686 944 c 2
 686 -12 l 2
 686 -255 534 -319 362 -319 c 2
 335 -319 l 1xec
EndSplineSet
EndChar

StartChar: equal
Encoding: 61 61 289
Width: 802
VWidth: 0
Flags: W
HStem: 590 92<100 701> 923 91<100 701>
VStem: 100 601<590 682 923 1014>
LayerCount: 2
Fore
SplineSet
100 590 m 1
 100 682 l 1
 701 682 l 1
 701 590 l 1
 100 590 l 1
100 923 m 1
 100 1014 l 1
 701 1014 l 1
 701 923 l 1
 100 923 l 1
EndSplineSet
EndChar

StartChar: estimated
Encoding: 449 8494 290
Width: 800
VWidth: 0
Flags: W
HStem: -19 56<302.89 544.467> 610 52<234 585> 1120 59<300.681 521.639>
VStem: 107 127<135.277 610 662 1034.2> 585 115<662 1046.7> 631 70<121.838 400>
CounterMasks: 1 e0
LayerCount: 2
Fore
SplineSet
417 -19 m 0xf4
 229 -19 107 62 107 428 c 2
 107 741 l 2
 107 1112 227 1179 414 1179 c 0
 635 1179 702 1058 702 718 c 1
 700 610 l 1xf8
 234 610 l 1
 234 379 l 2
 234 85 275 37 424 37 c 0
 526 37 631 58 631 304 c 2
 631 400 l 1
 701 400 l 1
 701 308 l 2
 701 105 643 -19 417 -19 c 0xf4
234 662 m 1
 585 662 l 1
 585 790 l 2
 585 1001 583 1120 414 1120 c 0
 276 1120 234 1069 234 788 c 2
 234 662 l 1
EndSplineSet
EndChar

StartChar: eth
Encoding: 240 240 291
Width: 880
VWidth: 0
Flags: W
HStem: -22 88<326.366 571.471> 1052 87<329.469 602.271> 1620 75<170.853 338.096>
VStem: 113 106<202.636 897.916> 651 106<167.567 999.954>
LayerCount: 2
Fore
SplineSet
757 508 m 2
 757 161 690 -22 441 -22 c 0
 200 -22 113 160 113 452 c 0
 113 454 113 455 113 457 c 2
 113 618 l 1
 114 977 225 1139 425 1139 c 0
 498 1139 566 1116 626 1084 c 1
 613 1177 588 1301 554 1364 c 1
 345 1307 l 1
 345 1375 l 1
 525 1423 l 1
 466 1545 349 1603 166 1620 c 1
 172 1695 l 1
 374 1684 528 1625 613 1452 c 1
 778 1496 l 1
 778 1427 l 1
 641 1391 l 1
 677 1306 757 1031 757 679 c 2
 757 508 l 2
219 527 m 0
 219 211 288 66 444 66 c 0
 624 66 651 206 651 580 c 0
 651 687 634 983 631 1001 c 1
 574 1025 515 1052 450 1052 c 0
 298 1052 219 918 219 527 c 0
EndSplineSet
EndChar

StartChar: exclam
Encoding: 33 33 292
Width: 404
VWidth: 0
Flags: W
HStem: 0 151<139 262> 1638 20G<141 265>
VStem: 139 123<0 151 1298.01 1658> 182 39<356 780.215>
LayerCount: 2
Fore
SplineSet
139 0 m 1xe0
 139 151 l 1
 262 151 l 1
 262 0 l 1
 139 0 l 1xe0
182 356 m 1xd0
 141 1658 l 1
 265 1658 l 1
 221 356 l 1
 182 356 l 1xd0
EndSplineSet
EndChar

StartChar: exclamdown
Encoding: 161 161 293
Width: 404
VWidth: 0
Flags: W
HStem: 1092 151<142 265>
VStem: 142 123<-415 -55.2894 1092 1243> 183 39<462.111 886>
LayerCount: 2
Fore
SplineSet
139 -415 m 1xa0
 183 886 l 1
 222 886 l 1
 263 -415 l 1
 139 -415 l 1xa0
142 1092 m 1xc0
 142 1243 l 1
 265 1243 l 1
 265 1092 l 1
 142 1092 l 1xc0
EndSplineSet
EndChar

StartChar: f
Encoding: 102 102 294
Width: 525
VWidth: 0
Flags: W
HStem: 0 21G<195 303> 1107 77<35 195 303 501> 1527 85<324.429 496>
VStem: 195 108<0 1107 1184 1510.3>
LayerCount: 2
Fore
SplineSet
195 0 m 1
 195 1107 l 1
 35 1107 l 1
 35 1184 l 1
 195 1184 l 1
 195 1344 l 2
 195 1494 208 1612 387 1612 c 0
 422 1612 463 1607 496 1598 c 1
 496 1515 l 1
 469 1520 435 1527 409 1527 c 0
 317 1527 303 1475 303 1346 c 2
 303 1184 l 1
 501 1184 l 1
 501 1107 l 1
 303 1107 l 1
 303 0 l 1
 195 0 l 1
EndSplineSet
EndChar

StartChar: five
Encoding: 53 53 295
Width: 1000
VWidth: 0
Flags: W
HStem: -19 86<371.015 663.879> 955 85<384.126 669.039> 1564 94<295 802>
VStem: 165 107<173.889 406> 202 89<920 1564> 777 106<204.17 825.048>
CounterMasks: 1 e0
LayerCount: 2
Fore
SplineSet
515 -19 m 0xec
 268 -19 165 125 165 406 c 1
 272 406 l 1xf4
 272 173 343 67 521 67 c 0
 714 67 777 201 777 507 c 0
 777 857 693 955 525 955 c 0
 441 955 359 919 291 816 c 1
 202 816 l 1
 202 1658 l 1
 805 1658 l 1
 802 1564 l 1
 295 1564 l 1
 291 920 l 1
 336 983 419 1040 553 1040 c 0
 785 1040 883 860 883 518 c 0
 883 149 769 -19 515 -19 c 0xec
EndSplineSet
EndChar

StartChar: florin
Encoding: 450 402 296
Width: 758
VWidth: 0
Flags: W
HStem: -285 85<-10.329 167.151> 1107 77<216 374 493 679> 1527 85<557.814 735.362>
LayerCount: 2
Fore
SplineSet
86 -285 m 0
 52 -285 10 -280 -20 -271 c 1
 -10 -188 l 1
 16 -194 49 -200 75 -200 c 0
 167 -200 188 -148 208 -19 c 2
 374 1107 l 1
 216 1107 l 1
 216 1184 l 1
 384 1184 l 1
 410 1347 l 1
 429 1496 460 1612 639 1612 c 0
 674 1612 714 1607 746 1598 c 1
 735 1515 l 1
 709 1520 676 1527 650 1527 c 0
 558 1527 537 1475 517 1346 c 2
 493 1184 l 1
 679 1184 l 1
 679 1107 l 1
 483 1107 l 1
 316 -20 l 1
 295 -169 265 -285 86 -285 c 0
EndSplineSet
EndChar

StartChar: foundryicon
Encoding: 451 -1 297
Width: 1481
VWidth: 0
Flags: W
HStem: 1657 20G<728.459 741.955>
LayerCount: 2
Fore
SplineSet
285 272 m 1
 450 803 l 1
 0 1145 l 1
 561 1145 l 1
 735 1677 l 1
 920 1145 l 1
 1481 1145 l 1
 1029 803 l 1
 1195 272 l 1
 735 592 l 1
 285 272 l 1
EndSplineSet
EndChar

StartChar: four
Encoding: 52 52 298
Width: 1009
VWidth: 0
Flags: W
HStem: 0 21G<627 736> 509 102<230 627 736 927> 1638 20G<599.536 736>
VStem: 627 109<0 509 611 1500>
LayerCount: 2
Fore
SplineSet
627 0 m 1
 627 509 l 1
 115 509 l 1
 115 614 l 1
 609 1658 l 1
 736 1658 l 1
 736 611 l 1
 927 611 l 1
 927 509 l 1
 736 509 l 1
 736 0 l 1
 627 0 l 1
230 611 m 1
 627 611 l 1
 627 1500 l 1
 230 611 l 1
EndSplineSet
EndChar

StartChar: fraction
Encoding: 452 8260 299
Width: 429
VWidth: 0
Flags: W
HStem: 0 21G<0 98.041> 1638 20G<332.935 429>
VStem: 0 429
LayerCount: 2
Fore
SplineSet
0 0 m 1
 337 1658 l 1
 429 1658 l 1
 94 0 l 1
 0 0 l 1
EndSplineSet
EndChar

StartChar: g
Encoding: 103 103 300
Width: 878
VWidth: 0
Flags: W
HStem: -401 88<184.498 623.115> 376 80<297.077 548.915> 1123 80<304.433 542.281>
VStem: 30 94<-258.414 -61.9522> 99 93<152 293.202 570.563 1000.87> 650 99<564.606 998.014> 703 91<-240.739 -38.2244>
LayerCount: 2
Fore
SplineSet
414 -401 m 0xea
 165 -401 30 -334 30 -192 c 0xf2
 30 -72 140 30 242 83 c 1
 183 98 99 131 99 173 c 0
 99 253 189 363 246 428 c 1
 128 511 91 647 91 795 c 0
 91 990 187 1203 420 1203 c 0
 566 1203 639 1124 681 1045 c 1
 709 1096 773 1156 841 1183 c 1
 870 1195 l 1
 902 1113 l 1
 830 1095 752 1044 711 993 c 1
 732 941 749 842 749 792 c 0xec
 749 557 656 376 423 376 c 0
 378 376 326 386 297 398 c 1
 264 344 192 254 192 206 c 0
 192 191 233 177 290 165 c 1
 348 149 448 134 484 125 c 1
 677 83 794 13 794 -139 c 0
 794 -325 616 -401 414 -401 c 0xea
413 -313 m 0
 574 -313 703 -263 703 -142 c 0
 703 -55 661 -3 443 43 c 1
 313 65 l 1
 243 25 124 -54 124 -166 c 0
 124 -270 228 -313 413 -313 c 0
423 456 m 0
 626 456 650 664 650 795 c 0xe4
 650 919 611 1123 422 1123 c 0
 232 1123 191 905 191 795 c 0
 191 668 221 456 423 456 c 0
EndSplineSet
EndChar

StartChar: gcommaaccent
Encoding: 455 291 303
Width: 901
VWidth: 0
Flags: W
HStem: -407 75<196.923 606.51> 380 71<305.569 548.938> 1133 71<310.884 541.515> 1499 153<517 591>
VStem: 20 96<-270.287 -64.6386> 81 105<574.587 995.205> 86 83<150.897 285.424> 462 129<1499 1652> 462 55<1652 1767.48> 666 102<571.376 998.374> 712 90<-255.958 -51.1021>
LayerCount: 2
Fore
SplineSet
403 -407 m 0xf220
 156 -407 20 -328 20 -185 c 0xf820
 20 -73 138 31 241 87 c 1
 179 103 86 129 86 174 c 0xf2
 86 254 187 375 238 437 c 1
 116 522 81 664 81 797 c 0
 81 977 181 1204 424 1204 c 0
 571 1204 648 1120 693 1045 c 1
 729 1108 791 1164 853 1189 c 2
 883 1201 l 1
 914 1129 l 1
 840 1110 776 1057 726 997 c 1
 748 945 768 850 768 796 c 0xf440
 768 561 665 380 431 380 c 0
 375 380 330 389 289 407 c 1
 249 346 169 245 169 194 c 0
 169 184 213 170 268 156 c 0
 346 136 420 121 478 108 c 1
 684 57 802 -6 802 -150 c 0
 802 -324 612 -407 403 -407 c 0xf220
462 1499 m 1xf1
 462 1619 l 2xf1
 462 1751 497 1819 585 1872 c 1
 600 1843 l 1
 532 1786 517 1696 517 1652 c 1xf080
 591 1652 l 1
 591 1499 l 1
 462 1499 l 1xf1
403 -332 m 0
 568 -332 711 -281 712 -156 c 0
 712 -154 712 -152 712 -150 c 0
 712 -63 664 -11 436 41 c 1
 321 66 l 1
 242 20 116 -60 116 -176 c 0xf820
 116 -287 237 -332 403 -332 c 0
428 451 m 0
 641 451 666 679 666 799 c 0
 666 913 623 1133 426 1133 c 0
 227 1133 186 891 186 800 c 0xf440
 186 679 215 451 428 451 c 0
EndSplineSet
EndChar

StartChar: germandbls
Encoding: 223 223 305
Width: 958
VWidth: 0
Flags: W
HStem: -22 91<334 568.218> 0 21G<116 225> 881 91<455 595.174> 1612 86<309.444 596.489>
VStem: 116 109<0 1518.75> 690 106<1081.58 1513.62> 775 106<262.969 713.658>
LayerCount: 2
Fore
SplineSet
334 -22 m 1xba
 334 69 l 1
 710 69 775 294 775 486 c 0xba
 775 684 703 881 450 881 c 1
 455 972 l 1
 637 972 690 1123 690 1299 c 0
 690 1503 621 1612 457 1612 c 0
 311 1612 225 1556 225 1252 c 2
 225 0 l 1
 116 0 l 1
 116 1250 l 2
 116 1602 235 1698 453 1698 c 0
 662 1698 796 1568 796 1299 c 0x7c
 796 1102 732 976 597 933 c 1
 814 885 881 689 881 492 c 0
 881 248 788 -22 334 -22 c 1xba
EndSplineSet
Colour: ffff00
EndChar

StartChar: grave
Encoding: 96 96 306
Width: 429
VWidth: 0
Flags: W
HStem: 1261 397
VStem: 103 110<1623.51 1658>
LayerCount: 2
Fore
SplineSet
268 1261 m 1
 103 1658 l 1
 213 1658 l 1
 325 1261 l 1
 268 1261 l 1
EndSplineSet
EndChar

StartChar: gravecomb
Encoding: 457 768 307
Width: 0
VWidth: 0
HStem: 1261 397
VStem: -92 110<1623.51 1658>
LayerCount: 2
Fore
SplineSet
73 1261 m 1
 -92 1658 l 1
 18 1658 l 1
 130 1261 l 1
 73 1261 l 1
EndSplineSet
EndChar

StartChar: greater
Encoding: 62 62 308
Width: 732
VWidth: 0
Flags: W
VStem: 117 557
LayerCount: 2
Fore
SplineSet
117 157 m 1
 117 273 l 1
 588 647 l 1
 117 1005 l 1
 117 1120 l 1
 674 699 l 1
 674 594 l 1
 117 157 l 1
EndSplineSet
EndChar

StartChar: greaterequal
Encoding: 458 8805 309
Width: 707
VWidth: 0
Flags: W
HStem: 0 76<77 644>
VStem: 77 567<203 279>
LayerCount: 2
Fore
SplineSet
77 203 m 1
 77 319 l 1
 547 693 l 1
 77 1051 l 1
 77 1166 l 1
 633 745 l 1
 633 639 l 1
 77 203 l 1
77 0 m 1
 77 76 l 1
 644 76 l 1
 644 0 l 1
 77 0 l 1
EndSplineSet
EndChar

StartChar: guillemotleft
Encoding: 171 171 310
Width: 837
VWidth: 0
Flags: W
VStem: 84 640
LayerCount: 2
Fore
SplineSet
428 232 m 1
 84 658 l 1
 84 701 l 1
 428 1126 l 1
 428 986 l 1
 183 683 l 1
 428 372 l 1
 428 232 l 1
724 232 m 1
 379 658 l 1
 379 701 l 1
 724 1126 l 1
 724 986 l 1
 479 680 l 1
 724 372 l 1
 724 232 l 1
EndSplineSet
EndChar

StartChar: guillemotright
Encoding: 187 187 311
Width: 850
VWidth: 0
Flags: W
VStem: 107 646
LayerCount: 2
Fore
SplineSet
107 232 m 1
 107 372 l 1
 357 678 l 1
 107 986 l 1
 107 1126 l 1
 458 700 l 1
 458 657 l 1
 107 232 l 1
404 232 m 1
 404 372 l 1
 654 675 l 1
 404 986 l 1
 404 1126 l 1
 753 700 l 1
 753 657 l 1
 404 232 l 1
EndSplineSet
EndChar

StartChar: guilsinglleft
Encoding: 459 8249 312
Width: 730
VWidth: 0
Flags: W
VStem: 272 365
LayerCount: 2
Fore
SplineSet
637 232 m 1
 272 658 l 1
 272 701 l 1
 637 1126 l 1
 637 986 l 1
 372 680 l 1
 637 372 l 1
 637 232 l 1
EndSplineSet
EndChar

StartChar: guilsinglright
Encoding: 460 8250 313
Width: 677
VWidth: 0
Flags: W
VStem: 170 365
LayerCount: 2
Fore
SplineSet
170 263 m 1
 170 403 l 1
 435 709 l 1
 170 1017 l 1
 170 1157 l 1
 535 731 l 1
 535 688 l 1
 170 263 l 1
EndSplineSet
EndChar

StartChar: h
Encoding: 104 104 314
Width: 802
VWidth: 0
Flags: W
HStem: 0 21G<117 226 584 694> 1118 85<350.078 551.284> 1638 20G<117 226>
VStem: 117 109<0 1031.32 1058 1658> 584 110<0 1087.82>
LayerCount: 2
Fore
SplineSet
117 0 m 1
 117 1658 l 1
 226 1658 l 1
 226 1058 l 1
 301 1145 399 1203 507 1203 c 0
 613 1203 694 1133 694 944 c 2
 694 0 l 1
 584 0 l 1
 584 932 l 2
 584 1077 536 1118 460 1118 c 0
 380 1118 296 1064 226 988 c 1
 226 0 l 1
 117 0 l 1
EndSplineSet
EndChar

StartChar: hbar
Encoding: 461 295 315
Width: 801
VWidth: 0
Flags: W
HStem: 0 21G<116 225 583 692> 1118 85<348.91 549.92> 1436 70<-18 116 225 467> 1638 20G<116 225>
VStem: 116 109<0 1031.32 1058 1436 1506 1658> 583 109<0 1087.82>
LayerCount: 2
Fore
SplineSet
116 0 m 1
 116 1436 l 1
 -18 1436 l 1
 -18 1506 l 1
 116 1506 l 1
 116 1658 l 1
 225 1658 l 1
 225 1506 l 1
 467 1506 l 1
 467 1436 l 1
 225 1436 l 1
 225 1058 l 1
 300 1145 398 1203 506 1203 c 0
 611 1203 692 1133 692 944 c 2
 692 0 l 1
 583 0 l 1
 583 932 l 2
 583 1077 534 1118 459 1118 c 0
 379 1118 294 1064 225 988 c 1
 225 0 l 1
 116 0 l 1
EndSplineSet
EndChar

StartChar: hungarumlaut
Encoding: 463 733 317
Width: 536
VWidth: 0
Flags: W
HStem: 1366 314
VStem: 223 109<1644.56 1680>
LayerCount: 2
Fore
SplineSet
145 1366 m 1
 223 1680 l 1
 332 1680 l 1
 205 1366 l 1
 145 1366 l 1
326 1366 m 1
 437 1680 l 1
 564 1680 l 1
 389 1366 l 1
 326 1366 l 1
EndSplineSet
EndChar

StartChar: hyphen
Encoding: 45 45 318
Width: 580
VWidth: 0
Flags: W
HStem: 653 90<79 502>
VStem: 79 423<653 743>
LayerCount: 2
Fore
SplineSet
79 653 m 1
 79 743 l 1
 502 743 l 1
 502 653 l 1
 79 653 l 1
EndSplineSet
EndChar

StartChar: i
Encoding: 105 105 319
Width: 388
VWidth: 0
Flags: W
HStem: 0 21G<134 243> 1164 20G<134 243> 1339 189<134 243>
VStem: 134 109<0 1184 1339 1528>
AnchorPoint: "ogonek" 196 0 basechar 0
LayerCount: 2
Fore
SplineSet
134 0 m 1
 134 1184 l 1
 243 1184 l 1
 243 0 l 1
 134 0 l 1
134 1339 m 1
 134 1528 l 1
 243 1528 l 1
 243 1339 l 1
 134 1339 l 1
EndSplineSet
EndChar

StartChar: infinity
Encoding: 467 8734 327
Width: 1233
VWidth: 0
Flags: W
HStem: 464 92<172.634 413.188 832.831 1054.06> 913 92<172.634 413.188 832.831 1059.77>
VStem: 44 83<602.614 868.672> 1107 82<611.499 857.937>
LayerCount: 2
Fore
SplineSet
293 464 m 0
 127 464 44 572 44 734 c 0
 44 896 127 1005 293 1005 c 0
 414 1005 500 937 622 805 c 1
 743 932 821 1001 939 1001 c 0
 940 1001 941 1001 942 1001 c 0
 1103 999 1189 896 1189 735 c 0
 1188 573 1103 470 942 468 c 0
 941 468 940 468 939 468 c 0
 821 468 743 537 622 664 c 1
 500 532 414 464 293 464 c 0
288 556 m 0
 379 556 444 613 558 735 c 1
 444 856 379 913 288 913 c 0
 286 913 285 913 283 913 c 0
 179 913 127 847 127 734 c 0
 127 621 179 556 283 556 c 0
 285 556 286 556 288 556 c 0
948 561 m 0
 949 561 949 561 950 561 c 0
 1054 561 1107 633 1107 735 c 0
 1107 837 1054 908 950 908 c 0
 949 908 949 908 948 908 c 0
 861 908 799 855 687 735 c 1
 799 614 861 561 948 561 c 0
EndSplineSet
EndChar

StartChar: integral
Encoding: 468 8747 328
Width: 547
VWidth: 0
Flags: W
HStem: -389 85<10 181.55> 1595 85<328.766 503>
VStem: 203 107<-288.726 1579.73>
LayerCount: 2
Fore
SplineSet
119 -389 m 0
 84 -389 43 -384 10 -375 c 1
 10 -292 l 1
 37 -298 71 -304 97 -304 c 0
 189 -304 203 -252 203 -123 c 2
 203 1415 l 2
 203 1564 216 1680 395 1680 c 0
 429 1680 470 1675 503 1666 c 1
 503 1583 l 1
 476 1588 443 1595 417 1595 c 0
 324 1595 310 1543 310 1414 c 2
 310 -124 l 2
 310 -273 298 -389 119 -389 c 0
EndSplineSet
EndChar

StartChar: j
Encoding: 106 106 331
Width: 414
VWidth: 0
Flags: W
HStem: -317 89<-32 133.909> 1164 20G<165 274> 1339 189<165 275>
VStem: 165 109<-196.586 1184 1339 1528>
LayerCount: 2
Fore
SplineSet
-32 -313 m 1
 -32 -226 l 1
 -28 -227 11 -228 16 -228 c 0
 159 -228 165 -138 165 -51 c 2
 165 1184 l 1
 274 1184 l 1
 274 -58 l 2
 274 -248 182 -317 29 -317 c 0
 19 -317 -24 -316 -32 -313 c 1
165 1339 m 1
 165 1528 l 1
 275 1528 l 1
 275 1339 l 1
 165 1339 l 1
EndSplineSet
EndChar

StartChar: k
Encoding: 107 107 333
Width: 785
VWidth: 0
Flags: W
HStem: 1 21G<117 226 648.012 765> 1164 20G<650.793 783> 1639 20G<117 226>
VStem: 117 109<1 444 566 1659>
LayerCount: 2
Fore
SplineSet
117 1 m 1
 117 1659 l 1
 226 1659 l 1
 226 566 l 1
 665 1184 l 1
 783 1184 l 1
 472 731 l 1
 765 0 l 1
 656 0 l 1
 390 666 l 1
 226 444 l 1
 226 1 l 1
 117 1 l 1
EndSplineSet
EndChar

StartChar: kgreenlandic
Encoding: 473 312 335
Width: 841
VWidth: 0
Flags: W
HStem: 0 21G<131 240 655.451 775> 1164 20G<131 240 638.688 769>
VStem: 131 109<0 439 565 1184>
LayerCount: 2
Fore
SplineSet
131 0 m 1
 131 1184 l 1
 240 1184 l 1
 240 565 l 1
 652 1184 l 1
 769 1184 l 1
 464 721 l 1
 775 0 l 1
 664 0 l 1
 387 648 l 1
 240 439 l 1
 240 0 l 1
 131 0 l 1
EndSplineSet
EndChar

StartChar: l
Encoding: 108 108 336
Width: 380
VWidth: 0
Flags: W
HStem: 0 21G<137 246> 1638 20G<137 246>
VStem: 137 109<0 1658>
LayerCount: 2
Fore
SplineSet
137 0 m 1
 137 1658 l 1
 246 1658 l 1
 246 0 l 1
 137 0 l 1
EndSplineSet
EndChar

StartChar: less
Encoding: 60 60 341
Width: 732
VWidth: 0
Flags: W
VStem: 59 556
LayerCount: 2
Fore
SplineSet
615 157 m 1
 59 577 l 1
 59 683 l 1
 615 1120 l 1
 615 1003 l 1
 145 630 l 1
 615 272 l 1
 615 157 l 1
EndSplineSet
EndChar

StartChar: lessequal
Encoding: 478 8804 342
Width: 741
VWidth: 0
Flags: W
HStem: 0 76<62 629>
VStem: 65 564<619 695>
LayerCount: 2
Fore
SplineSet
621 199 m 1
 65 619 l 1
 65 725 l 1
 621 1162 l 1
 621 1045 l 1
 151 672 l 1
 621 313 l 1
 621 199 l 1
62 0 m 1
 62 76 l 1
 629 76 l 1
 629 0 l 1
 62 0 l 1
EndSplineSet
EndChar

StartChar: logicalnot
Encoding: 172 172 343
Width: 715
VWidth: 0
Flags: W
HStem: 812 90<84 577>
VStem: 577 77<582 812>
LayerCount: 2
Fore
SplineSet
577 582 m 1
 577 812 l 1
 84 812 l 1
 84 902 l 1
 654 902 l 1
 654 582 l 1
 577 582 l 1
EndSplineSet
EndChar

StartChar: lozenge
Encoding: 479 9674 344
Width: 845
VWidth: 0
Flags: W
HStem: 0 21G<384.493 474.034> 1164 20G<370.966 460.507>
VStem: 84 677
LayerCount: 2
Fore
SplineSet
395 0 m 1
 84 592 l 1
 381 1184 l 1
 450 1184 l 1
 761 592 l 1
 464 0 l 1
 395 0 l 1
428 78 m 1
 675 592 l 1
 417 1102 l 1
 172 592 l 1
 428 78 l 1
EndSplineSet
EndChar

StartChar: lslash
Encoding: 480 322 345
Width: 505
VWidth: 0
Flags: W
HStem: 0 21G<198 307> 1638 20G<198 307>
VStem: 198 109<0 943 1093 1658>
LayerCount: 2
Fore
SplineSet
198 0 m 1
 198 943 l 1
 72 873 l 1
 72 968 l 1
 198 1037 l 1
 198 1658 l 1
 307 1658 l 1
 307 1093 l 1
 431 1162 l 1
 431 1068 l 1
 307 999 l 1
 307 0 l 1
 198 0 l 1
EndSplineSet
EndChar

StartChar: m
Encoding: 109 109 346
Width: 1275
VWidth: 0
Flags: W
HStem: 0 21G<116 220 589 694 1062 1167> 1127 77<348.585 552.206 822.257 1025.55> 1164 20G<116 220>
VStem: 116 104<0 1033.09 1059 1184> 589 105<0 987.249> 1062 105<0 1097.72>
LayerCount: 2
Fore
SplineSet
116 0 m 1xdc
 116 1184 l 1
 220 1184 l 1xbc
 220 1059 l 1
 295 1151 394 1204 498 1204 c 0
 575 1204 654 1170 682 1046 c 1
 759 1146 862 1204 971 1204 c 0
 1069 1204 1167 1148 1167 936 c 2
 1167 0 l 1
 1062 0 l 1
 1062 939 l 2
 1062 1092 1007 1127 936 1127 c 0
 852 1127 763 1071 691 988 c 1
 693 972 694 955 694 936 c 2
 694 0 l 1
 589 0 l 1
 589 939 l 2
 589 1092 534 1127 463 1127 c 0
 380 1127 292 1072 220 990 c 1
 220 0 l 1
 116 0 l 1xdc
EndSplineSet
EndChar

StartChar: macron
Encoding: 175 175 347
Width: 758
VWidth: 0
Flags: W
HStem: 1583 75<209 559>
VStem: 209 350<1583 1658>
LayerCount: 2
Fore
SplineSet
209 1583 m 1
 209 1658 l 1
 559 1658 l 1
 559 1583 l 1
 209 1583 l 1
EndSplineSet
EndChar

StartChar: minus
Encoding: 481 8722 348
Width: 706
VWidth: 0
Flags: W
HStem: 739 76<69 637>
VStem: 69 568<739 815>
LayerCount: 2
Fore
SplineSet
69 739 m 1
 69 815 l 1
 637 815 l 1
 637 739 l 1
 69 739 l 1
EndSplineSet
EndChar

StartChar: mu
Encoding: 181 181 349
Width: 835
VWidth: 0
Flags: W
HStem: -353 21G<106 216> -16 82<248.469 449.432> 0 21G<583 691> 1164 20G<106 215 583 691>
VStem: 106 109<-353 17 92.6217 1184> 583 108<0 139 164.074 1184>
LayerCount: 2
Fore
SplineSet
106 -353 m 1xdc
 106 1184 l 1
 215 1184 l 1
 215 252 l 2
 215 107 264 66 339 66 c 0xdc
 423 66 512 125 583 208 c 1
 583 1184 l 1
 691 1184 l 1
 691 0 l 1
 583 0 l 1xbc
 583 139 l 1
 513 49 418 -10 316 -16 c 1
 281 -16 245 -9 216 17 c 1
 216 -353 l 1
 106 -353 l 1xdc
EndSplineSet
EndChar

StartChar: multiply
Encoding: 215 215 350
Width: 687
VWidth: 0
Flags: W
HStem: 525 540
VStem: 73 541
LayerCount: 2
Fore
SplineSet
131 525 m 1
 73 583 l 1
 285 796 l 1
 73 1009 l 1
 131 1065 l 1
 344 854 l 1
 556 1065 l 1
 614 1009 l 1
 402 796 l 1
 614 583 l 1
 556 525 l 1
 344 738 l 1
 131 525 l 1
EndSplineSet
EndChar

StartChar: n
Encoding: 110 110 351
Width: 801
VWidth: 0
Flags: W
HStem: 0 21G<116 225 583 692> 1118 85<348.91 549.92> 1164 20G<116 225>
VStem: 116 109<0 1030.82 1057 1184> 583 109<0 1087.82>
LayerCount: 2
Fore
SplineSet
116 0 m 1xd8
 116 1184 l 1
 225 1184 l 1xb8
 225 1057 l 1
 300 1145 398 1203 506 1203 c 0
 611 1203 692 1133 692 944 c 2
 692 0 l 1
 583 0 l 1
 583 932 l 2
 583 1077 534 1118 459 1118 c 0
 379 1118 294 1064 225 987 c 1
 225 0 l 1
 116 0 l 1xd8
EndSplineSet
EndChar

StartChar: nine
Encoding: 57 57 356
Width: 1008
VWidth: 0
Flags: W
HStem: -22 90<345.277 666.23> 689 87<333.299 694.5> 1585 92<349.638 659.749>
VStem: 124 113<883.236 1460.73> 155 105<161.726 389> 766 109<182.308 776 830.756 1457.89>
CounterMasks: 1 e0
LayerCount: 2
Fore
SplineSet
516 -22 m 0xf4
 271 -22 156 100 155 352 c 0
 155 354 155 388 155 389 c 1
 260 389 l 1xec
 260 146 326 68 519 68 c 0
 669 68 766 144 766 427 c 2
 766 776 l 1
 725 741 631 689 484 689 c 0
 214 689 124 814 124 1193 c 0
 124 1500 234 1677 510 1677 c 0
 771 1677 875 1505 875 1172 c 2
 875 448 l 2
 875 155 777 -22 516 -22 c 0xf4
507 776 m 0
 635 776 723 826 766 860 c 1
 766 1170 l 2
 766 1496 679 1585 510 1585 c 0
 336 1585 237 1494 237 1207 c 0xf4
 237 891 273 776 507 776 c 0
EndSplineSet
EndChar

StartChar: notequal
Encoding: 486 8800 357
Width: 831
VWidth: 0
Flags: W
HStem: 0 21G<139 242.864> 590 92<100 313 436 701> 923 91<100 410 534 701> 1638 20G<620.099 724>
VStem: 100 624
LayerCount: 2
Fore
SplineSet
139 0 m 1
 313 590 l 1
 100 590 l 1
 100 682 l 1
 339 682 l 1
 410 923 l 1
 100 923 l 1
 100 1014 l 1
 436 1014 l 1
 626 1658 l 1
 724 1658 l 1
 534 1014 l 1
 701 1014 l 1
 701 923 l 1
 508 923 l 1
 436 682 l 1
 701 682 l 1
 701 590 l 1
 410 590 l 1
 237 0 l 1
 139 0 l 1
EndSplineSet
EndChar

StartChar: numbersign
Encoding: 35 35 359
Width: 928
VWidth: 0
Flags: W
HStem: 0 21G<131 237.205 448 554.205> 599 79<96 226 342 544 659 807> 1022 79<133 295 411 612 728 845> 1638 20G<393.804 500 710.804 817>
CounterMasks: 1 e0
LayerCount: 2
Fore
SplineSet
131 0 m 1
 226 599 l 1
 96 599 l 1
 96 678 l 1
 239 678 l 1
 295 1022 l 1
 133 1022 l 1
 133 1101 l 1
 308 1101 l 1
 397 1658 l 1
 500 1658 l 1
 411 1101 l 1
 625 1101 l 1
 714 1658 l 1
 817 1658 l 1
 728 1101 l 1
 845 1101 l 1
 845 1022 l 1
 716 1022 l 1
 659 678 l 1
 807 678 l 1
 807 599 l 1
 647 599 l 1
 551 0 l 1
 448 0 l 1
 544 599 l 1
 330 599 l 1
 234 0 l 1
 131 0 l 1
342 678 m 1
 556 678 l 1
 612 1022 l 1
 398 1022 l 1
 342 678 l 1
EndSplineSet
EndChar

StartChar: o
Encoding: 111 111 360
Width: 784
VWidth: 0
Flags: W
HStem: -19 82<274.406 509.594> 1121 82<274.406 509.594>
VStem: 94 109<133.288 1049.44> 581 109<133.288 1050.29>
AnchorPoint: "ogonek" 421 0 basechar 0
LayerCount: 2
Fore
SplineSet
392 63 m 0
 564 63 581 200 581 428 c 2
 581 756 l 2
 581 983 564 1121 392 1121 c 0
 220 1121 203 983 203 756 c 2
 203 428 l 2
 203 200 220 63 392 63 c 0
392 -19 m 0
 156 -19 94 135 94 432 c 2
 94 752 l 2
 94 1046 156 1203 392 1203 c 0
 628 1203 690 1048 690 752 c 2
 690 432 l 2
 690 135 628 -19 392 -19 c 0
EndSplineSet
EndChar

StartChar: oe
Encoding: 488 339 365
Width: 1284
VWidth: 0
Flags: W
HStem: -19 87<276.525 525.286 781.021 1020.83> 621 63<700 1079> 1116 87<276.525 524.697 772.429 1012.14>
VStem: 102 109<140.932 1041.78> 591 109<176.401 621 684 1017.58> 1079 108<125.544 400 684 1040.96>
LayerCount: 2
Fore
SplineSet
400 -19 m 0
 165 -19 102 134 102 431 c 2
 102 753 l 2
 102 1047 165 1203 400 1203 c 0
 534 1203 616 1137 646 1020 c 1
 689 1165 787 1203 897 1203 c 0
 1113 1203 1188 1074 1188 735 c 1
 1186 621 l 1
 700 621 l 1
 700 457 l 2
 700 173 755 71 892 68 c 0
 895 68 897 68 900 68 c 0
 981 68 1079 86 1079 310 c 2
 1079 400 l 1
 1187 400 l 1
 1187 312 l 2
 1187 111 1115 -19 899 -19 c 0
 897 -19 894 -19 892 -19 c 0
 783 -18 685 30 647 175 c 1
 617 46 536 -19 400 -19 c 0
400 68 m 0
 573 68 591 204 591 431 c 2
 591 753 l 2
 591 980 573 1116 400 1116 c 0
 228 1116 211 980 211 753 c 2
 211 431 l 2
 211 204 228 68 400 68 c 0
700 684 m 1
 1079 684 l 1
 1079 756 l 2
 1079 962 1064 1116 895 1116 c 0
 758 1116 700 1029 700 766 c 2
 700 684 l 1
EndSplineSet
EndChar

StartChar: ogonek
Encoding: 489 731 366
Width: 449
VWidth: 0
Flags: W
HStem: -407 62<209.518 329>
VStem: 78 85<-311.122 -116.34>
AnchorPoint: "ogonek" 271 0 mark 0
LayerCount: 2
Fore
SplineSet
329 -407 m 1
 162 -407 78 -351 78 -244 c 0
 78 -147 151 -43 240 4 c 1
 302 4 l 1
 223 -75 163 -164 163 -235 c 0
 163 -316 250 -345 348 -345 c 1
 329 -407 l 1
EndSplineSet
EndChar

StartChar: one
Encoding: 49 49 370
Width: 825
VWidth: 0
Flags: W
HStem: 0 21G<427 536> 1372 94<189 283.078> 1638 20G<409 536>
VStem: 427 109<0 1510>
LayerCount: 2
Fore
SplineSet
427 0 m 1
 427 1510 l 1
 377 1437 232 1385 189 1372 c 1
 189 1466 l 1
 261 1486 375 1561 443 1658 c 1
 536 1658 l 1
 536 0 l 1
 427 0 l 1
EndSplineSet
EndChar

StartChar: onehalf
Encoding: 189 189 371
Width: 1542
VWidth: 0
Flags: W
HStem: -1 75<1099 1433> 880 74<1128.16 1321.07> 1638 20G<294 365 978.871 1084>
VStem: 276 89<590 1530> 998 87<685 840.97> 1361 97<545.557 848.299>
LayerCount: 2
Fore
SplineSet
996 -1 m 1
 996 72 l 1
 1245 438 l 2
 1304 525 1361 587 1361 705 c 0
 1361 814 1325 880 1230 880 c 0
 1120 880 1085 811 1085 685 c 1
 998 685 l 1
 998 687 998 699 998 700 c 0
 999 873 1075 954 1230 954 c 0
 1370 954 1458 870 1458 710 c 0
 1458 593 1399 498 1319 389 c 1
 1308 377 1107 85 1099 74 c 1
 1433 74 l 1
 1433 -1 l 1
 996 -1 l 1
276 590 m 1
 276 1530 l 1
 123 1453 l 1
 123 1532 l 1
 182 1561 281 1629 307 1658 c 1
 365 1658 l 1
 365 590 l 1
 276 590 l 1
395 0 m 1
 986 1658 l 1
 1084 1658 l 1
 494 0 l 1
 395 0 l 1
EndSplineSet
EndChar

StartChar: onequarter
Encoding: 188 188 372
Width: 1542
VWidth: 0
Flags: W
HStem: 0 7G<392 498.117 1242 1336> 285 73<1007 1242 1336 1466> 1638 20G<281 352 975.871 1081>
VStem: 263 89<590 1530> 1242 94<-14 285 358 915>
LayerCount: 2
Fore
SplineSet
1242 -14 m 1
 1242 285 l 1
 923 285 l 1
 923 355 l 1
 1241 1061 l 1
 1336 1061 l 1
 1336 358 l 1
 1466 358 l 1
 1466 285 l 1
 1336 285 l 1
 1336 -14 l 1
 1242 -14 l 1
263 590 m 1
 263 1530 l 1
 110 1453 l 1
 110 1532 l 1
 169 1561 268 1629 294 1658 c 1
 352 1658 l 1
 352 590 l 1
 263 590 l 1
392 0 m 1
 983 1658 l 1
 1081 1658 l 1
 491 0 l 1
 392 0 l 1
1007 358 m 1
 1242 358 l 1
 1242 915 l 1
 1007 358 l 1
EndSplineSet
EndChar

StartChar: onesuperior
Encoding: 185 185 373
Width: 800
VWidth: 0
Flags: W
VStem: 400 92<721 1647>
LayerCount: 2
Fore
SplineSet
400 721 m 1
 399 1647 l 1
 364 1597 266 1565 217 1554 c 1
 217 1626 l 1
 275 1646 349 1679 410 1768 c 1
 491 1768 l 1
 492 721 l 1
 400 721 l 1
EndSplineSet
EndChar

StartChar: ordfeminine
Encoding: 170 170 374
Width: 803
VWidth: 0
Flags: W
HStem: 719 75<277.312 483.204> 1607 73<315.479 520.192>
VStem: 145 95<823.564 1059.34> 174 90<1424 1560.48> 568 95<733 852 863.362 1218 1260.03 1568.95>
LayerCount: 2
Fore
SplineSet
354 719 m 0xd8
 228 719 145 798 145 921 c 0xe8
 145 1077 220 1132 568 1273 c 1
 568 1351 l 2
 568 1546 530 1607 429 1607 c 0
 346 1607 264 1573 264 1422 c 1
 174 1424 l 1
 178 1598 267 1680 429 1680 c 0
 610 1680 663 1576 663 1342 c 2
 663 733 l 1
 581 733 l 1
 573 852 l 1
 537 775 451 719 354 719 c 0xd8
374 794 m 0
 464 794 528 853 568 927 c 1
 568 1218 l 1
 312 1101 240 1070 240 931 c 0
 240 826 312 794 374 794 c 0
EndSplineSet
EndChar

StartChar: ordmasculine
Encoding: 186 186 375
Width: 803
VWidth: 0
Flags: W
HStem: 718 69<286.507 514.575> 1611 69<284.973 516.132>
VStem: 131 85<850.854 1547.85> 584 88<846.174 1552.51>
LayerCount: 2
Fore
SplineSet
401 718 m 0
 184 718 131 840 131 1018 c 2
 131 1381 l 2
 131 1559 192 1680 401 1680 c 0
 608 1680 672 1556 672 1381 c 2
 672 1018 l 2
 672 843 617 718 401 718 c 0
400 787 m 0
 547 787 584 884 584 1020 c 2
 584 1379 l 2
 584 1514 546 1611 400 1611 c 0
 256 1611 216 1514 216 1379 c 2
 216 1020 l 2
 216 884 254 787 400 787 c 0
EndSplineSet
EndChar

StartChar: oslash
Encoding: 248 248 376
Width: 784
VWidth: 0
Flags: W
HStem: -19 82<270.888 509.594> 1121 82<276.863 512.574>
VStem: 94 109<177.92 1049.44> 581 109<133.288 959.704>
LayerCount: 2
UndoRedoHistory
Layer: 1
Undoes
EndUndoes
Redoes
EndRedoes
EndUndoRedoHistory
Fore
SplineSet
160 -134 m 1
 119 -118 l 1
 183.417337978 56.0743331619 l 1
 115.944446534 129.224894301 94 255.305545099 94 432 c 2
 94 752 l 2
 94 1046 156 1203 392 1203 c 0
 477.5920723 1203 540.2969625 1182.61199296 585.457639395 1142.50384997 c 1
 643 1298 l 1
 687 1281 l 1
 620.532140935 1102.53316779 l 1
 672.461137028 1026.97982005 690 909.433294535 690 752 c 2
 690 432 l 2
 690 135 628 -19 392 -19 c 0
 318.793132861 -19 262.329096428 -4.18163259436 219.264882213 25.1267710263 c 1
 160 -134 l 1
392 63 m 0
 564 63 581 200 581 428 c 2
 581 756 l 2
 581 836.789638046 578.84668021 906.30601366 568.318921726 962.340178829 c 1
 254.850994678 120.675820624 l 1
 283.006969252 83.0860651543 326.140929521 63 392 63 c 0
227.426339786 174.999422018 m 1
 545.79643233 1035.3277637 l 1
 519.053893077 1090.76779576 472.505177183 1121 392 1121 c 0
 220 1121 203 983 203 756 c 2
 203 428 l 2
 203 322.777925015 206.62070341 236.937262404 227.426339786 174.999422018 c 1
EndSplineSet
EndChar

StartChar: p
Encoding: 112 112 378
Width: 819
VWidth: 0
Flags: W
HStem: -390 21G<117 226> -19 85<307.817 538.924> 1118 85<311.248 544.131> 1164 20G<117 226>
VStem: 117 109<-390 98 130.295 1049.26 1083 1184> 612 108<152.799 1044.96>
LayerCount: 2
Fore
SplineSet
117 -390 m 1xec
 117 1184 l 1
 226 1184 l 1xdc
 226 1083 l 1
 270 1140 344 1203 453 1203 c 0
 672 1203 720 1011 720 714 c 2
 720 487 l 2
 720 156 656 -19 443 -19 c 0
 340 -19 269 45 226 98 c 1
 226 -390 l 1
 117 -390 l 1xec
430 66 m 0
 578 66 612 195 612 484 c 2
 612 715 l 2
 612 997 584 1118 431 1118 c 0xec
 342 1118 268 1054 226 1008 c 1
 226 173 l 1
 273 117 344 66 430 66 c 0
EndSplineSet
EndChar

StartChar: paragraph
Encoding: 182 182 379
Width: 984
VWidth: 0
Flags: W
HStem: 1585 73<494 748>
VStem: 55 439<1229.51 1533.06> 412 82<-192 1103> 748 82<-192 1585>
LayerCount: 2
Fore
SplineSet
412 -192 m 1xb0
 412 1103 l 1xb0
 410 1103 407 1103 405 1103 c 0
 188 1103 55 1200 55 1378 c 0xd0
 55 1542 158 1658 409 1658 c 2
 830 1658 l 1
 830 -192 l 1
 748 -192 l 1
 748 1585 l 1
 494 1585 l 1
 494 -192 l 1
 412 -192 l 1xb0
EndSplineSet
EndChar

StartChar: parenleft
Encoding: 40 40 380
Width: 545
VWidth: 0
Flags: W
HStem: -302 78<402.838 482> 1590 79<402.838 482>
VStem: 167 108<237.767 1111.6>
LayerCount: 2
Fore
SplineSet
482 -302 m 1
 173 -273 167 134 167 683 c 0
 167 1236 173 1654 482 1669 c 1
 482 1590 l 1
 278 1561 275 1201 275 724 c 0
 275 710 275 697 275 683 c 0
 275 665 275 647 275 629 c 0
 275 157 279 -195 482 -224 c 1
 482 -302 l 1
EndSplineSet
EndChar

StartChar: parenright
Encoding: 41 41 381
Width: 522
VWidth: 0
Flags: W
HStem: -302 78<63 142.162> 1590 79<63 142.162>
VStem: 270 108<238.555 1112.4>
LayerCount: 2
Fore
SplineSet
63 -302 m 1
 63 -224 l 1
 267 -195 270 165 270 643 c 0
 270 657 270 670 270 684 c 0
 270 698 270 711 270 725 c 0
 270 1203 267 1562 63 1590 c 1
 63 1669 l 1
 372 1654 378 1237 378 684 c 0
 378 135 372 -273 63 -302 c 1
EndSplineSet
EndChar

StartChar: partialdiff
Encoding: 492 8706 382
Width: 865
VWidth: 0
Flags: W
HStem: -22 83<281.236 532.974> 1039 83<309.417 564.657> 1609 76<299 465.875>
VStem: 107 102<135.661 624.66> 681 92<877.475 1419.93>
CounterMasks: 1 e0
LayerCount: 2
Fore
SplineSet
404 -22 m 1
 209 -17 107 98 107 371 c 0
 107 403 108 435 110 470 c 2
 125 675 l 1
 144 993 222 1122 427 1122 c 1
 549 1121 630 1050 670 1000 c 1
 672 1010 681 1167 681 1189 c 0
 681 1504 527 1592 272 1609 c 1
 299 1685 l 1
 519 1685 773 1593 773 1173 c 0
 773 1150 726 353 726 353 c 1
 705 68 565 -22 404 -22 c 1
408 61 m 0
 530 61 607 137 622 329 c 1
 661 923 l 1
 608 974 526 1039 434 1039 c 0
 280 1039 243 946 227 667 c 1
 212 459 l 2
 209 421 209 386 209 353 c 0
 209 147 269 61 408 61 c 0
EndSplineSet
EndChar

StartChar: percent
Encoding: 37 37 383
Width: 1302
VWidth: 0
Flags: W
HStem: -13 85<927.301 1086.5> 746 85<927.858 1085.75> 855 85<216.116 375.264> 1614 85<216.655 374.707> 1660 20G<880.25 986>
VStem: 87 99<964.1 1589.13> 406 98<967.724 1589.31> 798 99<96.0998 721.13> 1117 99<99.7243 721.311>
CounterMasks: 1 c8
LayerCount: 2
Fore
SplineSet
296 940 m 0xf780
 379 940 406 1014 406 1128 c 2
 406 1430 l 2
 406 1540 379 1614 296 1614 c 0
 211 1614 186 1539 186 1429 c 2
 186 1128 l 2
 186 1013 212 940 296 940 c 0xf780
296 855 m 0
 137 855 87 973 87 1134 c 2
 87 1425 l 2
 87 1589 141 1699 296 1699 c 0
 450 1699 504 1590 504 1428 c 2
 504 1132 l 2
 504 970 453 855 296 855 c 0
1007 72 m 0
 1090 72 1117 146 1117 260 c 2
 1117 562 l 2
 1117 672 1090 746 1007 746 c 0
 923 746 897 671 897 561 c 2
 897 260 l 2
 897 145 923 72 1007 72 c 0
1007 -13 m 0
 849 -13 798 105 798 266 c 2
 798 557 l 2
 798 721 852 831 1007 831 c 0
 1161 831 1216 722 1216 560 c 2
 1216 264 l 2
 1216 102 1165 -13 1007 -13 c 0
320 0 m 1
 887 1680 l 1
 986 1680 l 1xef80
 421 0 l 1
 320 0 l 1
EndSplineSet
EndChar

StartChar: period
Encoding: 46 46 384
Width: 363
VWidth: 0
Flags: W
HStem: 0 213<135 257>
VStem: 135 122<0 213>
LayerCount: 2
Fore
SplineSet
135 0 m 1
 135 213 l 1
 257 213 l 1
 257 0 l 1
 135 0 l 1
EndSplineSet
EndChar

StartChar: periodcentered
Encoding: 183 183 385
Width: 399
VWidth: 0
Flags: W
HStem: 697 153<166 278>
VStem: 166 112<697 850>
LayerCount: 2
Fore
SplineSet
166 697 m 1
 166 850 l 1
 278 850 l 1
 278 697 l 1
 166 697 l 1
EndSplineSet
EndChar

StartChar: perthousand
Encoding: 494 8240 386
Width: 1858
VWidth: 0
Flags: W
HStem: -13 85<942.116 1101.45 1467.77 1626.7> 746 85<942.655 1100.71 1469.01 1625.23> 855 85<230.766 389.699> 1614 85<231.119 389.142> 1660 20G<894.25 1001>
VStem: 102 99<964.1 1589.13> 420 99<967.724 1590.24> 813 99<96.0998 721.13> 1132 98<99.7243 721.311> 1339 99<95.0998 720.13> 1657 99<98.7243 721.244>
CounterMasks: 1 01e0
LayerCount: 2
Fore
SplineSet
310 940 m 0xf7e0
 394 940 420 1014 420 1128 c 2
 420 1430 l 2
 420 1540 394 1614 310 1614 c 0
 226 1614 201 1539 201 1429 c 2
 201 1128 l 2
 201 1013 227 940 310 940 c 0xf7e0
310 855 m 0
 152 855 102 973 102 1134 c 2
 102 1425 l 2
 102 1589 155 1699 310 1699 c 0
 465 1699 519 1590 519 1428 c 2
 519 1132 l 2
 519 970 468 855 310 855 c 0
1022 72 m 0
 1105 72 1132 146 1132 260 c 2
 1132 562 l 2
 1132 672 1105 746 1022 746 c 0
 937 746 912 671 912 561 c 2
 912 260 l 2
 912 145 938 72 1022 72 c 0
1022 -13 m 0
 863 -13 813 105 813 266 c 2
 813 557 l 2
 813 721 867 831 1022 831 c 0
 1176 831 1230 722 1230 560 c 2
 1230 264 l 2
 1230 102 1180 -13 1022 -13 c 0
1547 71 m 0
 1631 71 1657 145 1657 260 c 2
 1657 562 l 2
 1657 671 1631 745 1547 745 c 0
 1463 745 1438 670 1438 560 c 2
 1438 259 l 2
 1438 144 1464 71 1547 71 c 0
1547 -14 m 0
 1389 -14 1339 104 1339 265 c 2
 1339 556 l 2
 1339 720 1392 830 1547 830 c 0
 1702 830 1756 721 1756 559 c 2
 1756 263 l 2
 1756 101 1705 -14 1547 -14 c 0
334 0 m 1
 901 1680 l 1
 1001 1680 l 1xefe0
 435 0 l 1
 334 0 l 1
EndSplineSet
EndChar

StartChar: pi
Encoding: 495 960 387
Width: 883
VWidth: 0
Flags: W
HStem: -5 91<702.441 798> 1099 85<29 152 261 574 683 823>
VStem: 152 109<0 1099> 574 109<104.326 1099>
LayerCount: 2
Fore
SplineSet
261 1099 m 1
 261 0 l 1
 152 0 l 1
 152 1099 l 1
 29 1099 l 1
 29 1184 l 1
 823 1184 l 1
 823 1099 l 1
 683 1099 l 1
 683 305 l 2
 683 130 691 86 812 86 c 1
 798 -5 l 1
 613 -5 574 81 574 288 c 2
 574 1099 l 1
 261 1099 l 1
EndSplineSet
EndChar

StartChar: plus
Encoding: 43 43 388
Width: 745
VWidth: 0
Flags: W
HStem: 810 82<46 329 414 699>
VStem: 329 85<492 810 892 1205>
LayerCount: 2
Fore
SplineSet
329 492 m 1
 329 810 l 1
 46 810 l 1
 46 892 l 1
 329 892 l 1
 329 1205 l 1
 414 1205 l 1
 414 892 l 1
 699 892 l 1
 699 810 l 1
 414 810 l 1
 414 492 l 1
 329 492 l 1
EndSplineSet
EndChar

StartChar: plusminus
Encoding: 177 177 389
Width: 659
VWidth: 0
Flags: W
HStem: 0 98<100 578> 563 98<100 288 390 578>
VStem: 288 102<375 563 661 848>
LayerCount: 2
Fore
SplineSet
288 375 m 1
 288 563 l 1
 100 563 l 1
 100 661 l 1
 288 661 l 1
 288 848 l 1
 390 848 l 1
 390 661 l 1
 578 661 l 1
 578 563 l 1
 390 563 l 1
 390 375 l 1
 288 375 l 1
100 0 m 1
 100 98 l 1
 578 98 l 1
 578 0 l 1
 100 0 l 1
EndSplineSet
EndChar

StartChar: product
Encoding: 496 8719 390
Width: 1148
VWidth: 0
Flags: W
HStem: -390 21G<152 261 887 997> 1573 85<261 887>
VStem: 152 109<-390 1573> 887 110<-390 1573>
LayerCount: 2
Fore
SplineSet
152 -390 m 1
 152 1658 l 1
 997 1658 l 1
 997 -390 l 1
 887 -390 l 1
 887 1573 l 1
 261 1573 l 1
 261 -390 l 1
 152 -390 l 1
EndSplineSet
EndChar

StartChar: q
Encoding: 113 113 391
Width: 812
VWidth: 0
Flags: W
HStem: -390 21G<588 697> -19 85<281.578 513.177> 1118 85<275.036 510.728> 1164 20G<588 697>
VStem: 99 109<149.007 1041.1> 588 109<-390 91 125.77 1053.67 1092 1184>
LayerCount: 2
Fore
SplineSet
588 -390 m 1xdc
 588 91 l 1
 545 39 475 -19 377 -19 c 0
 173 -19 99 126 99 486 c 2
 99 697 l 2
 99 1030 155 1203 372 1203 c 1xec
 472 1202 544 1146 588 1092 c 1
 588 1184 l 1
 697 1184 l 1
 697 -390 l 1
 588 -390 l 1xdc
393 66 m 0
 471 66 539 112 588 167 c 1
 588 1014 l 1
 545 1059 474 1118 389 1118 c 0
 238 1118 208 1000 208 723 c 2
 208 477 l 2
 208 190 244 66 393 66 c 0
EndSplineSet
EndChar

StartChar: question
Encoding: 63 63 392
Width: 955
VWidth: 0
Flags: W
HStem: 1 149<366 473> 1584 95<304.69 619.77>
VStem: 122 103<1270.39 1508.49> 370 95<1 150 410 654.459> 747 104<1018.47 1444.71>
LayerCount: 2
Fore
SplineSet
370 410 m 1
 370 661 l 1
 647 845 747 1021 747 1245 c 0
 747 1481 614 1584 472 1584 c 0
 329 1584 225 1515 225 1383 c 0
 225 1362 227 1339 233 1314 c 2
 249 1241 l 1
 152 1217 l 1
 134 1292 l 2
 126 1327 122 1360 122 1390 c 0
 122 1582 280 1679 473 1679 c 0
 677 1679 851 1540 851 1244 c 0
 851 975 719 804 465 630 c 1
 465 410 l 1
 370 410 l 1
366 1 m 1
 366 150 l 1
 473 150 l 1
 473 1 l 1
 366 1 l 1
EndSplineSet
EndChar

StartChar: questiondown
Encoding: 191 191 393
Width: 886
VWidth: 0
Flags: W
HStem: -445 95<247.73 562.676> 1084 149<395 502>
VStem: 17 103<-210.935 215.285> 403 95<579.534 824 1084 1233> 643 102<-269.219 -36.3947>
LayerCount: 2
Fore
SplineSet
395 -445 m 0
 191 -445 17 -306 17 -10 c 0
 17 258 148 430 403 604 c 1
 403 824 l 1
 498 824 l 1
 498 572 l 1
 221 389 120 213 120 -11 c 0
 120 -248 253 -350 395 -350 c 0
 539 -350 643 -281 643 -149 c 0
 643 -128 641 -105 635 -80 c 2
 619 -7 l 1
 715 17 l 1
 733 -58 l 2
 742 -94 745 -126 745 -157 c 0
 745 -349 586 -445 395 -445 c 0
395 1084 m 1
 395 1233 l 1
 502 1233 l 1
 502 1084 l 1
 395 1084 l 1
EndSplineSet
EndChar

StartChar: quotedbl
Encoding: 34 34 394
Width: 699
VWidth: 0
Flags: W
HStem: 1188 470<162 222 432 491>
VStem: 162 112<1528.42 1658> 162 60<1188 1317.58> 432 111<1528.42 1658> 432 59<1188 1317.58>
LayerCount: 2
Fore
SplineSet
162 1188 m 1xa0
 162 1658 l 1
 274 1658 l 1xc0
 222 1188 l 1
 162 1188 l 1xa0
432 1188 m 1x88
 432 1658 l 1
 543 1658 l 1x90
 491 1188 l 1
 432 1188 l 1x88
EndSplineSet
EndChar

StartChar: quotedblbase
Encoding: 497 8222 395
Width: 730
VWidth: 0
Flags: W
HStem: 12 184<184 251 457 524>
VStem: 184 134<12 196> 251 67<-145.489 12> 457 134<12 196> 524 67<-145.489 12>
LayerCount: 2
Fore
SplineSet
200 -227 m 1xc0
 168 -191 l 1
 240 -145 251 -97 251 12 c 1xa0
 184 12 l 1
 184 196 l 1
 318 196 l 1
 318 42 l 2
 318 -104 295 -182 200 -227 c 1xc0
473 -227 m 1
 441 -191 l 1
 513 -145 524 -97 524 12 c 1x88
 457 12 l 1
 457 196 l 1
 591 196 l 1
 591 42 l 2x90
 591 -104 568 -182 473 -227 c 1
EndSplineSet
EndChar

StartChar: quotedblleft
Encoding: 498 8220 396
Width: 681
VWidth: 0
Flags: W
HStem: 1288 184<200 266 470 537>
VStem: 133 133<1288 1472> 133 67<1472 1628.84> 403 134<1288 1472> 403 67<1472 1628.84>
LayerCount: 2
Fore
SplineSet
133 1288 m 1xc0
 133 1442 l 2xc0
 133 1587 155 1665 250 1711 c 1
 283 1675 l 1
 211 1628 200 1580 200 1472 c 1xa0
 266 1472 l 1
 266 1288 l 1
 133 1288 l 1xc0
403 1288 m 1x90
 403 1442 l 2x90
 403 1587 426 1665 521 1711 c 1
 553 1675 l 1
 481 1628 470 1580 470 1472 c 1x88
 537 1472 l 1
 537 1288 l 1
 403 1288 l 1x90
EndSplineSet
EndChar

StartChar: quotedblright
Encoding: 499 8221 397
Width: 970
VWidth: 0
Flags: W
HStem: 1473 185<316 382 556 622>
VStem: 316 133<1473 1658> 382 67<1316.16 1473> 556 133<1473 1658> 622 67<1316.16 1473>
LayerCount: 2
Fore
SplineSet
331 1235 m 1xc0
 299 1270 l 1
 371 1317 382 1365 382 1473 c 1xa0
 316 1473 l 1
 316 1658 l 1
 449 1658 l 1
 449 1504 l 2
 449 1358 426 1280 331 1235 c 1xc0
571 1235 m 1
 539 1270 l 1
 611 1317 622 1365 622 1473 c 1x88
 556 1473 l 1
 556 1658 l 1
 689 1658 l 1
 689 1504 l 2x90
 689 1358 666 1280 571 1235 c 1
EndSplineSet
EndChar

StartChar: quoteleft
Encoding: 500 8216 398
Width: 464
VWidth: 0
Flags: W
HStem: 1288 184<173 239>
VStem: 106 133<1288 1472> 106 67<1472 1628.84>
LayerCount: 2
Fore
SplineSet
106 1288 m 1xc0
 106 1442 l 2xc0
 106 1587 129 1665 224 1711 c 1
 256 1675 l 1
 184 1628 173 1580 173 1472 c 1xa0
 239 1472 l 1
 239 1288 l 1
 106 1288 l 1xc0
EndSplineSet
EndChar

StartChar: quoteright
Encoding: 501 8217 399
Width: 313
VWidth: 0
Flags: W
HStem: 1474 184<112 178>
VStem: 112 133<1474 1658> 178 67<1316.51 1474>
LayerCount: 2
Fore
SplineSet
128 1235 m 1xc0
 95 1271 l 1
 167 1317 178 1365 178 1474 c 1xa0
 112 1474 l 1
 112 1658 l 1
 245 1658 l 1
 245 1504 l 2
 245 1358 223 1280 128 1235 c 1xc0
EndSplineSet
EndChar

StartChar: quotesinglbase
Encoding: 502 8218 400
Width: 572
VWidth: 0
Flags: W
HStem: 13 184<238 304>
VStem: 238 133<13 197> 304 67<-144.489 13>
LayerCount: 2
Fore
SplineSet
253 -226 m 1xc0
 221 -190 l 1
 293 -144 304 -96 304 13 c 1xa0
 238 13 l 1
 238 197 l 1
 371 197 l 1
 371 43 l 2
 371 -103 348 -181 253 -226 c 1xc0
EndSplineSet
EndChar

StartChar: quotesingle
Encoding: 39 39 401
Width: 487
VWidth: 0
Flags: W
HStem: 1188 470<162 222>
VStem: 162 112<1528.42 1658> 162 60<1188 1317.58>
LayerCount: 2
Fore
SplineSet
162 1188 m 1xa0
 162 1658 l 1
 274 1658 l 1xc0
 222 1188 l 1
 162 1188 l 1xa0
EndSplineSet
EndChar

StartChar: r
Encoding: 114 114 402
Width: 580
VWidth: 0
Flags: W
HStem: 0 21G<132 240> 1088 108<368.282 540>
VStem: 132 108<0 993.415 1024 1184>
LayerCount: 2
Fore
SplineSet
132 0 m 1
 132 1184 l 1
 240 1184 l 1
 240 1024 l 1
 310 1141 429 1196 520 1196 c 0
 523 1196 536 1195 540 1195 c 1
 540 1082 l 1
 531 1085 508 1088 496 1088 c 0
 384 1088 298 1034 240 935 c 1
 240 0 l 1
 132 0 l 1
EndSplineSet
EndChar

StartChar: radical
Encoding: 504 8730 404
Width: 949
VWidth: 0
Flags: W
HStem: 0 21G<425.285 555.499> 1106 78<-9 169> 1638 20G<790 924>
LayerCount: 2
Fore
SplineSet
430 0 m 1
 169 1107 l 1
 -9 1106 l 1
 -9 1184 l 1
 262 1184 l 1
 295 1051 350 794 381 659 c 1
 413 525 460 296 491 161 c 1
 533 355 592 643 635 835 c 0
 678 1028 768 1466 812 1658 c 1
 924 1658 l 1
 551 0 l 1
 430 0 l 1
EndSplineSet
EndChar

StartChar: registered
Encoding: 174 174 407
Width: 1780
VWidth: 0
Flags: W
HStem: -24 66<666.947 1114.27> 841 67<718 952> 1397 74<718 1081.35> 1635 67<657 1123.85>
VStem: 70 77<565.154 1114.25> 621 97<226 841 908 1397> 1146 100<226 242.668 968.167 1341.55> 1633 77<564.953 1114.25>
CounterMasks: 2 f0 0d
LayerCount: 2
Fore
SplineSet
621 226 m 1
 621 1471 l 1
 965 1471 l 2
 1188 1471 1246 1321 1246 1157 c 0
 1246 1015 1198 884 1044 857 c 1
 1255 226 l 1
 1154 226 l 1
 952 841 l 1
 718 841 l 1
 718 226 l 1
 621 226 l 1
718 908 m 1
 946 908 l 2
 1115 908 1146 1004 1146 1158 c 0
 1146 1311 1105 1397 955 1397 c 2
 718 1397 l 1
 718 908 l 1
891 42 m 0
 1406 42 1633 438 1633 840 c 0
 1633 1244 1406 1635 891 1635 c 0
 372 1635 147 1244 147 840 c 0
 147 438 372 42 891 42 c 0
891 -24 m 0
 307 -24 70 424 70 839 c 0
 70 1255 307 1702 891 1702 c 0
 1473 1702 1710 1255 1710 839 c 0
 1710 423 1475 -24 891 -24 c 0
EndSplineSet
EndChar

StartChar: ring
Encoding: 507 730 408
Width: 589
VWidth: 0
Flags: W
HStem: 1330 63<215.371 374.577> 1616 62<215.149 374.577>
VStem: 118 69<1419.67 1590.77> 404 67<1420.51 1587.92>
LayerCount: 2
Fore
SplineSet
295 1330 m 0
 209 1330 118 1381 118 1504 c 0
 118 1627 208 1678 295 1678 c 0
 380 1678 471 1627 471 1504 c 0
 471 1381 380 1330 295 1330 c 0
295 1393 m 0
 350 1393 404 1424 404 1504 c 0
 404 1585 350 1616 295 1616 c 0
 240 1616 187 1585 187 1504 c 0
 187 1424 240 1393 295 1393 c 0
EndSplineSet
EndChar

StartChar: s
Encoding: 115 115 409
Width: 730
VWidth: 0
Flags: W
HStem: -19 82<258.193 517.226> 1121 82<246.421 481.698>
VStem: 69 92<170.735 323.207> 96 100<816.823 1074.77> 552 81<892 1041.61> 577 97<119.152 389.095>
AnchorPoint: "cedilla" 370 0 basechar 0
LayerCount: 2
Fore
SplineSet
384 -19 m 0xd4
 198 -19 86 111 69 319 c 1
 161 346 l 1
 176 148 255 63 389 63 c 0
 506 63 577 132 577 252 c 0xe4
 577 339 526 430 404 533 c 2
 267 649 l 1
 148 748 96 830 96 947 c 0
 96 1111 202 1203 365 1203 c 0
 540 1203 626 1082 633 892 c 1
 552 868 l 1xd8
 546 1052 478 1121 370 1121 c 0
 268 1121 196 1067 196 964 c 0
 196 874 219 821 317 737 c 1
 458 612 l 1
 565 520 671 424 674 253 c 1
 674 81 561 -19 384 -19 c 0xd4
EndSplineSet
EndChar

StartChar: section
Encoding: 167 167 415
Width: 787
VWidth: 0
Flags: W
HStem: -19 86<291.964 531.373> 1587 88<273.6 495.364>
VStem: 74 103<207.846 302.096 846.34 1069.15> 120 105<1308.26 1538.37> 592 97<125.342 373.538> 642 91<627.026 869.93>
LayerCount: 2
Fore
SplineSet
401 -19 m 0xc8
 221 -19 128 134 88 298 c 1
 172 326 l 1
 203 191 281 67 404 67 c 0
 515 67 590 135 592 240 c 0
 592 244 592 247 592 251 c 0
 592 309 574 370 413 532 c 1
 187 742 l 1
 112 809 74 881 74 957 c 0xe8
 74 1082 165 1155 260 1187 c 1
 188 1256 120 1333 120 1427 c 0
 120 1569 223 1675 396 1675 c 0
 568 1675 642 1516 685 1387 c 1
 597 1359 l 1
 567 1450 514 1587 392 1587 c 0
 299 1587 225 1531 225 1422 c 0
 225 1349 291 1272 365 1204 c 1
 575 1028 l 1
 668 946 733 865 733 744 c 0xd4
 733 735 732 725 731 715 c 0
 722 594 646 537 565 496 c 1
 621 430 687 359 689 256 c 0
 689 254 689 252 689 250 c 0
 689 83 570 -19 401 -19 c 0xc8
501 555 m 1
 560 581 631 635 640 715 c 0
 641 724 642 733 642 742 c 0xe4
 642 821 598 886 508 965 c 2
 322 1129 l 1
 238 1104 177 1047 177 960 c 0
 177 911 202 862 252 811 c 2
 501 555 l 1
EndSplineSet
EndChar

StartChar: semicolon
Encoding: 59 59 416
Width: 417
VWidth: 0
Flags: W
HStem: 896 213<153 274>
VStem: 153 121<175 373 896 1109> 224 59<61.7912 175>
LayerCount: 2
Fore
SplineSet
166 -34 m 1xa0
 138 13 l 1
 210 60 224 93 224 175 c 1xa0
 153 175 l 1
 153 373 l 1xc0
 283 373 l 1
 283 198 l 2
 283 71 258 11 166 -34 c 1xa0
153 896 m 1xc0
 153 1109 l 1
 274 1109 l 1
 274 896 l 1
 153 896 l 1xc0
EndSplineSet
EndChar

StartChar: seven
Encoding: 55 55 417
Width: 946
VWidth: 0
Flags: W
HStem: 0 21G<355 465.277> 1568 90<155 692>
VStem: 355 106<0 66.7028>
LayerCount: 2
Fore
SplineSet
355 0 m 1
 692 1568 l 1
 155 1568 l 1
 155 1658 l 1
 804 1658 l 1
 804 1604 l 1
 461 0 l 1
 355 0 l 1
EndSplineSet
EndChar

StartChar: six
Encoding: 54 54 418
Width: 1008
VWidth: 0
Flags: W
HStem: -22 92<367.625 685> 879 87<346.335 691.64> 1587 90<368.886 683.543>
VStem: 150 109<197.114 819.457 878 1458.99> 765 105<1266 1494.06> 788 112<191.221 771.764>
CounterMasks: 1 e0
LayerCount: 2
Fore
SplineSet
518 -22 m 0xf4
 257 -22 150 150 150 483 c 2
 150 1207 l 2
 150 1500 256 1677 517 1677 c 0
 762 1677 868 1556 870 1304 c 0
 870 1302 870 1268 870 1266 c 1
 765 1266 l 1xf8
 765 1509 693 1587 524 1587 c 0
 377 1587 259 1511 259 1228 c 2
 259 878 l 1
 314 914 423 966 541 966 c 0
 811 966 900 841 900 462 c 0
 900 155 794 -22 518 -22 c 0xf4
518 70 m 0
 692 70 788 147 788 448 c 0xf4
 788 764 752 879 518 879 c 0
 420 879 304 826 259 795 c 1
 259 485 l 2
 259 159 349 70 518 70 c 0
EndSplineSet
EndChar

StartChar: slash
Encoding: 47 47 419
Width: 674
VWidth: 0
Flags: W
HStem: 0 21G<44 147.875> 1638 20G<526.113 629>
VStem: 44 585
LayerCount: 2
Fore
SplineSet
44 0 m 1
 532 1658 l 1
 629 1658 l 1
 142 0 l 1
 44 0 l 1
EndSplineSet
EndChar

StartChar: sterling
Encoding: 163 163 421
Width: 740
VWidth: 0
Flags: W
HStem: 0 79<267 703> 0 56<32 111.16> 804 80<32 159 267 556> 1594 83<339.445 574.01>
VStem: 159 108<79 804 884 1513.89> 625 83<1307 1540.76>
CounterMasks: 1 b0
LayerCount: 2
Fore
SplineSet
32 0 m 1x7c
 32 56 l 1x7c
 159 79 l 1
 159 804 l 1
 32 804 l 1
 32 884 l 1
 159 884 l 1
 159 1145 l 2
 159 1467 190 1677 460 1677 c 0
 669 1677 706 1535 708 1348 c 0
 708 1340 708 1314 708 1307 c 1
 625 1307 l 1
 625 1504 602 1594 458 1594 c 0
 277 1594 268 1434 267 1189 c 1
 267 884 l 1
 556 884 l 1
 556 804 l 1
 267 804 l 1
 267 79 l 1
 703 79 l 1
 703 0 l 1xbc
 32 0 l 1x7c
EndSplineSet
EndChar

StartChar: summation
Encoding: 513 8721 422
Width: 783
VWidth: 0
Flags: W
HStem: -390 88<209 675> 1569 89<212 663>
VStem: 73 602
LayerCount: 2
Fore
SplineSet
73 -390 m 1
 432 662 l 1
 73 1658 l 1
 663 1658 l 1
 663 1569 l 1
 212 1569 l 1
 537 662 l 1
 209 -302 l 1
 675 -302 l 1
 675 -390 l 1
 73 -390 l 1
EndSplineSet
EndChar

StartChar: t
Encoding: 116 116 423
Width: 538
VWidth: 0
Flags: W
HStem: -13 86<314.055 487> 1112 72<33 188 296 497>
VStem: 188 108<85.9186 1112 1184 1562>
AnchorPoint: "cedilla" 340 0 basechar 0
LayerCount: 2
Fore
SplineSet
376 -13 m 0
 211 -13 188 95 188 234 c 2
 188 1112 l 1
 33 1112 l 1
 33 1184 l 1
 188 1184 l 1
 188 1562 l 1
 296 1562 l 1
 296 1184 l 1
 497 1184 l 1
 497 1112 l 1
 296 1112 l 1
 296 247 l 2
 296 118 312 73 400 73 c 0
 425 73 459 78 487 83 c 1
 487 1 l 1
 454 -8 410 -13 376 -13 c 0
EndSplineSet
EndChar

StartChar: tbar
Encoding: 514 359 424
Width: 538
VWidth: 0
Flags: W
HStem: -13 86<314.055 487> 742 67<60 188 296 478> 1112 72<33 188 296 497>
VStem: 188 108<85.9186 742 809 1112 1184 1562>
LayerCount: 2
UndoRedoHistory
Layer: 1
Undoes
EndUndoes
Redoes
EndRedoes
EndUndoRedoHistory
Fore
SplineSet
376 -13 m 0
 211 -13 188 95 188 234 c 2
 188 742 l 1
 60 742 l 1
 60 809 l 1
 188 809 l 1
 188 1112 l 1
 33 1112 l 1
 33 1184 l 1
 188 1184 l 1
 188 1562 l 1
 296 1562 l 1
 296 1184 l 1
 497 1184 l 1
 497 1112 l 1
 296 1112 l 1
 296 809 l 1
 478 809 l 1
 478 742 l 1
 296 742 l 1
 296 247 l 2
 296 118 312 73 400 73 c 0
 425 73 459 78 487 83 c 1
 487 1 l 1
 454 -8 410 -13 376 -13 c 0
EndSplineSet
Colour: ffff00
EndChar

StartChar: thorn
Encoding: 254 254 427
Width: 815
VWidth: 0
Flags: W
HStem: -390 21G<118 227> -19 85<308.193 539.126> 1118 85<311.868 544.838> 1638 20G<118 227>
VStem: 118 109<-390 98 127.96 1049.26 1083 1658> 612 109<152.799 1044.96>
LayerCount: 2
Fore
SplineSet
118 -390 m 1
 118 1658 l 1
 227 1658 l 1
 227 1083 l 1
 270 1140 345 1203 454 1203 c 0
 672 1203 721 1011 721 714 c 2
 721 487 l 2
 721 156 656 -19 443 -19 c 0
 341 -19 269 45 227 98 c 1
 227 -390 l 1
 118 -390 l 1
431 66 m 0
 578 66 612 195 612 484 c 2
 612 715 l 2
 612 997 585 1118 432 1118 c 0
 342 1118 269 1054 227 1008 c 1
 227 173 l 1
 273 117 344 66 431 66 c 0
EndSplineSet
EndChar

StartChar: three
Encoding: 51 51 428
Width: 994
VWidth: 0
Flags: W
HStem: -22 88<337.471 643.467> 820 95<446 630.72> 1590 87<343.704 656.528>
VStem: 140 102<165.606 399 1264 1485.98> 760 112<196.987 682.534 1030.13 1483.34>
CounterMasks: 1 e0
LayerCount: 2
Fore
SplineSet
488 -22 m 0
 237 -22 140 134 140 368 c 2
 140 399 l 1
 242 399 l 1
 242 396 242 370 242 367 c 0
 243 174 314 66 488 66 c 0
 641 66 760 146 760 440 c 0
 760 662 690 817 494 820 c 0
 491 820 449 820 446 820 c 1
 446 915 l 1
 449 915 491 915 493 915 c 0
 688 916 760 1025 760 1270 c 0
 760 1457 698 1590 511 1590 c 0
 333 1590 243 1508 242 1288 c 0
 242 1285 242 1267 242 1264 c 1
 139 1264 l 1
 139 1291 l 2
 139 1522 234 1677 510 1677 c 0
 764 1677 872 1500 872 1269 c 0
 872 1017 770 891 636 865 c 1
 741 839 872 729 872 443 c 0
 872 169 764 -22 488 -22 c 0
EndSplineSet
EndChar

StartChar: threequarters
Encoding: 190 190 429
Width: 1542
VWidth: 0
Flags: W
HStem: 0 7G<413 519.117 1259 1350> 285 73<1024 1259 1350 1480> 700 73<197.044 377.708> 1157 75<288 375.075> 1590 74<200.686 385.557>
VStem: 68 97<799.24 922 1441 1559.99> 425 95<810.901 1115.24 1270.07 1559.72> 1259 91<-14 285 358 915>
CounterMasks: 1 38
LayerCount: 2
Fore
SplineSet
283 700 m 0
 137 700 68 790 68 926 c 1
 165 922 l 1
 165 837 192 773 287 773 c 0
 370 773 425 828 425 963 c 0
 425 1086 374 1157 288 1157 c 1
 288 1232 l 1
 375 1232 419 1284 419 1427 c 0
 419 1530 384 1590 301 1590 c 0
 202 1590 169 1536 169 1441 c 1
 72 1439 l 1
 72 1573 138 1664 300 1664 c 0
 448 1664 515 1560 515 1426 c 0
 515 1276 446 1207 371 1196 c 1
 438 1180 520 1132 520 965 c 0
 520 809 441 700 283 700 c 0
1259 -14 m 1
 1259 285 l 1
 939 285 l 1
 939 355 l 1
 1258 1061 l 1
 1350 1061 l 1
 1350 358 l 1
 1480 358 l 1
 1480 285 l 1
 1350 285 l 1
 1350 -14 l 1
 1259 -14 l 1
413 0 m 1
 1004 1658 l 1
 1102 1658 l 1
 512 0 l 1
 413 0 l 1
1024 358 m 1
 1259 358 l 1
 1259 915 l 1
 1024 358 l 1
EndSplineSet
EndChar

StartChar: threesuperior
Encoding: 179 179 430
Width: 823
VWidth: 0
Flags: W
HStem: 709 87<305.026 516.18> 1217 84<345 515.075> 1696 84<313.125 523.143>
VStem: 173 103<827.5 998 1499 1664.61> 568 97<846.708 1165.21 1351.15 1653.46>
CounterMasks: 1 e0
LayerCount: 2
Fore
SplineSet
408 709 m 0
 238 709 170 811 170 968 c 2
 170 998 l 1
 272 998 l 1
 272 963 l 2
 272 861 309 796 410 796 c 0
 500 796 568 853 568 999 c 0
 568 1129 514 1217 426 1217 c 2
 345 1217 l 1
 345 1301 l 1
 425 1301 l 2
 515 1301 562 1371 562 1522 c 0
 562 1637 513 1696 424 1696 c 0
 320 1696 276 1641 276 1536 c 2
 276 1499 l 1
 173 1499 l 1
 173 1532 l 2
 173 1678 247 1780 422 1780 c 0
 585 1780 659 1671 659 1518 c 0
 659 1362 590 1280 524 1264 c 1
 582 1243 665 1188 665 1006 c 0
 665 832 581 709 408 709 c 0
EndSplineSet
EndChar

StartChar: tilde
Encoding: 517 732 431
Width: 743
VWidth: 0
Flags: W
HStem: 1492 74<427.952 529.805> 1588 75<209.797 340.769>
VStem: 126 75<1507 1581.67> 541 70<1574.84 1658>
LayerCount: 2
Fore
SplineSet
457 1493 m 0
 387 1499 324 1578 276 1586 c 0
 270 1588 264 1588 258 1588 c 0
 224 1588 201 1560 201 1507 c 1
 126 1507 l 1
 126 1542 142 1663 253 1663 c 0
 262 1663 271 1663 281 1661 c 0
 348 1652 415 1573 462 1567 c 0
 467 1566 472 1566 476 1566 c 0
 516 1566 538 1595 541 1658 c 1
 611 1658 l 1
 611 1612 597 1492 477 1492 c 0
 471 1492 464 1492 457 1493 c 0
EndSplineSet
EndChar

StartChar: tildecomb
Encoding: 518 771 432
Width: 743
VWidth: 0
Flags: W
HStem: 1492 74<427.952 529.805> 1588 75<209.797 340.769>
VStem: 126 75<1507 1581.67> 541 70<1574.84 1658>
LayerCount: 2
Fore
SplineSet
457 1493 m 0
 387 1499 324 1578 276 1586 c 0
 270 1588 264 1588 258 1588 c 0
 224 1588 201 1560 201 1507 c 1
 126 1507 l 1
 126 1542 142 1663 253 1663 c 0
 262 1663 271 1663 281 1661 c 0
 348 1652 415 1573 462 1567 c 0
 467 1566 472 1566 476 1566 c 0
 516 1566 538 1595 541 1658 c 1
 611 1658 l 1
 611 1612 597 1492 477 1492 c 0
 471 1492 464 1492 457 1493 c 0
EndSplineSet
EndChar

StartChar: trademark
Encoding: 519 8482 433
Width: 1409
VWidth: 0
Flags: W
HStem: 1580 78<52 244 337 515>
VStem: 244 93<764 1580> 619 81<764 1468> 1223 80<764 1481>
CounterMasks: 1 70
LayerCount: 2
Fore
SplineSet
619 764 m 1
 619 1658 l 1
 718 1658 l 1
 960 924 l 1
 1206 1658 l 1
 1303 1658 l 1
 1303 764 l 1
 1223 764 l 1
 1223 1481 l 1
 981 764 l 1
 941 764 l 1
 700 1468 l 1
 700 764 l 1
 619 764 l 1
244 764 m 1
 244 1580 l 1
 52 1580 l 1
 52 1658 l 1
 515 1658 l 1
 515 1580 l 1
 337 1580 l 1
 337 764 l 1
 244 764 l 1
EndSplineSet
EndChar

StartChar: two
Encoding: 50 50 434
Width: 1001
VWidth: 0
Flags: W
HStem: 0 93<236 844> 1187 21G<119 226> 1585 92<344.717 661.96>
VStem: 119 107<1187 1452.44> 769 108<1050.02 1471.11>
LayerCount: 2
Fore
SplineSet
111 0 m 1
 111 82 l 1
 572 783 l 2
 674 938 769 1071 769 1275 c 0
 769 1468 679 1585 516 1585 c 0
 281 1585 228 1431 226 1215 c 0
 226 1211 226 1191 226 1187 c 1
 119 1187 l 1
 119 1221 l 2
 119 1527 238 1677 512 1677 c 0
 751 1677 877 1521 877 1260 c 0
 877 1063 773 903 670 748 c 2
 236 93 l 1
 844 93 l 1
 844 0 l 1
 111 0 l 1
EndSplineSet
EndChar

StartChar: twosuperior
Encoding: 178 178 435
Width: 820
VWidth: 0
Flags: W
HStem: 722 82<275 629> 1700 80<323.76 521.433>
VStem: 171 86<1468 1630.41> 565 96<1339.87 1660.47>
LayerCount: 2
Fore
SplineSet
165 722 m 1
 165 796 l 1
 447 1224 l 1
 510 1322 565 1383 565 1511 c 0
 565 1631 523 1700 421 1700 c 0
 299 1700 257 1579 257 1468 c 1
 171 1468 l 1
 171 1491 l 2
 171 1683 246 1780 419 1780 c 0
 571 1780 661 1688 661 1516 c 0
 661 1391 610 1304 536 1193 c 2
 275 804 l 1
 629 804 l 1
 629 722 l 1
 165 722 l 1
EndSplineSet
EndChar

StartChar: u
Encoding: 117 117 436
Width: 808
VWidth: 0
Flags: W
HStem: -19 85<248.08 446.506> 0 21G<583 691> 1164 20G<106 215 583 691>
VStem: 106 109<96.1804 1184> 583 108<0 139 164.074 1184>
AnchorPoint: "ogonek" 640 0 basechar 0
LayerCount: 2
Fore
SplineSet
292 -19 m 0xb8
 187 -19 106 51 106 240 c 2
 106 1184 l 1
 215 1184 l 1
 215 252 l 2
 215 107 264 66 339 66 c 0xb8
 423 66 512 125 583 208 c 1
 583 1184 l 1
 691 1184 l 1
 691 0 l 1
 583 0 l 1x78
 583 139 l 1
 507 44 405 -19 292 -19 c 0xb8
EndSplineSet
EndChar

StartChar: underscore
Encoding: 95 95 444
Width: 666
VWidth: 0
Flags: W
HStem: -184 89<0 666>
VStem: 0 666<-184 -95>
LayerCount: 2
Fore
SplineSet
0 -184 m 1
 0 -95 l 1
 666 -95 l 1
 666 -184 l 1
 0 -184 l 1
EndSplineSet
EndChar

StartChar: uni00AD
Encoding: 173 173 446
Width: 672
VWidth: 0
Flags: W
HStem: 639 85<117 567>
VStem: 117 450<639 724>
LayerCount: 2
Fore
SplineSet
117 639 m 1
 117 724 l 1
 567 724 l 1
 567 639 l 1
 117 639 l 1
EndSplineSet
EndChar

StartChar: uni0237
Encoding: 563 567 487
Width: 414
VWidth: 0
Flags: W
HStem: -325 90<-32 131.828> 1164 20G<165 274>
VStem: 165 109<-204.586 1184>
AnchorPoint: "circumflexcomb" 215 1188 basechar 0
LayerCount: 2
Fore
SplineSet
-32 -321 m 1
 -32 -234 l 1
 -28 -235 11 -235 16 -235 c 0
 159 -235 165 -146 165 -58 c 2
 165 1184 l 1
 274 1184 l 1
 274 -66 l 2
 274 -256 182 -325 29 -325 c 0
 19 -325 -24 -324 -32 -321 c 1
EndSplineSet
EndChar

StartChar: uni0302
Encoding: 565 770 489
Width: 656
VWidth: 0
Flags: W
HStem: 1291 367
VStem: 81 486
AnchorPoint: "circumflexcomb" 328 1225 mark 0
LayerCount: 2
Fore
SplineSet
81 1291 m 1
 258 1658 l 1
 394 1658 l 1
 567 1291 l 1
 490 1291 l 1
 325 1604 l 1
 161 1291 l 1
 81 1291 l 1
EndSplineSet
EndChar

StartChar: uni0304
Encoding: 566 772 490
Width: 758
VWidth: 0
Flags: W
HStem: 1583 75<209 559>
VStem: 209 350<1583 1658>
LayerCount: 2
Fore
SplineSet
209 1583 m 1
 209 1658 l 1
 559 1658 l 1
 559 1583 l 1
 209 1583 l 1
EndSplineSet
EndChar

StartChar: uni0306
Encoding: 567 774 491
Width: 735
VWidth: 0
Flags: W
HStem: 1431 70<257.934 479.329> 1638 20G<132 209 530 610>
VStem: 132 75<1551.85 1658> 534 76<1553.93 1658>
LayerCount: 2
Fore
SplineSet
368 1431 m 0
 231 1431 138 1503 132 1658 c 1
 207 1658 l 1
 211 1541 283 1501 368 1501 c 0
 453 1501 526 1541 534 1658 c 1
 610 1658 l 1
 603 1503 506 1431 368 1431 c 0
EndSplineSet
EndChar

StartChar: uni0307
Encoding: 568 775 492
Width: 0
VWidth: 0
HStem: 1445 213<-44 78>
VStem: -44 122<1445 1658>
LayerCount: 2
Fore
SplineSet
-44 1445 m 1
 -44 1658 l 1
 78 1658 l 1
 78 1445 l 1
 -44 1445 l 1
EndSplineSet
EndChar

StartChar: uni0308
Encoding: 569 776 493
Width: 215
VWidth: 0
Flags: W
HStem: 1504 154<-113 1 214 328>
VStem: -113 114<1504 1658> 214 114<1504 1658>
LayerCount: 2
Fore
SplineSet
-113 1504 m 1
 -113 1658 l 1
 1 1658 l 1
 1 1504 l 1
 -113 1504 l 1
214 1504 m 1
 214 1658 l 1
 328 1658 l 1
 328 1504 l 1
 214 1504 l 1
EndSplineSet
EndChar

StartChar: uni030A
Encoding: 570 778 494
Width: 589
VWidth: 0
Flags: W
HStem: 1330 63<215.371 374.577> 1616 62<215.149 374.577>
VStem: 118 69<1419.67 1590.77> 404 67<1420.51 1587.92>
LayerCount: 2
Fore
SplineSet
295 1330 m 0
 209 1330 118 1381 118 1504 c 0
 118 1627 208 1678 295 1678 c 0
 380 1678 471 1627 471 1504 c 0
 471 1381 380 1330 295 1330 c 0
295 1393 m 0
 350 1393 404 1424 404 1504 c 0
 404 1585 350 1616 295 1616 c 0
 240 1616 187 1585 187 1504 c 0
 187 1424 240 1393 295 1393 c 0
EndSplineSet
EndChar

StartChar: uni030C
Encoding: 571 780 495
Width: 0
VWidth: 0
HStem: 1326 332
VStem: -192 430
LayerCount: 2
Fore
SplineSet
-19 1326 m 1
 -192 1658 l 1
 -99 1658 l 1
 23 1409 l 1
 146 1658 l 1
 238 1658 l 1
 63 1326 l 1
 -19 1326 l 1
EndSplineSet
EndChar

StartChar: uni030F
Encoding: 572 783 496
Width: 547
VWidth: 0
Flags: W
HStem: 1358 300
VStem: 290 107<1626.83 1658>
LayerCount: 2
Fore
SplineSet
228 1358 m 1
 51 1658 l 1
 172 1658 l 1
 286 1358 l 1
 228 1358 l 1
428 1358 m 1
 290 1658 l 1
 397 1658 l 1
 483 1358 l 1
 428 1358 l 1
EndSplineSet
EndChar

StartChar: uni0311
Encoding: 573 785 497
Width: 735
VWidth: 0
Flags: W
HStem: 1588 70<266.122 481.443>
VStem: 137 76<1431 1537.15> 529 75<1431 1542.33>
LayerCount: 2
Fore
SplineSet
137 1431 m 1
 143 1586 235 1658 373 1658 c 0
 510 1658 597 1586 604 1431 c 1
 529 1431 l 1
 525 1548 459 1588 374 1588 c 0
 288 1588 220 1548 213 1431 c 1
 137 1431 l 1
EndSplineSet
EndChar

StartChar: uni0326
Encoding: 574 806 498
Width: 449
VWidth: 0
Flags: W
HStem: -239 154<158 230>
VStem: 158 132<-239 -85> 230 60<-353.508 -239>
LayerCount: 2
Fore
SplineSet
172 -455 m 1xc0
 146 -412 l 1
 218 -365 230 -283 230 -239 c 1xa0
 158 -239 l 1
 158 -85 l 1
 291 -85 l 1
 290 -213 l 2
 290 -340 264 -410 172 -455 c 1xc0
EndSplineSet
EndChar

StartChar: uni0490
Encoding: 579 1168 503
Width: 763
VWidth: 0
Flags: W
HStem: 0 21G<152 264> 1572 86<264 652>
VStem: 152 112<0 1572> 652 75<1658 1837>
LayerCount: 2
Fore
SplineSet
152 0 m 1
 152 1658 l 1
 652 1658 l 1
 652 1837 l 1
 728 1837 l 1
 727 1572 l 1
 264 1572 l 1
 264 0 l 1
 152 0 l 1
EndSplineSet
EndChar

StartChar: uni04AE
Encoding: 580 -1 504
Width: 872
VWidth: 0
Flags: W
HStem: 0 21G<390 500> 1638 20G<4 126.904 746.458 868>
VStem: 390 110<0 716>
LayerCount: 2
Fore
SplineSet
390 0 m 1
 390 716 l 1
 4 1658 l 1
 119 1658 l 1
 332 1119 l 1
 444 835 l 1
 550 1117 l 1
 754 1658 l 1
 868 1658 l 1
 500 716 l 1
 500 0 l 1
 390 0 l 1
EndSplineSet
EndChar

StartChar: uni04AF
Encoding: 581 1199 505
Width: 765
VWidth: 0
Flags: W
HStem: 1164 20G<49 160.737 609.304 723>
VStem: 49 107<1125.49 1184> 331 103<-310 90.096> 614 109<1126.9 1184>
LayerCount: 2
Fore
SplineSet
331 -310 m 1
 331 33 l 1
 49 1184 l 1
 156 1184 l 1
 386 213 l 1
 614 1184 l 1
 723 1184 l 1
 434 33 l 1
 434 -310 l 1
 331 -310 l 1
EndSplineSet
EndChar

StartChar: uni04B0
Encoding: 582 1200 506
Width: 872
VWidth: 0
Flags: W
HStem: 0 21G<390 500> 654 82<55 381.805 507.813 834> 1638 20G<4 126.904 746.458 868>
VStem: 390 110<0 654>
LayerCount: 2
UndoRedoHistory
Layer: 1
Undoes
EndUndoes
Redoes
EndRedoes
EndUndoRedoHistory
Fore
SplineSet
55 654 m 1
 55 736 l 1
 381.804670913 736 l 1
 4 1658 l 1
 119 1658 l 1
 332 1119 l 1
 444 835 l 1
 550 1117 l 1
 754 1658 l 1
 868 1658 l 1
 507.813163482 736 l 1
 834 736 l 1
 834 654 l 1
 500 654 l 1
 500 0 l 1
 390 0 l 1
 390 654 l 1
 55 654 l 1
EndSplineSet
Colour: ffff00
EndChar

StartChar: uni04B1
Encoding: 583 1201 507
Width: 768
VWidth: 0
Flags: W
HStem: -8 75<109 322.67 442.537 658> 1164 20G<49 160.737 609.304 723>
VStem: 331 103<-310 -8>
LayerCount: 2
UndoRedoHistory
Layer: 1
Undoes
EndUndoes
Redoes
EndRedoes
EndUndoRedoHistory
Fore
SplineSet
109 -8 m 1
 109 67 l 1
 322.669852302 67 l 1
 49 1184 l 1
 156 1184 l 1
 386 213 l 1
 614 1184 l 1
 723 1184 l 1
 442.536924414 67 l 1
 658 67 l 1
 658 -8 l 1
 434 -8 l 1
 434 -310 l 1
 331 -310 l 1
 331 -8 l 1
 109 -8 l 1
EndSplineSet
Colour: ffff00
EndChar

StartChar: uni04E8
Encoding: 584 1256 508
Width: 1056
VWidth: 0
Flags: W
HStem: -22 92<355.98 699.605> 803 82<231 825> 1586 91<352.383 703.417>
VStem: 118 113<200.796 803 885 1452.68> 825 113<200.221 803 885 1452.23>
LayerCount: 2
UndoRedoHistory
Layer: 1
Undoes
EndUndoes
Redoes
EndRedoes
EndUndoRedoHistory
Fore
SplineSet
528 -22 m 0
 204 -22 118 188 118 472 c 2
 118 1196 l 2
 118 1478 213 1677 528 1677 c 0
 842 1677 938 1477 938 1196 c 2
 938 469 l 2
 938 186 851 -22 528 -22 c 0
528 70 m 0
 766 70 825 222 825 447 c 2
 825 803 l 1
 231 803 l 1
 231 447 l 2
 231 222 289 70 528 70 c 0
231 885 m 1
 825 885 l 1
 825 1212 l 2
 825 1437 767 1586 528 1586 c 0
 289 1586 231 1438 231 1212 c 2
 231 885 l 1
EndSplineSet
Colour: ffff00
EndChar

StartChar: uni04E9
Encoding: 585 1257 509
Width: 784
VWidth: 0
Flags: W
HStem: -19 82<274.406 509.594> 579 76<203 581> 1121 82<274.406 509.594>
VStem: 94 109<133.288 579 655 1049.44> 581 109<133.288 579 655 1050.29>
LayerCount: 2
UndoRedoHistory
Layer: 1
Undoes
EndUndoes
Redoes
EndRedoes
EndUndoRedoHistory
Fore
SplineSet
392 -19 m 0
 156 -19 94 135 94 432 c 2
 94 752 l 2
 94 1046 156 1203 392 1203 c 0
 628 1203 690 1048 690 752 c 2
 690 432 l 2
 690 135 628 -19 392 -19 c 0
392 63 m 0
 564 63 581 200 581 428 c 2
 581 579 l 1
 203 579 l 1
 203 428 l 2
 203 200 220 63 392 63 c 0
203 655 m 1
 581 655 l 1
 581 756 l 2
 581 983 564 1121 392 1121 c 0
 220 1121 203 983 203 756 c 2
 203 655 l 1
EndSplineSet
Colour: ffff00
EndChar

StartChar: uni2074
Encoding: 600 8308 524
Width: 739
VWidth: 0
Flags: W
HStem: 846 72<193 435 526 656> 1638 20G<425.198 526>
VStem: 435 91<532 846 918 1499>
LayerCount: 2
Fore
SplineSet
435 532 m 1
 435 846 l 1
 107 846 l 1
 107 915 l 1
 434 1658 l 1
 526 1658 l 1
 526 918 l 1
 656 918 l 1
 656 846 l 1
 526 846 l 1
 526 532 l 1
 435 532 l 1
193 918 m 1
 435 918 l 1
 435 1499 l 1
 193 918 l 1
EndSplineSet
EndChar

StartChar: uni2215
Encoding: 601 8725 525
Width: 674
VWidth: 0
Flags: W
HStem: 0 21G<44 147.875> 1638 20G<526.113 629>
VStem: 44 585
LayerCount: 2
Fore
SplineSet
44 0 m 1
 532 1658 l 1
 629 1658 l 1
 142 0 l 1
 44 0 l 1
EndSplineSet
EndChar

StartChar: uni2219
Encoding: 602 8729 526
Width: 399
VWidth: 0
Flags: W
HStem: 697 153<166 278>
VStem: 166 112<697 850>
LayerCount: 2
Fore
SplineSet
166 697 m 1
 166 850 l 1
 278 850 l 1
 278 697 l 1
 166 697 l 1
EndSplineSet
EndChar

StartChar: uniFB01
Encoding: 604 64257 528
Width: 879
VWidth: 0
Flags: W
HStem: 0 21G<195 303 625 734> 1107 77<35 195 303 625> 1339 189<631 734> 1526 86<321.073 496>
VStem: 195 108<0 1107 1184 1511.99> 625 109<0 1107 1339 1528>
LayerCount: 2
Fore
SplineSet
195 0 m 1xdc
 195 1107 l 1
 35 1107 l 1
 35 1184 l 1
 195 1184 l 1
 195 1344 l 2
 195 1498 216 1612 394 1612 c 0
 423 1612 467 1606 496 1598 c 1
 496 1515 l 1
 468 1521 436 1526 410 1526 c 0
 318 1526 303 1480 303 1346 c 2
 303 1184 l 1
 734 1184 l 1
 734 0 l 1
 625 0 l 1
 625 1107 l 1
 303 1107 l 1
 303 0 l 1
 195 0 l 1xdc
631 1339 m 1xec
 631 1528 l 1
 734 1528 l 1
 734 1339 l 1
 631 1339 l 1xec
EndSplineSet
EndChar

StartChar: uniFB02
Encoding: 605 64258 529
Width: 910
VWidth: 0
Flags: W
HStem: 0 21G<195 303 666 775> 1107 77<35 195 303 501> 1547 83<353.38 663.361>
VStem: 195 108<0 1107 1184 1502.83> 666 109<0 1540.25>
LayerCount: 2
Fore
SplineSet
303 1107 m 1
 303 0 l 1
 195 0 l 1
 195 1107 l 1
 35 1107 l 1
 35 1184 l 1
 195 1184 l 1
 195 1344 l 2
 195 1476 212 1630 503 1630 c 0
 575 1630 664 1620 775 1598 c 1
 775 0 l 1
 666 0 l 1
 666 1535 l 1
 604 1543 554 1547 512 1547 c 0
 309 1547 303 1455 303 1337 c 0
 303 1336 303 1184 303 1184 c 1
 501 1184 l 1
 501 1107 l 1
 303 1107 l 1
EndSplineSet
EndChar

StartChar: uniFB03
Encoding: 606 64259 530
Width: 1396
VWidth: 0
Flags: W
HStem: 0 21G<195 303 672 780 1142 1251> 1107 77<35 195 303 672 780 1142> 1339 189<1142 1251> 1527 85<324.429 496 801.429 973>
VStem: 195 108<0 1107 1184 1510.3> 672 108<0 1107 1184 1510.3> 1142 109<0 1107 1339 1528>
LayerCount: 2
Fore
SplineSet
1142 1339 m 1xee
 1142 1528 l 1
 1251 1528 l 1
 1251 1339 l 1
 1142 1339 l 1xee
195 0 m 1
 195 1107 l 1
 35 1107 l 1
 35 1184 l 1
 195 1184 l 1
 195 1344 l 2
 195 1494 208 1612 387 1612 c 0
 422 1612 463 1607 496 1598 c 1
 496 1515 l 1
 469 1520 435 1527 409 1527 c 0
 317 1527 303 1475 303 1346 c 2
 303 1184 l 1
 672 1184 l 1
 672 1344 l 2
 672 1494 685 1612 864 1612 c 0
 899 1612 940 1607 973 1598 c 1
 973 1515 l 1
 946 1520 912 1527 886 1527 c 0xde
 794 1527 780 1475 780 1346 c 2
 780 1184 l 1
 1251 1184 l 1
 1251 0 l 1
 1142 0 l 1
 1142 1107 l 1
 780 1107 l 1
 780 0 l 1
 672 0 l 1
 672 1107 l 1
 303 1107 l 1
 303 0 l 1
 195 0 l 1
EndSplineSet
EndChar

StartChar: v
Encoding: 118 118 535
Width: 731
VWidth: 0
Flags: W
HStem: 0 21G<306.405 437.375> 1164 20G<39 153.245 582.87 692>
VStem: 39 653
LayerCount: 2
Fore
SplineSet
311 0 m 1
 39 1184 l 1
 149 1184 l 1
 371 138 l 1
 587 1184 l 1
 692 1184 l 1
 433 0 l 1
 311 0 l 1
EndSplineSet
EndChar

StartChar: w
Encoding: 119 119 536
Width: 1160
VWidth: 0
Flags: W
HStem: 0 21G<259.689 389.831 787.035 907.193> 1164 20G<67 166.113 526.189 639.924 994.081 1093>
LayerCount: 2
Fore
SplineSet
263 0 m 1
 67 1184 l 1
 163 1184 l 1
 328 124 l 1
 530 1184 l 1
 636 1184 l 1
 843 129 l 1
 997 1184 l 1
 1093 1184 l 1
 904 0 l 1
 791 0 l 1
 585 1039 l 1
 386 0 l 1
 263 0 l 1
EndSplineSet
EndChar

StartChar: x
Encoding: 120 120 541
Width: 767
VWidth: 0
Flags: W
HStem: 0 21G<41 157.325 615.397 728> 1164 20G<59 180.404 601.681 723>
LayerCount: 2
Fore
SplineSet
41 0 m 1
 330 617 l 1
 59 1184 l 1
 171 1184 l 1
 392 714 l 1
 611 1184 l 1
 723 1184 l 1
 443 606 l 1
 728 0 l 1
 625 0 l 1
 383 504 l 1
 148 0 l 1
 41 0 l 1
EndSplineSet
EndChar

StartChar: y
Encoding: 121 121 542
Width: 767
VWidth: 0
Flags: W
HStem: -295 88<76 290.228> 1164 20G<49 160.329 609.856 723>
VStem: 49 674
LayerCount: 2
Fore
SplineSet
76 -295 m 1
 76 -207 l 1
 290 -207 332 -158 332 -69 c 0
 332 -61 332 -53 331 -44 c 0
 327 -5 310 64 297 120 c 0
 276 206 69 1097 49 1184 c 1
 156 1184 l 1
 390 103 l 1
 614 1184 l 1
 723 1184 l 1
 434 -97 l 2
 402 -236 313 -295 121 -295 c 2
 76 -295 l 1
EndSplineSet
EndChar

StartChar: yen
Encoding: 165 165 546
Width: 860
VWidth: 0
Flags: W
HStem: 0 21G<387 498> 219 74<170 387 498 711> 508 73<170 370 515 711> 1638 20G<4 125.533 747.769 868>
VStem: 387 111<0 219 293 508>
LayerCount: 2
Fore
SplineSet
387 0 m 1
 387 219 l 1
 170 219 l 1
 170 293 l 1
 387 293 l 1
 387 508 l 1
 170 508 l 1
 170 581 l 1
 370 581 l 1
 4 1658 l 1
 119 1658 l 1
 444 663 l 1
 754 1658 l 1
 868 1658 l 1
 515 581 l 1
 711 581 l 1
 711 508 l 1
 498 508 l 1
 498 293 l 1
 711 293 l 1
 711 219 l 1
 498 219 l 1
 498 0 l 1
 387 0 l 1
EndSplineSet
EndChar

StartChar: z
Encoding: 122 122 548
Width: 666
VWidth: 0
Flags: W
HStem: 0 83<181 597> 1100 84<111 493>
VStem: 66 539
LayerCount: 2
Fore
SplineSet
66 0 m 1
 66 79 l 1
 493 1100 l 1
 111 1100 l 1
 111 1184 l 1
 605 1184 l 1
 605 1113 l 1
 181 83 l 1
 597 83 l 1
 597 0 l 1
 66 0 l 1
EndSplineSet
EndChar

StartChar: zero
Encoding: 48 48 552
Width: 1009
VWidth: 0
Flags: W
HStem: -22 84<354.644 654.179> 1593 84<356.536 651.951>
VStem: 118 112<197.56 1458.63> 778 113<197.56 1458.63>
LayerCount: 2
Fore
SplineSet
504 62 m 0
 715 62 778 223 778 448 c 2
 778 1209 l 2
 778 1434 715 1593 504 1593 c 0
 295 1593 230 1434 230 1209 c 2
 230 448 l 2
 230 223 294 62 504 62 c 0
504 -22 m 0
 201 -22 118 183 118 466 c 2
 118 1191 l 2
 118 1477 210 1677 504 1677 c 0
 798 1677 891 1477 891 1191 c 2
 891 466 l 2
 891 182 810 -22 504 -22 c 0
EndSplineSet
EndChar
